<svg width="161" height="157" viewBox="0 0 161 157" fill="none" xmlns="http://www.w3.org/2000/svg">
<path fill-rule="evenodd" clip-rule="evenodd" d="M69.4362 0.190305C68.7051 0.283136 65.5416 0.580804 62.4064 0.852181C56.8469 1.33323 44.1762 3.10603 41.1417 3.82719C40.3075 4.02584 39.0274 4.30162 38.297 4.44048C31.0136 5.82501 23.3797 8.3187 18.0131 11.0663C11.5053 14.3981 9.55404 16.6524 9.63179 20.7515C9.68615 23.6015 10.2748 26.2004 11.1588 27.4904C11.5136 28.0083 11.7661 28.7005 11.7197 29.0288C11.6316 29.6508 12.5621 33.5958 13.0912 34.8435C13.352 35.4584 13.2629 35.532 12.4737 35.3567C11.9667 35.2437 10.5924 35.0513 9.41924 34.9286C7.18965 34.6958 6.05024 34.2605 6.48828 33.8095C6.62992 33.6631 7.7411 33.3374 8.95689 33.0854L11.1677 32.6274L10.8184 31.0154L10.4692 29.4035L8.27822 29.4365C0.945601 29.547 -2.34108 33.8869 1.83733 37.9413C3.63227 39.6829 6.06399 40.3743 11.3494 40.6451C13.9756 40.7798 15.2551 40.9937 15.2597 41.2992C15.27 41.9871 18.5739 48.383 20.191 50.8454C24.2811 57.075 31.012 63.72 37.1526 67.591C41.213 70.1505 44.5051 71.8993 44.7625 71.6336C44.8768 71.5158 45.4559 71.7446 46.0495 72.1413C46.6434 72.5383 48.8508 73.4967 50.9553 74.2717C55.2337 75.8466 55.1904 75.8259 54.8742 76.1518C54.7487 76.2812 53.3456 75.9717 51.7561 75.4636L48.8665 74.5403L48.8862 75.8494C48.8989 76.6879 49.183 77.3887 49.6767 77.7987C50.6065 78.5709 50.6697 79.0273 49.8479 79.0397C49.5135 79.0447 48.7463 78.5365 48.1433 77.9101C47.1571 76.8857 47.0866 76.6508 47.4422 75.5793C47.7767 74.5711 47.731 74.3116 47.146 73.8972C46.179 73.2124 45.8903 73.5261 45.6166 75.5604C45.4366 76.8999 45.5434 77.6258 46.0565 78.545C46.7069 79.7099 46.7045 79.8527 45.999 82.003C45.5941 83.2367 44.7665 85.9657 44.16 88.0678C43.5532 90.1698 41.8306 96.008 40.3322 101.041C38.8334 106.075 37.6095 110.331 37.612 110.5C37.6146 110.669 37.8735 110.804 38.1873 110.799C38.855 110.789 38.9546 111.388 38.3497 111.774C38.1194 111.922 37.8086 111.851 37.6593 111.618C37.4173 111.238 34.0261 122.428 30.0283 136.798C29.2392 139.635 28.1184 143.591 27.5377 145.588C26.341 149.704 26.4009 149.917 29.0779 151.076C30.1764 151.552 31.028 151.649 32.2825 151.441C34.2062 151.123 33.8711 151.788 36.1575 143.745C38.8179 134.386 41.0227 126.584 42.2054 122.345C42.909 119.823 43.783 116.813 44.1477 115.656C44.5127 114.5 45.3281 111.748 45.9608 109.54C47.2615 104.999 47.7295 103.404 50.6688 93.4874C51.8214 89.5981 53.0368 85.3811 53.3693 84.1161C53.8441 82.3106 54.2157 81.6726 55.0979 81.1486C55.8186 80.7199 56.5375 79.7361 57.1037 78.401L57.9864 76.3211L60.7748 76.9712C62.3084 77.3287 64.849 77.7219 66.4205 77.8447C67.9921 77.9675 69.6215 78.142 70.0414 78.2327C71.6303 78.5748 86.5752 78.4261 90.3966 78.0299C92.5907 77.8024 94.7282 77.6076 95.1466 77.5972C95.5651 77.5863 97.7621 77.2001 100.029 76.7382C102.296 76.2763 104.187 75.9498 104.231 76.0123C104.275 76.0748 104.681 76.9767 105.132 78.0163C105.838 79.6408 106.648 80.4323 108.244 81.0574C108.303 81.0809 108.688 82.1881 109.1 83.518C110.009 86.461 119.485 115.613 121.111 120.472L122.278 123.957L120.262 126.034C116.542 129.868 114.983 134.479 115.414 140.379C115.978 148.088 119.514 153.296 125.705 155.531C127.552 156.199 128.457 156.293 131.189 156.102C133.967 155.909 134.817 155.678 136.806 154.579C140.794 152.376 143.693 148.1 144.795 142.794C145.549 139.168 145.485 137.335 144.488 133.924C142.633 127.576 139.228 123.786 133.994 122.243C132.733 121.871 131.24 121.574 130.676 121.582C129.696 121.597 129.583 121.39 128.143 116.959C127.314 114.408 125.666 109.424 124.482 105.884C123.297 102.344 120.81 94.7984 118.954 89.1165C115.806 79.4784 115.615 78.7165 116.105 77.7437C116.713 76.5328 116.759 74.6877 116.215 73.3188L115.834 72.3599L113.269 73.4925C111.858 74.1158 109.968 74.8338 109.069 75.0878C108.171 75.3422 107.191 75.6485 106.891 75.7683C106.593 75.8885 106.345 75.8127 106.342 75.6004C106.339 75.3877 107.315 74.8513 108.512 74.4082C112.97 72.7569 114.022 72.3191 116.857 70.9361C129.572 64.7329 139.364 54.498 144.953 41.5683C145.782 39.6494 146.566 37.6337 146.694 37.0895C146.89 36.2521 147.14 36.0953 148.312 36.0735C150.478 36.0328 156.611 34.5606 157.953 33.7588C159.435 32.8738 160.463 30.8697 160.434 28.9218C160.395 26.2492 158.082 24.8266 153.225 24.4885C151.264 24.3517 151.203 24.3781 150.639 25.6146C149.991 27.0342 150.205 27.6783 151.318 27.6615C152.443 27.6446 154.81 28.6835 154.568 29.0886C154.451 29.2829 153.46 29.6666 152.365 29.9411C149.615 30.6302 149.184 30.9205 148.938 32.25C148.821 32.8872 148.572 33.4108 148.385 33.4136C148.198 33.4164 148.27 32.4309 148.546 31.2232C148.821 30.0154 149.178 28.255 149.339 27.3108C149.499 26.3666 149.989 23.9619 150.427 21.967C151.467 17.2408 151.125 15.8319 148.275 13.0898C142.689 7.71377 126.893 3.16172 106.742 1.12057C104.331 0.876441 101.552 0.591056 100.566 0.486435C99.5799 0.381807 97.5226 0.223312 95.9942 0.134849C92.3985 -0.0735311 71.1711 -0.0291468 69.4362 0.190305ZM74.0305 2.04958C74.0366 2.45208 73.8083 2.55142 73.2563 2.38546C72.8259 2.25571 72.2288 2.35909 71.9298 2.61475C71.6311 2.87078 71.0413 2.99534 70.6196 2.89172C70.1582 2.77843 69.7261 2.93792 69.5347 3.29241C69.3148 3.70022 69.1329 3.75051 68.9447 3.45616C68.4154 2.62773 67.1459 3.0761 64.8348 4.9074C62.9877 6.37134 52.5448 13.7408 49.5611 15.6862C49.2325 15.9004 48.111 16.702 47.0684 17.4677C46.0263 18.233 43.2249 20.2277 40.8432 21.8999C38.4616 23.5717 35.5791 25.6673 34.4372 26.5559C32.4088 28.1352 32.3319 28.1607 31.0542 27.6617L29.747 27.1509L31.233 26.4185C32.0504 26.0154 34.1585 24.6293 35.918 23.3383C37.6775 22.0473 40.5578 20.0023 42.3185 18.7939C52.7516 11.6346 57.9928 7.98471 58.323 7.64944C58.5696 7.39876 58.0482 7.3697 56.7996 7.56432C53.8183 8.02859 49.5596 8.36369 49.7944 8.11509C50.1225 7.76805 57.276 6.24699 58.6802 6.22583C59.9581 6.20658 61.0974 5.77805 63.4119 4.44633L64.7323 3.6867L63.3973 3.4823C62.6631 3.37007 61.8927 3.3756 61.6852 3.49516C61.1201 3.82104 57.6945 3.81977 57.6896 3.49373C57.683 3.05737 58.9784 2.81067 64.3298 2.22812C71.8895 1.4049 74.0202 1.36554 74.0305 2.04958ZM86.2003 1.57776C86.2083 2.11037 83.9516 2.44919 81.956 2.21517C80.1697 2.0054 79.3857 2.50428 80.728 2.99624C81.0571 3.11686 81.2359 3.36685 81.1257 3.55154C81.015 3.73662 77.7434 6.09687 73.8552 8.79633C69.9673 11.4962 64.4991 15.3618 61.7042 17.386C58.9093 19.4107 55.012 22.1392 53.0435 23.4493C47.3655 27.2291 44.57 29.3173 44.5769 29.775C44.5853 30.3304 50.9834 31.1362 52.9644 30.8316C53.9181 30.6848 55.4199 29.9198 57.0013 28.7749C58.3861 27.7723 62.2698 24.9413 65.6316 22.4838C74.3064 16.1421 76.9352 14.228 82.7012 10.0557C85.5026 8.02869 87.7924 6.22322 87.7897 6.04365C87.787 5.86408 86.8012 5.7682 85.5985 5.83046C84.3958 5.8931 82.8126 5.92725 82.0797 5.90671C80.8284 5.87153 80.7913 5.83479 81.4706 5.30438C82.0197 4.876 83.0724 4.75966 85.8394 4.82109C88.4092 4.87864 89.7858 4.74412 90.5042 4.36532C91.6319 3.77145 93.4611 3.61908 93.4686 4.11822C93.4712 4.29398 93.0907 4.62125 92.6234 4.84558C92.156 5.0699 89.742 6.81068 87.2592 8.7142C81.8102 12.8916 77.6515 15.9558 77.0692 16.223C76.8333 16.3312 76.0659 16.893 75.3642 17.4713C72.6659 19.6954 61.4464 28.128 59.4583 29.4263C58.3101 30.1761 57.3667 30.9803 57.3615 31.2136C57.3504 31.7389 60.0048 32.0817 63.6551 32.0267C65.889 31.9931 66.7829 31.7897 68.3075 30.9695C69.9646 30.0777 79.8496 22.5587 95.1519 10.55C97.7725 8.49373 99.8146 6.71217 99.6902 6.59152C99.5659 6.47086 98.0376 6.3938 96.2937 6.42008C94.5342 6.44659 93.121 6.30615 93.118 6.10452C93.1092 5.51978 95.655 5.16826 98.4883 5.36302C100.515 5.50219 101.356 5.39931 102.175 4.91283C103.229 4.28658 104.508 4.40432 104.519 5.1283C104.522 5.3364 103.551 6.19122 102.36 7.02769C101.169 7.86415 97.7414 10.5224 94.743 12.9349C78.2147 26.2326 77.9105 26.4746 74.0902 29.3675C72.4194 30.6328 71.054 31.7919 71.0563 31.9433C71.0585 32.0951 73.2072 32.3105 75.8315 32.422L80.6022 32.6253L82.578 31.2701C84.4325 29.9978 92.6187 23.4021 96.3739 20.1544C97.3036 19.3504 100.94 16.3762 104.456 13.545C107.971 10.7142 110.895 8.26708 110.953 8.10752C111.012 7.94796 109.68 7.62402 107.993 7.38763C103.672 6.78188 103.98 6.11629 108.439 6.42391C112.36 6.69436 112.588 6.69015 114.336 6.31069C115.841 5.98395 115.974 6.56949 114.618 7.55305C112.7 8.94424 95.3408 23.1864 93.934 24.5235C93.4819 24.9527 91.2356 26.7879 88.9417 28.6015C86.6478 30.415 84.7694 32.0514 84.7677 32.2379C84.7661 32.4331 86.9027 32.4291 89.8015 32.2282L94.8383 31.8795L96.9068 30.2646C98.9122 28.6993 106.26 22.6763 109.526 19.9197C110.41 19.1738 112.203 17.6978 113.511 16.64C116.878 13.916 121.125 10.1643 121.269 9.78659C121.336 9.61053 121.047 9.47181 120.628 9.47813C119.006 9.50257 115.988 8.6405 115.98 8.15087C115.971 7.49993 116.579 7.50521 120.236 8.18909C122.6 8.63103 123.36 8.65116 123.79 8.28318C124.483 7.69053 125.549 8.05312 125.279 8.78932C125.167 9.09466 123.337 10.744 121.211 12.4553C119.086 14.1662 113.863 18.5255 109.604 22.1419C105.346 25.7587 101.098 29.284 100.164 29.9754C99.2311 30.6672 98.5392 31.345 98.6265 31.4819C98.7691 31.705 101.04 31.5284 107.143 30.8189C109.705 30.5211 109.803 30.4523 121.564 20.6287C123.564 18.9577 126.567 16.4878 128.236 15.1395C129.905 13.7917 131.268 12.5618 131.266 12.4069C131.263 12.2521 130.359 11.9103 129.256 11.6472C126.614 11.0173 125.503 10.5158 125.768 10.0719C126.025 9.64261 128.017 9.92045 130.67 10.7561C131.721 11.0869 132.717 11.3181 132.881 11.2696C133.046 11.221 133.54 11.3666 133.979 11.5932C134.771 12.0017 134.77 12.0098 133.839 12.6467C133.324 13 132.077 14.0154 131.069 14.9035C127.363 18.1668 121.62 22.9818 117.875 25.9653C113.962 29.0821 113.273 29.7569 114.012 29.7458C115.241 29.7273 124.881 27.5979 125.595 27.1876C126.057 26.9219 129.715 24.1426 133.724 21.0117L141.013 15.3184L141.882 16.3224C142.789 17.3693 143.023 18.4537 142.425 18.8364C142.233 18.9591 141.961 18.7167 141.821 18.2971C141.359 16.9137 140.417 17.4077 134.19 22.3011C129.135 26.2728 128.746 26.9274 132.072 25.8636C133.095 25.5361 134.19 25.2651 134.504 25.2611C135.753 25.2461 133.927 25.9768 129.994 27.0658C127.789 27.6763 125.52 28.5069 124.95 28.912C124.156 29.4772 123.053 29.6955 120.208 29.8503C116.046 30.077 111.279 30.9814 110.433 31.7054C110.024 32.0556 109.737 32.0743 109.365 31.7751C109.013 31.4916 108.166 31.4846 106.606 31.7528C105.368 31.9655 102.816 32.249 100.934 32.3828C99.0527 32.5166 97.5134 32.6391 97.5136 32.6547C97.5192 33.0248 74.8234 33.5073 66.891 33.3052C64.6926 33.2493 61.4347 32.959 59.6512 32.6598C57.8677 32.3605 55.9817 32.1983 55.46 32.2994C54.9383 32.4001 53.7232 32.3469 52.7603 32.181C51.7969 32.0152 50.1939 31.7942 49.1976 31.6898C48.2017 31.5853 47.0685 31.336 46.6801 31.1356C45.7769 30.6694 43.3731 30.698 43.0862 31.1784C42.829 31.6092 41.8217 31.326 40.9061 30.5651C40.5296 30.2522 39.9387 30.1344 39.492 30.2839C39.0649 30.4265 38.3343 30.3028 37.8435 30.005C37.3585 29.711 36.3183 29.3674 35.5313 29.2416C34.7448 29.1157 34.0985 28.8537 34.0956 28.6593C34.0902 28.3036 35.429 28.4322 37.9064 29.0258C40.7348 29.7035 41.2634 29.4809 47.3596 25.0464C54.0742 20.162 62.0203 14.6243 69.1315 9.87361C71.8561 8.05359 74.0861 6.44079 74.0876 6.28932C74.0891 6.13823 72.2082 6.11406 69.9078 6.23625C67.6075 6.35805 65.7231 6.30806 65.7203 6.12431C65.7117 5.55479 67.2451 5.24058 70.7373 5.09586C72.5847 5.0197 74.2036 4.84614 74.3351 4.71059C74.4666 4.57505 75.278 4.45361 76.1381 4.44065C77.6413 4.418 79.3809 3.57289 79.3703 2.87022C79.3675 2.68494 78.6499 2.49141 77.7762 2.43988C76.9022 2.38875 76.1133 2.13425 76.0234 1.87381C75.898 1.51077 77.0636 1.38248 81.0278 1.32274C83.87 1.27991 86.1975 1.39476 86.2003 1.57776ZM92.3161 1.7531C92.7705 2.28432 92.5674 2.34105 90.3733 2.29724C87.6567 2.24343 87.0124 2.06021 87.7766 1.55971C88.6704 0.974311 91.7626 1.10618 92.3161 1.7531ZM100.859 2.12934C104.365 2.42317 105.624 2.7124 105.632 3.22638C105.637 3.54785 103.664 3.48665 98.7794 3.0142C96.9978 2.84203 95.4131 2.7818 95.2582 2.88003C95.1029 2.97864 94.6137 2.81363 94.1708 2.51322C93.4146 2.00025 93.4082 1.95468 94.064 1.76063C94.4478 1.64715 95.3621 1.61892 96.0958 1.69805C96.8295 1.77718 98.9729 1.97131 100.859 2.12934ZM54.9322 3.71374C54.8479 3.97682 54.2807 4.21902 53.672 4.25255C52.2717 4.32921 50.4207 4.83008 49.8587 5.28453C49.6211 5.47685 47.6831 5.73247 45.5524 5.85286C42.1872 6.04247 41.7376 5.99749 42.1309 5.50868C42.3801 5.19936 43.1505 4.93774 43.8436 4.9273C44.5368 4.91685 45.5651 4.7248 46.1287 4.50092C46.6927 4.27667 48.1059 3.9909 49.2692 3.8653C50.4325 3.74008 51.461 3.55868 51.5546 3.46214C51.6483 3.36559 52.4811 3.27503 53.4052 3.2611C54.5815 3.24338 55.0394 3.37917 54.9322 3.71374ZM57.3104 3.58277C57.3136 3.79201 57.1449 3.9658 56.9357 3.96895C56.7265 3.9721 56.5527 3.80348 56.5495 3.59424C56.5464 3.385 56.715 3.21123 56.9242 3.20807C57.1335 3.20492 57.3073 3.37353 57.3104 3.58277ZM109.685 2.81867C109.911 3.03824 110.933 3.2637 111.956 3.31944C113.809 3.42052 115.682 3.63241 118.182 4.02435C118.906 4.13788 119.829 4.45542 120.234 4.73014C120.639 5.00487 121.205 5.136 121.49 5.02135C121.776 4.90668 122.914 5.02348 124.019 5.28081C126.601 5.88157 126.5 5.86178 127.195 5.90686C127.521 5.9282 127.678 6.13017 127.544 6.35557C127.409 6.58135 127.015 6.65844 126.668 6.52744C126.32 6.39606 125.189 6.22018 124.154 6.13647C123.119 6.05237 122.1 5.88166 121.891 5.75658C121.682 5.63111 120.556 5.47911 119.39 5.41791C118.224 5.35672 116.067 5.05587 114.597 4.74924C113.128 4.44299 111.149 4.16002 110.199 4.12105C106.9 3.98545 105.509 3.49041 106.259 2.71844C106.659 2.30601 109.234 2.38101 109.685 2.81867ZM38.5117 6.51872C38.6403 6.71999 38.304 7.00246 37.7647 7.14643C36.6834 7.43518 36.2249 7.21377 36.6013 6.58404C36.9071 6.07218 38.198 6.028 38.5117 6.51872ZM49.6473 6.86007C49.2809 7.11484 46.6546 8.96456 43.811 10.9709C25.2996 24.0307 23.739 25.0413 22.9305 24.4933C22.2143 24.0072 22.5684 23.6966 28.3387 19.7527C31.7349 17.4316 35.6524 14.8303 37.0444 13.9722C38.436 13.114 40.376 11.826 41.3549 11.1099L43.1345 9.80836L41.521 10.061C40.6338 10.2003 39.2244 10.432 38.3894 10.5758C37.4895 10.731 36.869 10.6859 36.8656 10.4649C36.8597 10.0684 40.4693 8.98166 43.3054 8.52681C44.2449 8.37567 45.8635 7.83186 46.9022 7.31809C48.9471 6.30628 50.9148 5.97793 49.6473 6.86007ZM33.7734 7.27888C33.7759 7.44209 33.2672 7.77737 32.643 8.02385C31.4212 8.50612 31.0737 8.07111 32.1582 7.417C32.9517 6.9389 33.7672 6.86915 33.7734 7.27888ZM35.3502 10.912C35.358 11.4294 32.9988 12.6202 31.2822 12.9653C29.5598 13.3117 26.0253 15.249 22.0764 18.0117C19.8562 19.5646 17.9431 20.7411 17.8242 20.6261C17.1418 19.964 17.9104 18.9764 20.509 17.1784C24.1974 14.6258 27.457 12.9621 31.5503 11.5435C35.343 10.229 35.34 10.2298 35.3502 10.912ZM61.2474 12.3205C61.2505 12.5297 61.0803 12.5977 60.8691 12.4715C60.6579 12.3453 60.4825 12.071 60.4794 11.8617C60.4762 11.6525 60.6465 11.5845 60.8576 11.7107C61.0688 11.8369 61.2442 12.1112 61.2474 12.3205ZM44.8871 12.4814C44.8899 12.6682 44.6127 12.933 44.2715 13.0702C43.7522 13.2786 43.7278 13.223 44.1226 12.7327C44.6605 12.0643 44.8797 11.9922 44.8871 12.4814ZM91.2983 11.61C91.2997 11.7025 91.1313 11.8861 90.924 12.0186C90.7167 12.1511 90.5444 12.078 90.541 11.8566C90.5377 11.6352 90.7061 11.4511 90.9154 11.448C91.1246 11.4448 91.2969 11.5176 91.2983 11.61ZM16.758 14.4681C16.7611 14.6774 16.5823 14.8513 16.3608 14.8546C16.1394 14.858 16.0611 14.6879 16.1873 14.4767C16.3135 14.2655 16.492 14.0916 16.5845 14.0902C16.6769 14.0888 16.7548 14.2589 16.758 14.4681ZM128.239 13.5492C126.902 14.7091 125.978 15.0327 125.968 14.3445C125.964 14.1353 126.176 13.9571 126.437 13.9486C126.699 13.9401 127.336 13.5918 127.853 13.1745C129.353 11.9643 129.689 12.2907 128.239 13.5492ZM114.157 13.3809C114.16 13.5902 113.981 13.7641 113.76 13.7674C113.538 13.7708 113.46 13.6007 113.586 13.3895C113.712 13.1783 113.891 13.0044 113.983 13.003C114.076 13.0016 114.154 13.1717 114.157 13.3809ZM137.019 13.0554C137.433 13.2691 137.676 13.6045 137.559 13.8008C137.33 14.1832 135.848 13.4601 135.84 12.9624C135.835 12.5717 136.126 12.5947 137.019 13.0554ZM43.7985 15.7688C43.5445 16.0843 43.1993 16.2604 43.0311 16.1598C42.8629 16.0592 41.9056 16.343 40.9036 16.7908C38.8746 17.697 38.9165 17.4962 41.0385 16.1472C42.7041 15.0878 44.55 14.8351 43.7985 15.7688ZM81.0927 16.1623C81.0959 16.3716 80.8314 16.5468 80.5053 16.5517C80.1793 16.5566 80.0154 16.3879 80.1416 16.1767C80.2678 15.9655 80.5319 15.7903 80.729 15.7873C80.926 15.7843 81.0896 15.9531 81.0927 16.1623ZM68.7596 16.9311C68.3579 17.2443 67.7624 17.4995 67.4363 17.4975C66.9621 17.4952 66.9893 17.3802 67.573 16.9247C67.9747 16.6115 68.5702 16.3564 68.8963 16.3583C69.3705 16.3607 69.3433 16.4756 68.7596 16.9311ZM124.846 15.6708C124.847 15.7633 124.679 15.9469 124.472 16.0794C124.264 16.2119 124.092 16.1388 124.089 15.9174C124.085 15.696 124.254 15.5119 124.463 15.5088C124.672 15.5056 124.845 15.5784 124.846 15.6708ZM137.18 15.5481C137.889 15.808 138.025 16.5917 137.318 16.3478C137.056 16.257 136.531 16.4613 136.152 16.8019C135.495 17.3924 135.485 17.3724 135.921 16.3753C136.173 15.8 136.423 15.3286 136.477 15.3277C136.531 15.3269 136.847 15.426 137.18 15.5481ZM83.1966 16.8917C83.0704 17.1029 82.7633 17.2761 82.514 17.2768C82.2416 17.2771 82.2865 17.1269 82.6259 16.9003C83.3496 16.4168 83.4813 16.4148 83.1966 16.8917ZM66.6611 18.0515C66.6655 18.3429 66.3896 18.6937 66.0477 18.8309C65.1107 19.2065 64.9163 18.7559 65.7385 18.1141C66.6427 17.4086 66.6514 17.4078 66.6611 18.0515ZM97.264 17.7813C96.7497 18.2712 94.0692 18.7233 94.0631 18.3212C94.0581 17.9853 97.1181 17.0856 97.4474 17.3265C97.5394 17.3932 97.4568 17.598 97.264 17.7813ZM110.028 17.202C110.037 17.7491 108.971 18.4904 108.543 18.235C108.325 18.1048 107.353 18.3637 106.383 18.8102C104.118 19.8535 103.769 19.5608 105.919 18.4211C108.377 17.1184 110.02 16.6309 110.028 17.202ZM25.7729 19.2791C25.9054 19.4864 25.8425 19.6586 25.6333 19.6618C25.424 19.6649 25.1445 19.4979 25.012 19.2906C24.8795 19.0833 24.9424 18.9111 25.1516 18.908C25.3608 18.9048 25.6404 19.0718 25.7729 19.2791ZM122.405 17.8229C122.279 18.0341 122.015 18.2094 121.818 18.2123C121.62 18.2153 121.457 18.0465 121.454 17.8373C121.451 17.628 121.715 17.4528 122.041 17.4479C122.367 17.443 122.531 17.6118 122.405 17.8229ZM134.765 17.3802C134.766 17.4483 134.363 17.8954 133.869 18.3736C133.326 18.8993 132.873 19.0899 132.724 18.8558C132.587 18.6425 132.948 18.2033 133.525 17.8791C134.674 17.2332 134.763 17.1976 134.765 17.3802ZM11.7789 19.7286C11.3847 20.1348 12.5683 21.9603 14.0361 23.2103C15.7565 24.676 20.7501 27.1206 24.3526 28.2608C30.7062 30.2724 40.7057 32.4449 46.4988 33.073C47.983 33.2336 50.3125 33.5083 51.6756 33.6833C54.8385 34.0893 60.6829 34.6835 63.8711 34.9235C69.1406 35.3201 92.6501 35.0792 97.5373 34.5783C112.051 33.0909 126.496 30.152 135.669 26.8204C142.919 24.1871 148.511 20.4879 148.479 18.346C148.471 17.8423 148.659 17.4273 148.896 17.4238C149.641 17.4125 149.032 20.399 148.006 21.7862C140.743 31.6128 104.89 39.1936 71.1481 38.0377C66.2272 37.869 60.0573 37.5153 57.4372 37.2515C54.8171 36.9877 51.9875 36.7061 51.1491 36.6255C47.6283 36.2874 38.3301 34.7243 35.1263 33.932C23.1579 30.9726 17.7458 28.7325 13.5548 25.0034C12.847 24.3736 12.0192 23.4001 11.7147 22.8396C11.045 21.6073 10.9539 19.5024 11.5699 19.4931C11.8137 19.4895 11.9078 19.5954 11.7789 19.7286ZM64.2454 20.4429C63.8443 20.7458 63.1631 20.9916 62.7323 20.9894C62.1261 20.9863 62.2476 20.8201 63.2696 20.2548C64.7285 19.4474 65.3945 19.5759 64.2454 20.4429ZM120.327 18.7831C120.328 18.8756 120.159 19.0593 119.952 19.1918C119.745 19.3243 119.573 19.2511 119.569 19.0297C119.566 18.8083 119.734 18.6243 119.944 18.6211C120.153 18.618 120.325 18.6907 120.327 18.7831ZM90.3208 22.4922C90.3239 22.7015 90.1553 22.8753 89.946 22.8784C89.7368 22.8816 89.563 22.713 89.5599 22.5037C89.5567 22.2945 89.7253 22.1207 89.9346 22.1175C90.1438 22.1144 90.3176 22.283 90.3208 22.4922ZM104.013 22.0732C104.015 22.1656 103.846 22.3493 103.639 22.4818C103.432 22.6143 103.259 22.5412 103.256 22.3198C103.253 22.0984 103.421 21.9143 103.63 21.9112C103.84 21.908 104.012 21.9807 104.013 22.0732ZM74.869 23.2959C74.6464 23.9027 73.9823 24.1011 73.9742 23.5632C73.9681 23.1607 74.3776 22.7325 74.774 22.7265C74.9418 22.724 74.9845 22.9802 74.869 23.2959ZM88.2486 23.8671C87.2585 24.704 86.1747 25.1301 86.168 24.685C86.1641 24.4301 88.5873 22.9111 88.9952 22.9129C89.2045 22.9136 88.8685 23.3433 88.2486 23.8671ZM54.5822 24.5529C53.3536 25.5441 52.6142 25.5438 53.7682 24.5526C54.2559 24.1335 54.85 23.7916 55.0886 23.7926C55.3269 23.7936 55.0991 24.1357 54.5822 24.5529ZM73.6036 24.2256C73.61 24.6475 72.447 25.1425 72.1426 24.8473C72.0198 24.7281 72.1689 24.4679 72.4737 24.2685C73.1784 23.8077 73.5971 23.7919 73.6036 24.2256ZM101.005 24.4241C100.749 24.7419 100.368 25.0045 100.159 25.0077C99.9468 25.0109 99.9845 24.758 100.244 24.4356C100.5 24.1178 100.88 23.8552 101.089 23.8521C101.301 23.8489 101.264 24.1017 101.005 24.4241ZM52.3282 26.4895C52.3314 26.6987 52.1525 26.8727 51.9311 26.876C51.7096 26.8794 51.6314 26.7093 51.7576 26.4981C51.8837 26.2869 52.0623 26.113 52.1547 26.1116C52.2472 26.1102 52.3251 26.2803 52.3282 26.4895ZM107.498 26.0387C107.501 26.2479 107.322 26.4219 107.101 26.4252C106.879 26.4285 106.801 26.2585 106.927 26.0473C107.053 25.8361 107.232 25.6621 107.324 25.6608C107.417 25.6594 107.495 25.8294 107.498 26.0387ZM68.41 27.6989C67.8934 28.2402 67.7405 28.2672 67.6275 27.8374C67.4761 27.2632 68.2784 26.5642 68.7595 26.8515C68.92 26.9476 68.7629 27.329 68.41 27.6989ZM157.203 27.1078C157.469 27.4596 157.607 27.8788 157.511 28.0397C157.2 28.5596 156.24 28.3655 156.232 27.7808C156.227 27.4688 155.878 27.0049 155.455 26.7498C155.033 26.4948 154.685 26.1602 154.683 26.0065C154.676 25.5431 156.685 26.4212 157.203 27.1078ZM14.3368 30.5583C14.3473 31.2594 13.0898 30.6882 12.7636 29.8434C12.4428 29.0134 12.4591 29.007 13.3827 29.5924C13.9044 29.9232 14.3337 30.3578 14.3368 30.5583ZM5.97401 31.1459C5.97528 31.23 5.38244 31.6613 4.65659 32.1041C3.93076 32.5473 3.34086 33.1727 3.3457 33.4934C3.35053 33.8145 3.18329 34.0796 2.97405 34.0827C2.7648 34.0859 2.5873 33.67 2.57959 33.1583C2.57013 32.5306 2.90335 32.0434 3.60347 31.6611C4.59306 31.1203 5.96912 30.8214 5.97401 31.1459ZM15.8689 31.2247C15.8721 31.434 15.6179 31.609 15.304 31.6138C14.9901 31.6185 14.7307 31.4512 14.7276 31.2419C14.7244 31.0327 14.9787 30.8576 15.2925 30.8529C15.6064 30.8482 15.8658 31.0155 15.8689 31.2247ZM154.594 31.2393C153.76 31.8897 153.251 31.9765 153.243 31.4694C153.237 31.0764 153.902 30.7357 154.753 30.6962C155.179 30.6765 155.138 30.8148 154.594 31.2393ZM6.61163 35.6059C9.37048 36.4658 9.53896 36.864 7.08833 36.7354C5.45381 36.6493 3.76209 35.873 3.752 35.2038C3.74457 34.7104 3.7335 34.709 6.61163 35.6059ZM19.5421 36.6771C19.9139 37.608 20.1557 38.7604 20.08 39.2376C19.9315 40.1714 19.912 40.1397 19.007 37.4561C18.7258 36.6232 18.4133 35.7291 18.3119 35.4688C18.2106 35.209 18.2937 34.9935 18.4969 34.9904C18.7 34.9873 19.1704 35.7463 19.5421 36.6771ZM13.9228 38.1153C14.1176 39.0729 14.0735 39.3262 13.7611 39.0455C13.525 38.8333 13.2113 38.0675 13.0642 37.3436C12.8694 36.3861 12.9135 36.1328 13.226 36.4135C13.462 36.6257 13.7757 37.3915 13.9228 38.1153ZM25.0798 36.4133C25.0829 36.6226 25.0102 36.7949 24.9177 36.7963C24.8253 36.7977 24.6416 36.6292 24.5091 36.4219C24.3766 36.2146 24.4497 36.0423 24.6711 36.0389C24.8926 36.0356 25.0766 36.2041 25.0798 36.4133ZM4.16124 37.1091C4.1644 37.3183 3.99577 37.4921 3.78653 37.4952C3.57729 37.4984 3.40351 37.3298 3.40035 37.1205C3.3972 36.9113 3.56582 36.7375 3.77507 36.7344C3.98431 36.7312 4.15809 36.8998 4.16124 37.1091ZM27.5641 37.1369C27.6966 37.3442 27.5379 37.5178 27.2118 37.5228C26.8858 37.5277 26.6161 37.3605 26.613 37.1513C26.6098 36.942 26.7682 36.7684 26.9653 36.7654C27.1623 36.7625 27.4316 36.9296 27.5641 37.1369ZM33.8414 37.0423C33.8445 37.2516 33.6759 37.4253 33.4667 37.4285C33.2574 37.4317 33.0836 37.263 33.0805 37.0538C33.0773 36.8446 33.246 36.6708 33.4552 36.6676C33.6644 36.6645 33.8382 36.8331 33.8414 37.0423ZM145.773 36.1996C145.502 36.4792 145.42 36.383 145.506 35.8851C145.695 34.7886 145.727 34.7471 145.953 35.2909C146.069 35.5692 145.988 35.978 145.773 36.1996ZM30.1686 37.8321C31.9716 38.4868 42.868 40.7123 45.8883 41.0432C47.5654 41.2264 49.7959 41.5239 50.8451 41.7033C51.8942 41.8831 54.1714 42.2137 55.905 42.4379C61.8765 43.211 59.5113 43.6028 52.2922 43.0369C50.0158 42.8585 49.1509 42.9107 49.1557 43.2257C49.1593 43.465 48.9964 43.6635 48.7936 43.6665C48.5912 43.6696 48.5112 43.4375 48.6161 43.1513C48.7524 42.7793 48.338 42.5744 47.1665 42.4342C46.2642 42.326 45.4123 42.3578 45.2733 42.5049C44.8845 42.916 45.9403 47.2473 46.4699 47.4151C46.7272 47.4964 46.9351 47.3777 46.9317 47.1509C46.9221 46.514 47.6562 46.6499 48.7557 47.4883L49.755 48.2503L48.1578 48.0194C46.3174 47.7534 46.1698 48.111 47.1722 50.4118C47.7351 51.704 47.8364 51.7599 49.1868 51.5276L50.6089 51.2832L49.3939 52.4172L48.1784 53.5508L49.3766 55.5401C50.6439 57.6439 52.5053 60.4154 52.8613 60.7289C52.9781 60.8318 53.4551 61.4449 53.9211 62.0916L54.768 63.2672L53.3536 63.523C50.0038 64.1286 49.3538 63.952 46.5718 61.6799C43.8534 59.4602 42.9974 58.3391 44.3021 58.7072C46.5835 59.3505 47.1158 59.3684 47.1072 58.8015C47.1009 58.3788 46.4686 58.1658 44.7168 57.9954C42.7934 57.8083 42.1765 57.5748 41.5104 56.7823C40.7483 55.8756 40.6035 55.8401 39.6008 56.3141C39.0038 56.5963 38.6407 56.6973 38.7932 56.5386C38.9461 56.3799 38.8938 56.0432 38.6773 55.7899C38.3992 55.465 38.4532 55.2614 38.8602 55.0981C39.1779 54.9708 39.4346 54.683 39.4312 54.459C39.4212 53.7943 37.7678 51.8237 37.2272 51.8319C36.9525 51.836 36.7255 51.6682 36.7223 51.459C36.7192 51.2497 36.589 51.1196 36.4326 51.1699C36.0634 51.2893 33.6546 49.8975 33.6495 49.5619C33.6474 49.4204 34.0898 49.1862 34.6329 49.041C35.3295 48.8551 35.563 48.5875 35.4256 48.1318C35.319 47.7764 34.8329 46.122 34.3458 44.455C33.8587 42.788 33.3407 41.015 33.1943 40.5153C32.9925 39.8238 32.4714 39.4828 31.0183 39.0906C28.9715 38.5385 27.4237 37.5196 28.605 37.5018C28.9501 37.4966 29.6536 37.6454 30.1686 37.8321ZM43.9517 38.7926C44.0843 38.9999 44.0111 39.1722 43.7897 39.1756C43.5683 39.1789 43.3842 39.0105 43.3811 38.8012C43.3779 38.592 43.4507 38.4196 43.5431 38.4183C43.6356 38.4169 43.8192 38.5853 43.9517 38.7926ZM27.5634 39.3645C27.7965 39.7294 25.9199 40.7272 25.5944 40.4114C25.3789 40.2027 26.6156 39.0881 27.095 39.0588C27.2394 39.0498 27.45 39.1874 27.5634 39.3645ZM124.427 38.406C123.908 38.6304 123.187 38.9719 122.827 39.1653C121.94 39.6403 121.689 39.6117 121.865 39.0562C122.022 38.5602 123.348 38.0608 124.612 38.0212C125.243 38.0018 125.212 38.0673 124.427 38.406ZM132.041 38.5843C132.044 38.7814 131.865 39.0581 131.644 39.1995C131.422 39.341 131.336 39.695 131.453 39.9859C131.776 40.7908 131.177 40.6251 130.615 39.7542C130.342 39.3314 130.217 38.8196 130.338 38.6168C130.622 38.1418 132.034 38.1145 132.041 38.5843ZM24.7624 40.6039C24.7655 40.8131 24.5969 40.9869 24.3877 40.9901C24.1784 40.9932 24.0047 40.8246 24.0015 40.6154C23.9983 40.4061 24.167 40.2323 24.3762 40.2292C24.5855 40.226 24.7592 40.3946 24.7624 40.6039ZM30.8494 40.5122C30.8526 40.7214 30.6737 40.8953 30.4523 40.8987C30.2309 40.902 30.1526 40.732 30.2788 40.5208C30.405 40.3096 30.5835 40.1357 30.6759 40.1343C30.7684 40.1329 30.8463 40.3029 30.8494 40.5122ZM53.8661 40.1653C53.9986 40.3726 53.9255 40.545 53.7041 40.5483C53.4827 40.5516 53.2986 40.3832 53.2955 40.1739C53.2923 39.9647 53.3651 39.7924 53.4575 39.791C53.55 39.7896 53.7336 39.958 53.8661 40.1653ZM120.443 39.1621C120.576 39.3693 120.503 39.5417 120.281 39.545C120.06 39.5484 119.876 39.3799 119.873 39.1707C119.87 38.9614 119.942 38.7891 120.035 38.7877C120.127 38.7863 120.311 38.9548 120.443 39.1621ZM21.3499 41.4164C21.353 41.6256 21.1844 41.7994 20.9752 41.8026C20.7659 41.8057 20.5921 41.6371 20.589 41.4278C20.5858 41.2186 20.7545 41.0448 20.9637 41.0417C21.1729 41.0385 21.3467 41.2071 21.3499 41.4164ZM115.037 40.2565C114.778 40.3662 114.35 40.3726 114.086 40.2708C113.823 40.1694 114.036 40.0798 114.559 40.0719C115.082 40.064 115.297 40.1472 115.037 40.2565ZM137.2 40.0511C137.332 40.2584 137.259 40.4308 137.038 40.4341C136.816 40.4374 136.632 40.269 136.629 40.0597C136.626 39.8505 136.699 39.6782 136.791 39.6768C136.884 39.6754 137.067 39.8438 137.2 40.0511ZM26.6875 42.097C26.6907 42.3062 26.4364 42.4813 26.1226 42.486C25.8087 42.4908 25.5494 42.3234 25.5462 42.1142C25.5431 41.9049 25.7973 41.7299 26.1111 41.7252C26.425 41.7204 26.6844 41.8877 26.6875 42.097ZM124.08 40.6294C124.084 40.8386 124.011 41.0109 123.918 41.0123C123.826 41.0137 123.642 40.8452 123.51 40.638C123.377 40.4307 123.45 40.2583 123.672 40.255C123.893 40.2517 124.077 40.4201 124.08 40.6294ZM35.071 42.8813C35.0865 43.9104 35.9264 44.3977 36.5597 43.7451C37.1562 43.1303 37.0686 42.4417 36.3611 42.1822C35.3187 41.8003 35.0568 41.9423 35.071 42.8813ZM22.6656 44.4647C22.3775 44.7617 22.2026 44.592 22.0532 43.8704C21.8623 42.9479 21.8972 42.9116 22.4567 43.4542C22.8943 43.8791 22.9542 44.1674 22.6656 44.4647ZM32.4113 43.1523C32.4145 43.3616 32.2356 43.5355 32.0142 43.5388C31.7928 43.5422 31.7145 43.3721 31.8407 43.1609C31.9669 42.9497 32.1454 42.7758 32.2378 42.7744C32.3303 42.773 32.4082 42.9431 32.4113 43.1523ZM25.9557 44.0331C25.9586 44.2302 25.7899 44.3937 25.5806 44.3968C25.3714 44.4 25.1961 44.1355 25.1912 43.8095C25.1863 43.4834 25.3551 43.3195 25.5663 43.4457C25.7775 43.5719 25.9527 43.836 25.9557 44.0331ZM61.874 43.0455C61.9913 43.2294 61.7484 43.4739 61.3342 43.5886C60.5661 43.8019 60.0177 43.4197 60.4512 42.9729C60.7986 42.6149 61.6257 42.6573 61.874 43.0455ZM64.7603 43.4259C64.7635 43.6351 64.5092 43.8102 64.1954 43.8149C63.8815 43.8197 63.6221 43.6523 63.619 43.4431C63.6158 43.2339 63.8701 43.0588 64.1839 43.0541C64.4978 43.0493 64.7572 43.2167 64.7603 43.4259ZM131.343 42.8031C130.894 43.674 130.217 43.8353 130.206 43.074C130.196 42.4242 130.56 42.0538 131.218 42.0439C131.621 42.0378 131.649 42.2098 131.343 42.8031ZM137.615 42.328C137.747 42.5353 137.674 42.7077 137.453 42.711C137.231 42.7144 137.047 42.5459 137.044 42.3366C137.041 42.1274 137.114 41.9551 137.206 41.9537C137.299 41.9523 137.482 42.1208 137.615 42.328ZM27.3128 45.0584C27.1978 45.1773 26.889 45.0651 26.6268 44.8088C26.2483 44.4385 26.2914 44.3945 26.8366 44.5925C27.2139 44.7299 27.4283 44.9394 27.3128 45.0584ZM54.1219 44.5151C54.1265 44.8168 53.9723 45.1642 53.7793 45.2874C53.3312 45.5738 52.8655 44.8685 53.1683 44.3616C53.5098 43.7903 54.1125 43.8873 54.1219 44.5151ZM47.7047 45.3177C47.2235 45.8135 46.7229 45.4436 47.0755 44.853C47.2121 44.6245 47.4997 44.5426 47.7147 44.671C47.977 44.8276 47.9737 45.0404 47.7047 45.3177ZM73.3374 44.4382C73.4699 44.6455 73.3968 44.8179 73.1754 44.8212C72.954 44.8245 72.77 44.6561 72.7668 44.4468C72.7636 44.2376 72.8364 44.0653 72.9288 44.0639C73.0213 44.0625 73.2049 44.2309 73.3374 44.4382ZM25.788 45.5353C25.9205 45.7426 25.8474 45.9149 25.626 45.9183C25.4045 45.9216 25.2205 45.7531 25.2174 45.5439C25.2142 45.3347 25.287 45.1623 25.3794 45.1609C25.4718 45.1595 25.6555 45.328 25.788 45.5353ZM67.0659 44.9133C67.069 45.1225 66.9963 45.2949 66.9039 45.2962C66.8114 45.2976 66.6277 45.1292 66.4952 44.9219C66.3627 44.7146 66.4358 44.5422 66.6573 44.5389C66.8787 44.5356 67.0627 44.704 67.0659 44.9133ZM89.1315 44.5808C89.1346 44.79 88.9557 44.9639 88.7343 44.9673C88.5129 44.9706 88.4346 44.8006 88.5608 44.5894C88.687 44.3782 88.8655 44.2042 88.958 44.2028C89.0504 44.2015 89.1283 44.3715 89.1315 44.5808ZM32.4575 46.2183C32.4605 46.4154 32.2918 46.5789 32.0825 46.582C31.8733 46.5852 31.698 46.3207 31.6931 45.9946C31.6882 45.6686 31.857 45.5047 32.0682 45.6309C32.2794 45.7571 32.4546 46.0212 32.4575 46.2183ZM51.6638 45.5259C51.7963 45.7332 51.6375 45.9068 51.3115 45.9117C50.9855 45.9167 50.7158 45.7495 50.7126 45.5402C50.7095 45.331 50.8678 45.1574 51.0649 45.1544C51.262 45.1514 51.5312 45.3186 51.6638 45.5259ZM62.1259 45.3682C62.1291 45.5775 61.8748 45.7526 61.561 45.7573C61.2471 45.762 60.9877 45.5947 60.9846 45.3854C60.9814 45.1762 61.2356 45.0011 61.5495 44.9964C61.8634 44.9917 62.1227 45.159 62.1259 45.3682ZM138.22 44.6021C138.223 44.8113 138.054 44.9851 137.845 44.9883C137.636 44.9914 137.462 44.8228 137.459 44.6136C137.456 44.4043 137.624 44.2305 137.834 44.2274C138.043 44.2242 138.217 44.3929 138.22 44.6021ZM27.5172 46.6508C27.5204 46.8601 27.362 47.0337 27.1649 47.0367C26.9679 47.0396 26.6986 46.8724 26.5661 46.6652C26.4336 46.4579 26.5923 46.2842 26.9184 46.2793C27.2444 46.2744 27.5141 46.4416 27.5172 46.6508ZM55.3063 46.6183C55.7293 46.8368 55.9464 47.2312 55.8255 47.5618C55.5539 48.303 54.5597 48.3134 54.5486 47.5753C54.5439 47.2615 54.3688 47.0073 54.1596 47.0104C53.9503 47.0136 53.7765 46.8449 53.7734 46.6357C53.766 46.1483 54.3812 46.1414 55.3063 46.6183ZM52.2071 47.5908C52.2973 48.0233 52.1631 48.2083 51.8343 48.1041C51.551 48.0147 51.256 47.6371 51.1778 47.2654C51.0875 46.8329 51.2217 46.6479 51.5506 46.7522C51.8339 46.8415 52.1288 47.2191 52.2071 47.5908ZM27.9186 47.8815C27.924 48.1432 28.1808 48.8239 28.4897 49.395C28.9422 50.2318 28.954 50.4344 28.5496 50.4405C28.2738 50.4447 27.8313 50.1945 27.5659 49.8846C27.3006 49.5746 26.8398 49.3247 26.5419 49.3292C26.1113 49.3357 26.1377 49.1424 26.6693 48.3878C27.404 47.3462 27.904 47.1435 27.9186 47.8815ZM54.3268 48.3637C54.4573 48.689 54.7231 48.8536 54.9176 48.7292C55.429 48.4023 55.7181 49.025 55.3447 49.6497C55.0782 50.0959 54.9253 50.1013 54.4053 49.683C53.8722 49.2538 53.6303 49.335 52.6955 50.2582C51.9096 51.0341 51.4137 51.2532 50.9136 51.0453C50.2656 50.7761 50.2698 50.7453 50.9787 50.5733C52.0532 50.3128 53.0822 49.0777 52.8035 48.3828C52.639 47.9724 52.7969 47.792 53.3287 47.784C53.7472 47.7777 54.1964 48.0388 54.3268 48.3637ZM66.3537 48.1585C66.3585 48.4724 66.295 48.7302 66.2128 48.7314C66.1306 48.7327 65.9609 48.4783 65.8356 48.1663C65.7106 47.8542 65.7741 47.5964 65.9765 47.5934C66.1793 47.5903 66.349 47.8446 66.3537 48.1585ZM129.694 47.0137C129.568 47.2249 129.294 47.4003 129.084 47.4035C128.875 47.4066 128.807 47.2364 128.933 47.0252C129.06 46.814 129.334 46.6386 129.543 46.6355C129.752 46.6323 129.821 46.8025 129.694 47.0137ZM50.77 49.3446C50.7731 49.5539 50.5942 49.7278 50.3728 49.7311C50.1514 49.7345 50.0731 49.5644 50.1993 49.3532C50.3255 49.142 50.504 48.9681 50.5965 48.9667C50.6889 48.9653 50.7668 49.1354 50.77 49.3446ZM62.0336 50.2286C61.8946 50.3715 61.6182 50.239 61.4188 49.9342C60.8369 49.0442 60.9813 48.7026 61.6606 49.3617C62.0047 49.6955 62.1722 50.0853 62.0336 50.2286ZM63.3245 49.1555C63.3277 49.3647 63.1591 49.5385 62.9498 49.5416C62.7406 49.5448 62.5668 49.3762 62.5637 49.1669C62.5605 48.9577 62.7291 48.7839 62.9384 48.7808C63.1476 48.7776 63.3214 48.9462 63.3245 49.1555ZM72.0862 49.7845C72.0893 49.9937 71.9207 50.1675 71.7115 50.1707C71.5022 50.1738 71.3284 50.0052 71.3253 49.7959C71.3221 49.5867 71.4908 49.4129 71.7 49.4098C71.9092 49.4066 72.083 49.5752 72.0862 49.7845ZM75.5101 49.7329C75.5133 49.9421 75.3344 50.1161 75.113 50.1194C74.8916 50.1227 74.8133 49.9527 74.9395 49.7415C75.0657 49.5303 75.2442 49.3564 75.3366 49.355C75.4291 49.3536 75.507 49.5236 75.5101 49.7329ZM81.6087 50.402C81.6118 50.6113 81.5391 50.7836 81.4466 50.785C81.3542 50.7864 81.1705 50.6179 81.038 50.4106C80.9055 50.2033 80.9786 50.031 81.2 50.0277C81.4215 50.0243 81.6055 50.1928 81.6087 50.402ZM56.5174 51.9681C56.5202 52.1519 56.166 52.3075 55.73 52.3141C54.7827 52.3284 54.9514 53.1676 55.9271 53.296C56.8959 53.4233 56.9897 53.5836 57.104 55.3125C57.174 56.3728 57.0501 56.8606 56.7084 56.8657C56.4349 56.8698 56.2087 56.7298 56.206 56.5548C56.2034 56.3794 55.2494 55.8504 54.0863 55.3793C52.5824 54.7699 51.9028 54.266 51.7342 53.6354C51.4084 52.4158 52.1766 51.6066 53.6816 51.5839C54.3763 51.5734 55.0527 51.3836 55.1849 51.1621C55.4473 50.7228 56.5083 51.3644 56.5174 51.9681ZM64.1086 51.5897C63.7716 51.9285 63.1546 52.0675 62.5105 51.9497C60.9052 51.657 61.2528 51.0893 63.0542 51.0622C64.45 51.0411 64.5865 51.1095 64.1086 51.5897ZM65.9167 51.2489C65.7923 51.3771 65.4641 51.3957 65.1882 51.2899C64.8828 51.1731 64.9716 51.0816 65.4145 51.0566C65.8153 51.0342 66.0411 51.1207 65.9167 51.2489ZM70.5841 51.1165C70.5855 51.2089 70.417 51.3926 70.2097 51.5251C70.0025 51.6576 69.8301 51.5845 69.8268 51.3631C69.8234 51.1417 69.9919 50.9576 70.2011 50.9545C70.4104 50.9513 70.5827 51.024 70.5841 51.1165ZM33.6928 52.4335C33.6942 52.5259 33.5257 52.7096 33.3184 52.8421C33.1111 52.9746 32.9388 52.9015 32.9354 52.6801C32.9321 52.4586 33.1006 52.2746 33.3098 52.2714C33.5191 52.2683 33.6914 52.341 33.6928 52.4335ZM43.0168 52.5057C42.8906 52.7169 43.0644 52.8855 43.403 52.8804C43.7416 52.8753 43.9102 52.7015 43.7777 52.4942C43.6452 52.2869 43.4714 52.1183 43.3915 52.1195C43.3116 52.1207 43.143 52.2945 43.0168 52.5057ZM45.115 52.8546C45.1181 53.0638 45.2919 53.2325 45.5011 53.2293C45.7104 53.2262 45.879 53.0524 45.8758 52.8431C45.8727 52.6339 45.6989 52.4653 45.4897 52.4684C45.2804 52.4716 45.1118 52.6454 45.115 52.8546ZM52.6249 53.0988C52.5188 53.5311 52.6318 54.0096 52.8761 54.1616C53.6471 54.6416 56.5836 55.2458 56.7543 54.9597C57.0056 54.5392 56.5089 54.205 55.6525 54.2179C55.2279 54.2243 54.4167 53.7982 53.8494 53.2709C52.8452 52.3374 52.8132 52.333 52.6249 53.0988ZM70.9818 52.2521C70.9832 52.3445 70.8147 52.5282 70.6074 52.6607C70.4001 52.7932 70.2278 52.7201 70.2244 52.4987C70.2211 52.2773 70.3895 52.0932 70.5988 52.09C70.808 52.0869 70.9804 52.1596 70.9818 52.2521ZM78.8605 52.7981C78.7437 53.1032 78.6521 53.0144 78.6272 52.5714C78.6048 52.1707 78.6912 51.9449 78.8194 52.0693C78.9476 52.1937 78.9663 52.5218 78.8605 52.7981ZM63.4822 52.8274C63.2263 52.9356 62.7127 52.9498 62.3411 52.8587C61.9695 52.7677 62.179 52.6793 62.8066 52.6622C63.4342 52.6451 63.7382 52.7193 63.4822 52.8274ZM84.6866 52.6388C84.6898 52.8481 84.5211 53.0218 84.3119 53.025C84.1026 53.0281 83.9289 52.8595 83.9257 52.6503C83.9226 52.441 84.0912 52.2673 84.3004 52.2641C84.5097 52.2609 84.6834 52.4296 84.6866 52.6388ZM33.5794 56.3721C33.2575 56.7042 31.4468 54.9035 31.4369 54.2415C31.4311 53.8584 31.8406 54.0908 32.6075 54.9054C33.2564 55.5942 33.6937 56.2543 33.5794 56.3721ZM36.6764 54.7257C36.3193 55.0937 35.5834 54.5177 35.8473 54.0765C36.004 53.8142 36.2167 53.8175 36.494 54.0865C36.7215 54.3072 36.8035 54.5948 36.6764 54.7257ZM65.5017 53.7145C65.9148 54.3608 65.5548 54.4302 64.749 53.8594C64.1251 53.4175 64.1047 53.3295 64.624 53.3217C64.9657 53.3165 65.3607 53.4932 65.5017 53.7145ZM76.7145 53.9005C76.7177 54.1098 76.5388 54.2837 76.3174 54.287C76.0959 54.2904 76.0177 54.1203 76.1439 53.9091C76.2701 53.6979 76.4486 53.524 76.541 53.5226C76.6335 53.5212 76.7114 53.6913 76.7145 53.9005ZM35.0112 55.1028C34.8946 55.42 35.0817 56.0961 35.4262 56.6054C35.771 57.1142 36.0554 57.7078 36.0587 57.9246C36.0684 58.5706 35.4103 58.3804 35.164 57.666C35.0386 57.3018 34.6715 56.4512 34.3486 55.7757C33.7961 54.6207 33.8046 54.5472 34.492 54.5368C34.9866 54.5293 35.1541 54.7121 35.0112 55.1028ZM43.1742 55.0464C43.4501 55.1522 43.7783 55.1336 43.9027 55.0053C44.0271 54.8771 43.8013 54.7907 43.4005 54.8131C42.9576 54.8381 42.8688 54.9296 43.1742 55.0464ZM73.8727 54.7044C73.7465 54.9156 73.4824 55.0908 73.2853 55.0938C73.0882 55.0968 72.9247 54.928 72.9216 54.7187C72.9184 54.5095 73.1829 54.3343 73.509 54.3293C73.835 54.3244 73.9989 54.4932 73.8727 54.7044ZM86.9979 54.5066C87.0011 54.7159 86.8324 54.8896 86.6232 54.8928C86.414 54.8959 86.2402 54.7273 86.237 54.5181C86.2339 54.3088 86.4025 54.1351 86.6117 54.1319C86.821 54.1287 86.9947 54.2974 86.9979 54.5066ZM44.9649 55.5205C45.0974 55.7278 45.281 55.8963 45.3735 55.8949C45.4659 55.8935 45.5387 55.7212 45.5355 55.5119C45.5324 55.3027 45.3483 55.1342 45.1269 55.1376C44.9055 55.1409 44.8324 55.3133 44.9649 55.5205ZM71.7889 55.3066C71.7936 55.6205 71.6365 55.8797 71.4395 55.8827C70.9597 55.8899 70.6072 55.3008 70.9066 54.9922C71.3285 54.5574 71.78 54.7184 71.7889 55.3066ZM118.961 54.4055C118.964 54.6147 118.891 54.7871 118.799 54.7885C118.706 54.7899 118.523 54.6214 118.39 54.4141C118.257 54.2068 118.331 54.0345 118.552 54.0311C118.773 54.0278 118.958 54.1962 118.961 54.4055ZM121.326 55.2135C121.057 55.4904 120.88 55.5155 120.876 55.2773C120.869 54.7694 121.312 54.3126 121.57 54.5629C121.679 54.6693 121.57 54.9621 121.326 55.2135ZM131.526 54.9547C131.529 55.1518 131.362 55.4211 131.155 55.5536C130.948 55.6861 130.774 55.5274 130.769 55.2013C130.764 54.8753 130.931 54.6056 131.141 54.6025C131.35 54.5993 131.523 54.7577 131.526 54.9547ZM119.996 56.7446C119.658 56.9403 119.386 57.3489 119.39 57.6525C119.395 57.9558 119.227 58.2068 119.018 58.2099C118.809 58.2131 118.633 57.9349 118.628 57.5917C118.617 56.8693 119.766 55.8839 120.269 56.1845C120.457 56.2966 120.334 56.5488 119.996 56.7446ZM57.9343 57.6083C58.0668 57.8156 57.9936 57.9879 57.7722 57.9912C57.5508 57.9946 57.3668 57.8261 57.3636 57.6169C57.3604 57.4076 57.4332 57.2353 57.5256 57.2339C57.6181 57.2325 57.8018 57.401 57.9343 57.6083ZM68.7829 57.8478C68.7859 58.0448 68.5456 58.2094 68.2492 58.2139C67.9529 58.2184 67.635 58.4374 67.5431 58.7002C67.4096 59.0827 67.2737 59.0848 66.8647 58.7104C66.443 58.3245 66.4596 58.2409 66.9595 58.2333C67.2928 58.2283 67.6642 57.9548 67.7849 57.6261C68.0071 57.0197 68.773 57.19 68.7829 57.8478ZM71.4367 57.1921C71.4381 57.2845 71.2697 57.4682 71.0624 57.6007C70.8551 57.7332 70.6827 57.6601 70.6794 57.4387C70.6761 57.2173 70.8445 57.0332 71.0538 57.0301C71.263 57.0269 71.4353 57.0996 71.4367 57.1921ZM79.8567 57.7711C79.3755 58.267 78.8749 57.897 79.2275 57.3064C79.3641 57.078 79.6517 56.996 79.8667 57.1244C80.1289 57.281 80.1257 57.4938 79.8567 57.7711ZM54.1176 58.6441C54.8177 59.3238 54.9369 60.3172 54.3195 60.3265C54.0878 60.3299 53.993 60.0745 54.1089 59.7588C54.2368 59.4091 54.1007 59.1882 53.7606 59.1933C53.4532 59.1979 53.1978 58.9449 53.1931 58.631C53.1822 57.9078 53.3611 57.9104 54.1176 58.6441ZM76.5706 58.0623C76.6941 58.2552 76.6225 58.523 76.4118 58.6579C76.2011 58.7923 76.0248 58.6356 76.0199 58.3095C76.0098 57.6411 76.2366 57.5395 76.5706 58.0623ZM78.2994 58.0624C78.3025 58.2717 78.1339 58.4455 77.9246 58.4486C77.7154 58.4518 77.5416 58.2832 77.5385 58.0739C77.5353 57.8647 77.7039 57.6909 77.9132 57.6877C78.1224 57.6846 78.2962 57.8532 78.2994 58.0624ZM37.2142 58.8494C37.2156 58.9418 37.0471 59.1255 36.8398 59.258C36.6326 59.3905 36.4602 59.3174 36.4569 59.096C36.4535 58.8745 36.622 58.6905 36.8312 58.6873C37.0405 58.6842 37.2128 58.7569 37.2142 58.8494ZM47.8698 58.9015C47.8729 59.1108 48.3891 59.2742 49.0168 59.2648C49.6446 59.2553 50.1556 59.0764 50.1524 58.8671C50.1493 58.6579 49.6331 58.4944 49.0054 58.5039C48.3776 58.5133 47.8666 58.6923 47.8698 58.9015ZM59.2526 58.8811C59.4997 59.1696 60.0365 59.313 60.4457 59.1991C60.855 59.0856 61.1923 59.173 61.1957 59.3936C61.2018 59.8034 60.1562 59.9086 58.6443 59.6498C58.0827 59.5536 57.8694 59.314 58.0083 58.9352C58.2696 58.222 58.6739 58.2045 59.2526 58.8811ZM70.1256 58.5661C70.2581 58.7734 70.185 58.9458 69.9635 58.9491C69.7421 58.9525 69.5581 58.784 69.5549 58.5747C69.5518 58.3655 69.6245 58.1932 69.717 58.1918C69.8094 58.1904 69.9931 58.3589 70.1256 58.5661ZM62.9524 59.7127C62.5717 60.1054 62.2438 59.5278 62.5533 59.0098C62.7872 58.6181 62.8769 58.6168 63.0113 59.0014C63.1036 59.2644 63.0768 59.5845 62.9524 59.7127ZM104.757 58.8053C104.89 59.0126 104.817 59.185 104.595 59.1883C104.374 59.1916 104.19 59.0232 104.187 58.8139C104.183 58.6047 104.256 58.4324 104.349 58.431C104.441 58.4296 104.625 58.598 104.757 58.8053ZM40.8294 60.3516C41.5555 60.8837 41.5519 60.8994 40.6963 60.9123C39.9571 60.9234 39.8931 61.0157 40.2982 61.4891C40.5636 61.799 40.9813 62.0496 41.2271 62.0459C41.8073 62.0371 44.7466 64.9533 44.4577 65.2511C44.1299 65.589 42.7359 64.6461 42.2387 63.7502C41.9997 63.3196 41.3391 62.7615 40.7703 62.5101C40.2014 62.2588 39.3895 61.7943 38.9662 61.478C38.2057 60.9099 38.2051 60.8961 38.9267 60.3445C39.8164 59.6644 39.8925 59.6648 40.8294 60.3516ZM44.1799 60.2479C45.125 60.9433 45.0298 61.0928 43.6885 61.0201C42.2607 60.9427 41.8312 60.5923 42.5716 60.1081C43.2804 59.6446 43.3707 59.6528 44.1799 60.2479ZM80.6081 59.7625C80.613 60.0885 80.4416 60.2505 80.227 60.1225C80.0123 59.9941 79.9326 59.7285 80.0502 59.5319C80.3683 58.9993 80.5981 59.0941 80.6081 59.7625ZM117.888 58.9655C117.895 59.4145 117.16 59.9058 116.883 59.6375C116.607 59.3688 117.076 58.6197 117.524 58.6129C117.721 58.61 117.885 58.7685 117.888 58.9655ZM112.19 59.6446C112.195 59.9585 112.028 60.2179 111.818 60.221C111.609 60.2242 111.434 59.97 111.429 59.6561C111.425 59.3422 111.592 59.0829 111.801 59.0797C112.01 59.0766 112.185 59.3308 112.19 59.6446ZM49.0387 60.7143C49.0418 60.9186 49.3171 61.1853 49.6504 61.3078C50.0227 61.4441 50.1956 61.3567 50.0986 61.0799C49.9006 60.514 49.0311 60.214 49.0387 60.7143ZM50.9477 61.1383C50.9508 61.3475 51.2102 61.5149 51.5241 61.5102C51.838 61.5054 52.0922 61.3303 52.089 61.1211C52.0859 60.9119 51.8265 60.7445 51.5126 60.7493C51.1988 60.754 50.9445 60.9291 50.9477 61.1383ZM60.4584 60.9725C60.4614 61.1696 60.2938 61.4393 60.0858 61.5722C59.8385 61.73 59.8392 62.0504 60.0875 62.498C60.3782 63.0214 60.2785 63.3528 59.6647 63.9081C58.8801 64.6182 58.8679 64.6184 59.1131 63.916C59.2506 63.5212 59.1746 62.9775 58.9434 62.7074C58.6324 62.3441 58.7001 62.0181 59.2034 61.4515C59.9514 60.61 60.4501 60.4194 60.4584 60.9725ZM64.8338 60.9291C64.7076 61.1402 64.4332 61.3156 64.224 61.3188C64.0148 61.3219 63.9467 61.1517 64.0729 60.9405C64.1991 60.7293 64.4735 60.5539 64.6827 60.5508C64.892 60.5476 64.96 60.7179 64.8338 60.9291ZM70.5404 60.8431C70.6729 61.0504 70.5998 61.2227 70.3784 61.226C70.157 61.2294 69.9729 61.0609 69.9698 60.8517C69.9666 60.6424 70.0394 60.4701 70.1318 60.4687C70.2242 60.4673 70.4079 60.6358 70.5404 60.8431ZM72.5275 60.6624C72.4031 60.7906 72.075 60.8093 71.799 60.7035C71.4936 60.5867 71.5824 60.4952 72.0253 60.4702C72.4261 60.4478 72.6519 60.5342 72.5275 60.6624ZM116.137 60.3314C116.407 61.0031 113.159 63.4163 112.781 62.8249C112.646 62.6143 112.854 62.3539 113.242 62.2461C113.631 62.1382 114.231 61.5413 114.575 60.9196C115.262 59.6802 115.796 59.4788 116.137 60.3314ZM73.7856 61.5552C73.7888 61.7645 73.7161 61.9368 73.6236 61.9382C73.5312 61.9396 73.3475 61.7711 73.215 61.5638C73.0825 61.3565 73.1556 61.1842 73.377 61.1809C73.5984 61.1775 73.7825 61.346 73.7856 61.5552ZM126.664 60.5457C126.665 60.6381 126.497 60.8218 126.289 60.9543C126.082 61.0868 125.91 61.0137 125.906 60.7923C125.903 60.5708 126.072 60.3868 126.281 60.3836C126.49 60.3805 126.662 60.4532 126.664 60.5457ZM45.5563 62.6705C45.6533 62.9472 45.4803 63.0347 45.108 62.8983C44.7747 62.7759 44.4994 62.5091 44.4963 62.3048C44.4888 61.8045 45.3582 62.1046 45.5563 62.6705ZM57.8082 62.3759C57.5483 62.6987 57.2562 62.8858 57.1589 62.7917C56.8912 62.5317 57.4164 61.8019 57.876 61.795C58.1286 61.7912 58.103 62.01 57.8082 62.3759ZM128.955 61.1044C128.958 61.3136 128.78 61.4876 128.558 61.4909C128.337 61.4942 128.258 61.3242 128.385 61.113C128.511 60.9018 128.689 60.7279 128.782 60.7265C128.874 60.7251 128.952 60.8952 128.955 61.1044ZM52.112 62.6429C52.1151 62.8521 52.2889 63.0207 52.4981 63.0176C52.7074 63.0144 52.876 62.8407 52.8728 62.6314C52.8697 62.4222 52.6959 62.2536 52.4867 62.2567C52.2774 62.2599 52.1088 62.4336 52.112 62.6429ZM65.6291 63.2002C65.7616 63.4075 65.6885 63.5799 65.4671 63.5832C65.2456 63.5865 65.0616 63.4181 65.0584 63.2088C65.0553 62.9996 65.128 62.8273 65.2205 62.8259C65.3129 62.8245 65.4966 62.993 65.6291 63.2002ZM75.3361 63.4345C75.3392 63.6437 75.085 63.8188 74.7712 63.8235C74.4573 63.8283 74.1979 63.6609 74.1948 63.4517C74.1916 63.2424 74.4458 63.0674 74.7597 63.0627C75.0736 63.0579 75.3329 63.2252 75.3361 63.4345ZM92.0755 63.1822C92.0786 63.3915 91.91 63.5653 91.7008 63.5684C91.4915 63.5716 91.3178 63.4029 91.3146 63.1937C91.3115 62.9845 91.4801 62.8107 91.6893 62.8075C91.8986 62.8044 92.0723 62.973 92.0755 63.1822ZM103.768 63.2621C103.845 63.4805 103.477 63.9503 102.952 64.306C102.426 64.6618 101.993 64.7779 101.99 64.5637C101.987 64.3495 102.155 64.1719 102.365 64.1688C102.574 64.1656 102.74 63.8066 102.733 63.3706C102.721 62.5812 103.501 62.4994 103.768 63.2621ZM108.434 62.9357C108.438 63.145 108.259 63.3189 108.037 63.3222C107.816 63.3256 107.738 63.1555 107.864 62.9443C107.99 62.7331 108.169 62.5592 108.261 62.5578C108.353 62.5564 108.431 62.7265 108.434 62.9357ZM112.292 63.7513C111.81 64.2471 111.31 63.8772 111.662 63.2866C111.799 63.0582 112.087 62.9762 112.302 63.1046C112.564 63.2612 112.561 63.474 112.292 63.7513ZM121.375 63.1212C121.378 63.3305 121.21 63.5043 121 63.5074C120.791 63.5106 120.617 63.3419 120.614 63.1327C120.611 62.9235 120.78 62.7497 120.989 62.7465C121.198 62.7434 121.372 62.912 121.375 63.1212ZM57.6991 65.6615C58.3969 66.3888 58.5874 66.7611 58.1931 66.6282C57.8401 66.5087 57.0656 66.6033 56.4713 66.838C55.5309 67.2091 55.1456 67.1163 53.4909 66.1207L51.5904 64.9773L53.8637 64.803C55.1142 64.7073 56.2332 64.5949 56.3505 64.5536C56.4679 64.5122 57.0747 65.0107 57.6991 65.6615ZM94.3753 64.2892C94.3785 64.4984 94.2098 64.6722 94.0006 64.6753C93.7914 64.6785 93.6176 64.5099 93.6144 64.3006C93.6113 64.0914 93.7799 63.9176 93.9891 63.9145C94.1984 63.9113 94.3722 64.0799 94.3753 64.2892ZM110.74 64.4231C110.743 64.6323 110.575 64.8061 110.365 64.8093C110.156 64.8124 109.982 64.6438 109.979 64.4346C109.976 64.2253 110.145 64.0515 110.354 64.0484C110.563 64.0452 110.737 64.2139 110.74 64.4231ZM122.534 64.2454C122.537 64.4546 122.368 64.6284 122.159 64.6316C121.95 64.6347 121.776 64.4661 121.773 64.2568C121.77 64.0476 121.938 63.8738 122.148 63.8707C122.357 63.8675 122.531 64.0361 122.534 64.2454ZM76.3653 65.9795C75.9846 66.3723 75.6567 65.7947 75.9662 65.2767C76.2001 64.885 76.2898 64.8836 76.4242 65.2682C76.5165 65.5313 76.4897 65.8513 76.3653 65.9795ZM109.773 65.1557C109.89 65.3393 109.75 65.6922 109.461 65.9398C108.875 66.441 108.259 65.8844 108.659 65.2155C108.943 64.7401 109.489 64.7106 109.773 65.1557ZM51.5545 66.6613C51.6889 66.996 51.5431 67.3411 51.2106 67.4743C50.4621 67.7748 50.2046 67.5032 50.4926 66.7172C50.7821 65.9278 51.2505 65.9029 51.5545 66.6613ZM107.722 66.1809C107.727 66.4948 107.56 66.7542 107.35 66.7573C107.141 66.7605 106.966 66.5063 106.961 66.1924C106.957 65.8785 107.124 65.6192 107.333 65.616C107.542 65.6129 107.718 65.8671 107.722 66.1809ZM97.4629 67.1655C97.4702 67.6494 97.3648 67.6742 96.8983 67.2988C96.5828 67.0448 96.4179 66.6812 96.5318 66.4904C96.8247 66.0004 97.4522 66.4556 97.4629 67.1655ZM60.5861 67.8555C61.5115 68.3328 61.5619 68.9721 60.6741 68.9745C59.9108 68.9765 56.754 67.6647 56.7491 67.3437C56.7443 67.0199 59.7416 67.4196 60.5861 67.8555ZM105.076 67.3525C105.081 67.661 104.583 68.1823 103.971 68.5107C102.662 69.2127 102.441 69.245 102.433 68.7341C102.43 68.5248 102.686 68.3497 103.002 68.345C103.318 68.3402 103.864 67.9895 104.216 67.5656C104.981 66.6442 105.065 66.6236 105.076 67.3525ZM89.4812 67.7877C89.4843 67.9969 89.3157 68.1707 89.1065 68.1738C88.8972 68.177 88.7235 68.0084 88.7203 67.7991C88.7172 67.5899 88.8858 67.4161 89.095 67.413C89.3043 67.4098 89.478 67.5784 89.4812 67.7877ZM92.3345 67.7447C92.467 67.952 92.3939 68.1243 92.1725 68.1276C91.951 68.131 91.767 67.9625 91.7638 67.7533C91.7607 67.544 91.8334 67.3717 91.9259 67.3703C92.0183 67.3689 92.202 67.5374 92.3345 67.7447ZM94.4352 68.2614C94.4366 68.3538 94.2681 68.5375 94.0608 68.67C93.8535 68.8025 93.6812 68.7294 93.6778 68.5079C93.6745 68.2865 93.843 68.1025 94.0522 68.0993C94.2614 68.0962 94.4338 68.1689 94.4352 68.2614ZM63.2367 69.3099C63.5474 69.5001 63.7147 69.7449 63.6087 69.8542C63.3187 70.1534 61.7313 69.6891 61.7255 69.303C61.7189 68.8666 62.5181 68.8702 63.2367 69.3099ZM50.0386 69.7732C49.7826 69.8814 49.2691 69.8956 48.8975 69.8045C48.5258 69.7135 48.7353 69.6251 49.363 69.608C49.9906 69.5909 50.2946 69.6651 50.0386 69.7732ZM101.678 69.126C101.681 69.3352 101.513 69.509 101.304 69.5121C101.094 69.5153 100.92 69.3467 100.917 69.1374C100.914 68.9282 101.083 68.7544 101.292 68.7513C101.501 68.7481 101.675 68.9167 101.678 69.126ZM100.222 69.7187C100.225 69.9177 100.044 70.1441 99.8207 70.2225C99.5969 70.3008 99.4095 70.0799 99.4042 69.731C99.3989 69.3822 99.5797 69.1557 99.8057 69.2273C100.032 69.2988 100.219 69.5197 100.222 69.7187ZM47.2834 70.494C47.2848 70.5864 47.1163 70.7701 46.909 70.9026C46.7018 71.0351 46.5294 70.962 46.5261 70.7406C46.5227 70.5192 46.6912 70.3351 46.9004 70.332C47.1097 70.3288 47.282 70.4015 47.2834 70.494ZM67.0819 71.2307C67.0876 71.6073 66.622 71.6463 65.7829 71.3385C65.45 71.2165 65.1741 70.882 65.1697 70.5947C65.1634 70.1762 65.3515 70.1559 66.1195 70.4921C66.6462 70.7224 67.0793 71.0549 67.0819 71.2307ZM97.4791 70.1067C97.9923 70.7063 97.4245 71.3104 96.7353 70.8988C96.2249 70.594 94.1032 71.4818 94.1109 71.9966C94.1144 72.2245 93.9033 72.2059 93.5859 71.9501C93.2084 71.6464 92.7604 71.6398 92.0387 71.9269C90.6652 72.4728 89.835 72.4495 90.0184 71.8702C90.1016 71.6076 90.9526 71.2686 91.9093 71.1168C92.8659 70.9654 94.1303 70.5792 94.7187 70.2587C96.1144 69.4983 96.9205 69.4538 97.4791 70.1067ZM87.6417 71.9787C87.6447 72.1758 87.493 72.4353 87.3041 72.5557C86.8172 72.8671 85.7077 72.3994 85.9542 71.9867C86.2274 71.5293 87.6349 71.5229 87.6417 71.9787ZM108.592 78.1308C108.692 78.4147 108.551 78.5596 108.264 78.4688C107.988 78.3812 107.684 78.0859 107.589 77.813C107.489 77.5291 107.63 77.3843 107.916 77.4751C108.192 77.5623 108.496 77.8576 108.592 78.1308ZM112.843 77.7099C112.846 77.9191 112.667 78.093 112.446 78.0964C112.224 78.0997 112.146 77.9297 112.272 77.7185C112.398 77.5073 112.577 77.3334 112.669 77.332C112.762 77.3306 112.84 77.5006 112.843 77.7099ZM67.5807 79.0792C67.5895 79.6594 70.994 81.9277 72.9468 82.6548C73.8851 83.004 75.8226 83.3702 77.2522 83.4682C79.9952 83.6567 81.2116 84.275 78.9076 84.3097L77.5536 84.3301L77.7453 97.0501L77.937 109.771L79.2815 110.234C80.5224 110.662 81.003 111.671 79.8159 111.356C78.2071 110.93 77.5737 110.918 77.5797 111.315C77.5833 111.555 77.9708 111.888 78.4409 112.054L79.2952 112.355L78.4441 112.639C77.2987 113.022 77.7633 113.628 79.1858 113.606C80.4177 113.588 81.6314 114.461 81.2536 115.094C80.8497 115.77 79.6593 115.532 79.0498 114.655C78.3524 113.65 78.1175 113.797 77.9626 115.337L77.8478 116.48L82.3196 116.52C85.7559 116.551 86.7912 116.447 86.7898 116.072C86.7888 115.704 86.8719 115.712 87.1293 116.106C87.4156 116.543 88.104 116.543 91.4046 116.107C93.5685 115.821 95.7299 115.593 96.2083 115.6C96.6864 115.608 97.1771 115.342 97.2988 115.011C97.4651 114.557 97.5936 114.523 97.8184 114.875C98.1115 115.333 98.5606 115.264 105.015 113.766C105.536 113.645 107.071 113.213 108.425 112.806C109.779 112.398 111.393 111.942 112.011 111.791C112.63 111.64 113.842 111.182 114.705 110.773L116.274 110.029L115.847 108.284C115.367 106.322 115.102 106.135 110.633 104.608C107.693 103.603 100.966 102.165 97.032 101.7C95.774 101.551 94.4874 101.398 94.1729 101.359C90.6679 100.931 86.5001 100.891 86.0437 101.282C85.1612 102.037 85.0351 101.02 84.9008 92.0842L84.7745 83.6505L87.1179 82.9234C89.7165 82.1167 92.2283 80.7196 93.3116 79.478L94.0212 78.6644L91.932 78.9139C90.783 79.0511 86.9769 79.3269 83.4745 79.5265C79.9721 79.7258 77.1078 80.0015 77.1099 80.1388C77.112 80.2758 77.479 80.7683 77.9259 81.2338C78.9148 82.2639 78.6741 82.6518 77.4559 81.9906C76.9629 81.7229 76.1473 81.5072 75.6435 81.5114C75.1394 81.5152 74.6415 81.2788 74.537 80.9854C74.4063 80.6179 74.5418 80.5234 74.9734 80.6813C75.6779 80.9397 76.7366 80.617 76.7295 80.146C76.7236 79.7534 75.3259 79.4982 71.9907 79.2806C70.5413 79.186 68.9546 79.0143 68.465 78.8992C67.9671 78.7822 67.5775 78.8616 67.5807 79.0792ZM113.59 80.0198C112.524 80.7178 111.917 80.3818 112.872 79.6223C113.433 79.1755 113.871 79.0369 113.959 79.2779C114.04 79.4997 113.874 79.8336 113.59 80.0198ZM87.3935 80.7571C87.3966 80.9663 87.2177 81.1402 86.9963 81.1436C86.7749 81.1469 86.6966 80.9769 86.8228 80.7657C86.949 80.5545 87.1275 80.3805 87.22 80.3792C87.3124 80.3778 87.3903 80.5478 87.3935 80.7571ZM47.2947 86.3211C47.0016 87.6787 46.6764 89.3046 46.5725 89.9341C46.4682 90.5635 45.6831 93.4864 44.8279 96.4293C42.8968 103.072 41.0903 109.381 40.6138 111.143C40.4152 111.879 40.114 112.825 39.9446 113.246C39.7755 113.667 39.1229 115.818 38.4948 118.025C37.8667 120.232 37.2128 122.467 37.0415 122.993C36.8698 123.519 36.3805 125.239 35.9541 126.815C35.5273 128.391 34.8842 130.712 34.5249 131.974C34.1653 133.235 33.5165 135.556 33.0832 137.132C32.6496 138.709 32.1313 140.35 31.9312 140.781C31.7311 141.211 31.2873 142.748 30.9453 144.195C30.6029 145.642 30.1181 146.898 29.8675 146.986C29.1899 147.223 29.2762 145.706 30.1006 142.885C32.016 136.333 34.0979 129.041 34.7922 126.452C35.2148 124.876 36.1174 121.694 36.7976 119.382C37.4781 117.07 38.4505 113.716 38.9582 111.929C39.4663 110.143 40.1225 107.932 40.4169 107.016C40.8902 105.543 40.8869 105.377 40.388 105.578C40.0419 105.717 39.8211 105.582 39.8157 105.228C39.8108 104.898 40.0809 104.696 40.4509 104.755C41.0734 104.854 41.6049 103.534 41.7927 101.422C41.8297 101.003 42.0446 100.315 42.27 99.8926C42.495 99.4707 43.4502 96.5453 44.3921 93.3917C46.3055 86.9852 47.4869 83.5221 47.6912 83.7203C47.7661 83.793 47.5878 84.9632 47.2947 86.3211ZM115.453 84.8054C115.801 85.5852 116.534 87.586 117.082 89.2521C118.995 95.0731 122.411 105.168 123.04 106.857C123.388 107.793 123.903 109.412 124.185 110.455C124.466 111.497 124.899 112.843 125.148 113.445C125.396 114.048 125.969 115.923 126.422 117.612C126.874 119.301 127.334 120.981 127.443 121.346C127.792 122.511 127.015 122.065 126.476 120.789C125.273 117.942 124.43 115.569 123.421 112.178C122.831 110.199 122.221 108.41 122.064 108.203C121.908 107.996 121.593 107.145 121.364 106.311C121.134 105.478 120.201 102.495 119.29 99.6833C116.086 89.7991 114.467 84.4835 114.457 83.8105C114.445 83.0162 114.824 83.3944 115.453 84.8054ZM79.9165 89.6219C79.9196 89.8311 79.7511 90.0049 79.5418 90.0081C79.3326 90.0112 79.1588 89.8426 79.1556 89.6334C79.1525 89.4241 79.3211 89.2503 79.5304 89.2472C79.7396 89.244 79.9133 89.4126 79.9165 89.6219ZM50.0633 90.8328C50.1958 91.0401 50.1227 91.2124 49.9013 91.2157C49.6799 91.2191 49.4958 91.0507 49.4927 90.8414C49.4895 90.6322 49.5623 90.4598 49.6547 90.4584C49.7471 90.457 49.9308 90.6255 50.0633 90.8328ZM79.8569 92.7621C79.8806 93.651 80.0655 97.5871 80.268 101.508C80.5301 106.575 80.5159 108.639 80.2203 108.644C79.9912 108.647 79.6522 108.267 79.4667 107.799C79.0766 106.815 79.1557 91.1554 79.551 91.1495C79.696 91.1473 79.8336 91.8732 79.8569 92.7621ZM73.4314 101.176C64.6564 102.034 55.3373 104.128 49.9706 106.448C48.1756 107.224 47.8763 107.514 47.4984 108.847C47.2621 109.681 46.985 110.593 46.8823 110.872C46.6842 111.413 48.5279 112.016 55.7363 113.768L59.5556 114.696L60.0658 113.911C60.3466 113.479 60.8873 113.121 61.2681 113.115C61.6485 113.109 62.0633 112.932 62.1895 112.721C62.3198 112.503 61.9974 112.343 61.4453 112.351C59.9715 112.374 60.2704 111.728 61.8843 111.404C62.6669 111.246 63.5794 110.866 63.9123 110.558C64.2452 110.25 65.4383 109.881 66.5636 109.737C67.6889 109.593 68.7961 109.325 69.0243 109.14C69.4134 108.826 70.9198 108.543 72.8746 108.416C73.3448 108.386 73.7271 108.171 73.7236 107.939C73.7197 107.682 73.3564 107.614 72.7928 107.764C71.4007 108.136 71.1791 107.287 72.5295 106.753C74.5446 105.958 73.9749 105.53 71.16 105.723C70.0193 105.802 69.1536 105.222 69.6493 104.711C69.7775 104.579 70.8621 104.413 72.0601 104.342C75.7525 104.124 76.8751 103.694 77.0001 102.449C77.06 101.854 76.9654 101.258 76.7899 101.123C76.6147 100.989 75.1033 101.013 73.4314 101.176ZM89.1635 103.801C90.6777 104.182 89.6774 104.696 87.3518 104.731C85.5964 104.757 85.0897 104.638 85.083 104.194C85.0739 103.591 87.4297 103.364 89.1635 103.801ZM101.062 103.985C101.072 104.657 100.251 104.553 100.005 103.851C99.9188 103.603 100.119 103.397 100.451 103.392C100.782 103.387 101.057 103.654 101.062 103.985ZM94.9836 104.654C94.9894 105.042 93.3251 105.126 92.0409 104.802C91.5707 104.684 91.2529 104.474 91.3349 104.337C91.5591 103.962 94.9776 104.259 94.9836 104.654ZM67.0263 105.418C67.1588 105.625 66.9145 105.8 66.4839 105.806C66.0532 105.813 65.6979 105.647 65.6948 105.438C65.6916 105.229 65.9356 105.054 66.2373 105.049C66.5389 105.045 66.8938 105.21 67.0263 105.418ZM96.5102 104.951C96.5132 105.148 96.346 105.417 96.1387 105.55C95.9314 105.682 95.7577 105.524 95.7528 105.198C95.7479 104.872 95.9151 104.602 96.1243 104.599C96.3336 104.596 96.5072 104.754 96.5102 104.951ZM100.721 105.675C101.596 105.896 102.253 106.137 102.18 106.21C101.9 106.493 98.0419 105.59 98.0366 105.24C98.0336 105.036 98.2786 104.96 98.5809 105.071C98.8836 105.182 99.8466 105.454 100.721 105.675ZM61.5275 106.665C61.5304 106.862 61.3617 107.025 61.1524 107.028C60.9432 107.032 60.7679 106.767 60.763 106.441C60.7581 106.115 60.9269 105.951 61.1381 106.077C61.3493 106.203 61.5245 106.468 61.5275 106.665ZM64.9454 106.21C64.9485 106.419 64.7799 106.593 64.5707 106.596C64.3614 106.6 64.1876 106.431 64.1845 106.222C64.1813 106.012 64.3499 105.839 64.5592 105.835C64.7684 105.832 64.9422 106.001 64.9454 106.21ZM85.8722 106.063C85.8736 106.155 85.7051 106.339 85.4978 106.471C85.2905 106.604 85.1182 106.531 85.1148 106.309C85.1115 106.088 85.28 105.904 85.4892 105.901C85.6985 105.897 85.8708 105.97 85.8722 106.063ZM58.8698 107.063C58.8729 107.272 58.694 107.446 58.4726 107.449C58.2512 107.453 58.1729 107.283 58.2991 107.071C58.4253 106.86 58.6038 106.686 58.6963 106.685C58.7887 106.683 58.8666 106.854 58.8698 107.063ZM69.179 107.288C69.7896 107.279 70.2913 107.442 70.2945 107.652C70.2976 107.861 70.0434 108.036 69.7295 108.041C69.4157 108.045 69.0311 108.079 68.8745 108.115C68.7179 108.151 68.0358 108.315 67.3578 108.478C66.4471 108.698 66.1236 108.644 66.118 108.271C66.1138 107.993 66.4511 107.652 66.8676 107.513C67.2841 107.374 67.6355 107.057 67.6482 106.81C67.6647 106.49 67.7294 106.497 67.8703 106.832C67.9801 107.092 68.5688 107.297 69.179 107.288ZM88.3963 107.938C89.3082 108.606 89.0737 108.645 87.4234 108.097C86.3285 107.734 86.0939 107.772 85.6587 108.387C85.1818 109.06 85.1562 109.054 85.1443 108.262C85.1339 107.572 85.3485 107.425 86.3906 107.409C87.083 107.399 87.9854 107.637 88.3963 107.938ZM90.637 107.699C90.7606 107.892 90.6889 108.16 90.4782 108.295C90.2676 108.429 90.0913 108.273 90.0864 107.947C90.0763 107.278 90.3031 107.177 90.637 107.699ZM65.0268 108.985C64.5456 109.481 64.045 109.111 64.3976 108.521C64.5342 108.292 64.8218 108.21 65.0368 108.339C65.2991 108.495 65.2958 108.708 65.0268 108.985ZM119.953 107.664C120.086 107.872 120.013 108.044 119.791 108.047C119.57 108.051 119.386 107.882 119.383 107.673C119.38 107.464 119.452 107.291 119.545 107.29C119.637 107.289 119.821 107.457 119.953 107.664ZM109.878 108.197C109.881 108.406 109.808 108.578 109.716 108.58C109.623 108.581 109.439 108.413 109.307 108.205C109.174 107.998 109.247 107.826 109.469 107.822C109.69 107.819 109.874 107.988 109.878 108.197ZM62.8085 109.604C62.0412 110.432 61.8534 110.414 62.1732 109.541C62.3 109.195 62.6424 108.909 62.9338 108.904C63.3374 108.898 63.3076 109.065 62.8085 109.604ZM72.6033 109.353C71.8751 109.641 70.9797 109.891 70.6139 109.909C69.9591 109.939 69.6495 111.086 70.2989 111.076C70.7969 111.069 74.8833 109.145 74.8799 108.919C74.8754 108.621 74.0634 108.775 72.6033 109.353ZM75.8338 109.09C75.7076 109.301 75.7859 109.472 76.0073 109.468C76.2287 109.465 76.4076 109.291 76.4045 109.082C76.4013 108.872 76.3234 108.702 76.231 108.704C76.1385 108.705 75.96 108.879 75.8338 109.09ZM91.9029 109.078C91.7785 109.206 91.4504 109.225 91.1745 109.119C90.869 109.002 90.9578 108.911 91.4008 108.886C91.8015 108.863 92.0273 108.95 91.9029 109.078ZM96.5736 109.158C96.5767 109.368 96.4511 109.543 96.2941 109.548C96.137 109.553 95.5824 109.669 95.0612 109.805C94.1367 110.045 94.132 110.036 94.8653 109.434C95.7212 108.731 96.5651 108.595 96.5736 109.158ZM59.2291 110.477C59.5031 110.476 59.6169 110.659 59.4822 110.885C59.3475 111.11 59.0019 111.209 58.7142 111.103C58.4264 110.998 58.0923 111.077 57.9717 111.279C57.8511 111.481 57.4628 111.648 57.1089 111.65C56.5953 111.653 56.5703 111.585 56.9848 111.313C57.2881 111.115 57.377 110.775 57.1985 110.495C56.9705 110.139 57.1263 110.076 57.812 110.248C58.3173 110.375 58.9551 110.478 59.2291 110.477ZM67.3863 110.392C66.918 110.577 66.3041 110.644 66.0224 110.541C65.7408 110.437 65.2946 110.62 65.0312 110.948C64.7675 111.276 64.2408 111.548 63.8604 111.554C63.4795 111.56 63.0651 111.737 62.9389 111.948C62.8127 112.159 62.9568 112.329 63.2589 112.324C64.0213 112.313 67.7943 111.055 68.2216 110.67C68.7734 110.173 68.3206 110.022 67.3863 110.392ZM74.0426 110.172C73.6778 110.256 73.3814 110.483 73.3843 110.677C73.3872 110.871 73.0472 111.035 72.6287 111.041C71.6902 111.055 71.651 111.635 72.5509 112.189C73.1121 112.534 73.0509 112.569 72.1804 112.398C70.964 112.16 68.0858 112.596 68.0922 113.018C68.0946 113.177 68.8686 113.41 69.8124 113.537C70.7561 113.664 71.5308 113.941 71.534 114.151C71.5414 114.642 65.559 114.258 64.4874 113.699C64.0655 113.479 63.4642 113.343 63.1511 113.398C61.4162 113.7 60.8762 113.953 60.8839 114.46C60.8933 115.086 61.8641 115.216 62.2097 114.637C62.3385 114.422 62.9469 114.571 63.6645 114.994C64.3433 115.394 65.4977 115.714 66.23 115.705C66.9624 115.696 68.1631 115.834 68.8983 116.011C69.6335 116.189 71.7349 116.422 73.5676 116.53C76.7543 116.716 76.8997 116.69 76.8884 115.944C76.8792 115.33 76.6328 115.167 75.7353 115.18C75.1076 115.19 74.5914 115.026 74.5883 114.817C74.5851 114.608 74.8465 114.433 75.1692 114.428C76.0046 114.415 77.3858 113.017 76.8682 112.708C76.6412 112.572 76.2858 112.569 76.0785 112.702C75.8712 112.834 75.6991 112.775 75.696 112.571C75.6929 112.367 75.8706 112.137 76.0905 112.06C77.1765 111.68 75.2421 109.896 74.0426 110.172ZM75.9683 110.109C76.2442 110.215 76.5724 110.196 76.6968 110.068C76.8212 109.94 76.5953 109.854 76.1946 109.876C75.7517 109.901 75.6628 109.992 75.9683 110.109ZM100.335 110.459C100.997 110.777 101.699 110.935 101.895 110.81C102.09 110.685 102.36 110.755 102.495 110.966C102.64 111.193 102.275 111.356 101.599 111.366C100.971 111.375 100.349 111.213 100.216 111.006C100.084 110.799 99.6332 110.634 99.2147 110.641C98.7962 110.647 98.557 110.479 98.6832 110.268C98.9734 109.782 98.9109 109.775 100.335 110.459ZM68.6398 111.482C68.5136 111.693 68.5816 111.863 68.7909 111.86C69.0001 111.857 69.2745 111.682 69.4007 111.47C69.5269 111.259 69.4589 111.089 69.2496 111.092C69.0404 111.095 68.766 111.271 68.6398 111.482ZM96.9827 111.055C96.9858 111.264 96.8172 111.438 96.608 111.441C96.3987 111.444 96.2249 111.275 96.2218 111.066C96.2186 110.857 96.3873 110.683 96.5965 110.68C96.8058 110.677 96.9795 110.846 96.9827 111.055ZM66.5531 111.894C66.5563 112.103 66.8259 112.27 67.152 112.265C67.478 112.26 67.6367 112.087 67.5042 111.879C67.3717 111.672 67.1024 111.505 66.9054 111.508C66.7083 111.511 66.55 111.685 66.5531 111.894ZM95.4673 111.553C95.4701 111.71 95.2296 111.842 94.9329 111.847C94.6362 111.851 94.1241 111.963 93.795 112.095C93.4172 112.246 93.1936 112.129 93.1883 111.778C93.1827 111.404 93.5545 111.229 94.3211 111.245C94.9484 111.257 95.4642 111.396 95.4673 111.553ZM46.1392 113.498L45.7608 114.801L48.2996 115.911C51.1993 117.179 56.021 118.596 60.1974 119.407C63.4452 120.038 74.5024 121.268 76.7293 121.246L78.2025 121.231L78.2717 135.215L78.3408 149.198L79.6824 149.843C81.3161 150.629 82.7189 150.642 84.4518 149.887L85.7629 149.315L85.6617 142.596L85.5604 135.876L86.8003 136.089C87.4825 136.207 89.4124 136.454 91.0895 136.64C92.7667 136.825 94.4822 137.038 94.902 137.114C95.3217 137.189 97.0375 137.423 98.715 137.633C101.846 138.026 103.694 138.284 109.936 139.199C114.721 139.9 114.542 139.932 114.518 138.379C114.507 137.646 114.37 137.046 114.213 137.044C113.906 137.041 109.441 136.49 107.255 136.186C106.521 136.084 104.72 135.862 103.252 135.693C95.1225 134.755 91.099 134.238 88.7011 133.821C88.3162 133.754 87.4446 133.695 86.7641 133.689L85.5273 133.678L85.4334 127.45L85.3396 121.222L88.8546 120.902C92.9218 120.532 95.3951 120.243 96.7366 119.979C97.2583 119.877 98.8808 119.591 100.342 119.344C105.818 118.418 116.072 115.103 117.265 113.873C117.639 113.488 116.979 111.514 116.478 111.522C116.303 111.525 115.064 111.982 113.725 112.538C106.586 115.502 98.5536 117.247 88.0592 118.113C81.8973 118.621 73.7073 118.479 67.9734 117.764C67.1347 117.659 65.9338 117.511 65.3048 117.436C60.4225 116.848 51.4263 114.464 48.3076 112.932C47.4788 112.524 46.7367 112.192 46.6591 112.194C46.5811 112.195 46.3472 112.782 46.1392 113.498ZM59.9966 112.472C59.8742 112.858 58.4075 112.979 55.342 112.855C53.0453 112.762 54.6647 112.273 57.6187 112.167C59.1924 112.111 60.0751 112.224 59.9966 112.472ZM105.526 111.918C106.526 112.284 106.22 112.818 105.001 112.837C104.24 112.848 103.856 112.664 103.851 112.283C103.842 111.686 104.501 111.542 105.526 111.918ZM103.098 112.865C103.105 113.312 102.813 113.316 101.767 112.885C101.088 112.606 101.12 112.565 102.047 112.527C102.622 112.504 103.095 112.656 103.098 112.865ZM73.4412 114.454C73.4444 114.663 73.1045 114.839 72.6861 114.846C72.2676 114.852 71.9226 114.686 71.9194 114.477C71.9163 114.267 72.2561 114.091 72.6746 114.085C73.0931 114.078 73.4381 114.244 73.4412 114.454ZM85.999 114.477C86.0039 114.803 85.8351 114.967 85.6239 114.841C85.4127 114.715 85.2375 114.451 85.2346 114.254C85.2316 114.056 85.4004 113.893 85.6096 113.89C85.8188 113.887 85.9941 114.151 85.999 114.477ZM89.3228 114.096C88.9583 114.197 88.3587 114.206 87.9913 114.116C87.6239 114.026 87.9221 113.943 88.6545 113.932C89.3868 113.921 89.6874 113.995 89.3228 114.096ZM95.9852 114.304C95.8533 114.868 94.6564 114.787 94.4509 114.2C94.3296 113.854 94.5572 113.731 95.1744 113.809C95.6693 113.871 96.0346 114.094 95.9852 114.304ZM52.5293 115.593C52.532 115.768 52.2773 115.914 51.9635 115.919C51.6496 115.924 51.3907 115.785 51.388 115.611C51.3854 115.436 51.64 115.29 51.9539 115.285C52.2678 115.28 52.5267 115.419 52.5293 115.593ZM124.398 123.017C123.626 123.62 123.187 123.533 123.592 122.856C123.726 122.631 124.126 122.447 124.48 122.449C125.045 122.451 125.035 122.52 124.398 123.017ZM129.52 123.823C129.523 123.999 128.886 124.348 128.105 124.599C125.874 125.316 124.128 126.565 124.402 127.248C124.548 127.611 124.293 128.119 123.742 128.566C122.616 129.479 121.507 131.914 120.917 134.767C120.395 137.292 119.465 138.533 119.443 136.734C119.423 135.127 120.669 131.085 121.6 129.735C122.558 128.346 122.258 127.413 121.178 128.421C120.784 128.788 120.362 128.991 120.24 128.873C119.809 128.455 120.783 127.198 122.113 126.455C122.854 126.042 123.458 125.582 123.456 125.433C123.454 125.284 124.213 125.037 125.143 124.883C126.073 124.729 127.138 124.366 127.509 124.075C128.262 123.486 129.512 123.329 129.52 123.823ZM80.6738 127.251C80.683 127.861 80.5643 128.491 80.4095 128.65C80.2548 128.81 80.119 128.312 80.1075 127.545C80.0959 126.778 80.2146 126.148 80.3718 126.146C80.5289 126.143 80.6646 126.641 80.6738 127.251ZM129.93 125.779C129.933 125.989 129.764 126.162 129.555 126.166C129.346 126.169 129.172 126 129.169 125.791C129.166 125.582 129.335 125.408 129.544 125.405C129.753 125.402 129.927 125.57 129.93 125.779ZM123.105 127.404C122.765 127.631 122.721 127.781 122.993 127.781C123.242 127.78 123.549 127.607 123.676 127.396C123.96 126.919 123.829 126.921 123.105 127.404ZM134.475 128.35C137.268 129.734 139.186 132.587 139.952 136.494C141.345 143.608 136.756 150.977 130.899 151.031C127.37 151.064 124.637 149.034 122.663 144.915C121.852 143.222 121.662 142.274 121.641 139.794C121.604 135.585 122.645 132.793 125.226 130.184C128.094 127.282 131.113 126.684 134.475 128.35ZM80.9419 134.863C80.9937 137.77 81.0636 140.292 81.0971 140.467C81.1305 140.641 81.1592 142.191 81.16 143.912C81.162 146.364 81.0509 146.998 80.6468 146.85C80.2485 146.704 80.1316 145.609 80.1307 142.018C80.1303 139.464 80.1303 135.524 80.1308 133.262C80.132 127.203 80.8301 128.581 80.9419 134.863ZM141.014 129.037C141.017 129.246 140.849 129.42 140.64 129.423C140.43 129.426 140.257 129.258 140.253 129.049C140.25 128.839 140.419 128.666 140.628 128.662C140.837 128.659 141.011 128.828 141.014 129.037ZM127.606 130.798C125.817 131.777 124.142 134.44 123.626 137.128C122.903 140.898 124.548 145.672 127.201 147.502C128.829 148.625 131.703 148.846 133.452 147.984C138.502 145.494 140.042 136.903 136.227 132.505C134.09 130.041 130.345 129.3 127.606 130.798ZM132.93 132.861C132.549 133.254 132.222 132.676 132.531 132.158C132.765 131.767 132.855 131.765 132.989 132.15C133.081 132.413 133.055 132.733 132.93 132.861ZM134.224 132.945C134.227 133.154 134.048 133.328 133.827 133.331C133.605 133.335 133.527 133.164 133.653 132.953C133.779 132.742 133.958 132.568 134.05 132.567C134.143 132.565 134.221 132.735 134.224 132.945ZM119.12 134.5C119.028 135.022 118.817 135.367 118.649 135.267C118.287 135.051 118.596 133.561 119.003 133.555C119.159 133.552 119.212 133.978 119.12 134.5ZM97.7415 136.158C97.7447 136.367 97.3192 136.545 96.7961 136.553C96.273 136.561 95.8424 136.396 95.8393 136.187C95.8361 135.978 96.2616 135.8 96.7847 135.792C97.3078 135.784 97.7384 135.949 97.7415 136.158ZM118.804 137.865C118.65 138.114 118.524 138.447 118.523 138.604C118.521 138.941 118.115 139.016 117.464 138.799C117.134 138.689 117.203 138.402 117.7 137.825C118.413 136.996 119.317 137.029 118.804 137.865ZM142.908 138.419C142.527 138.811 142.199 138.234 142.509 137.716C142.742 137.324 142.832 137.323 142.967 137.707C143.059 137.97 143.032 138.29 142.908 138.419ZM117.213 140.431C117.216 140.64 117.047 140.814 116.838 140.817C116.629 140.82 116.455 140.652 116.452 140.442C116.449 140.233 116.617 140.059 116.827 140.056C117.036 140.053 117.21 140.222 117.213 140.431ZM118.746 141.169C118.755 141.797 118.587 142.313 118.371 142.316C117.846 142.324 117.472 141.327 117.734 140.613C118.095 139.627 118.728 139.974 118.746 141.169ZM142.845 140.901C142.686 141.165 142.608 141.744 142.672 142.187C142.738 142.64 142.532 143.096 142.2 143.228C141.756 143.407 141.608 143.207 141.596 142.411C141.581 141.38 142.156 140.436 142.807 140.426C142.986 140.423 143.003 140.637 142.845 140.901ZM119.178 144.587C119.181 144.797 119.108 144.969 119.016 144.97C118.924 144.972 118.74 144.803 118.607 144.596C118.475 144.389 118.548 144.216 118.769 144.213C118.991 144.21 119.175 144.378 119.178 144.587ZM29.9936 149.394C29.8458 149.641 29.5716 149.621 29.221 149.339C28.399 148.678 28.5601 148.152 29.4448 148.609C29.8724 148.83 30.1194 149.183 29.9936 149.394ZM138.434 149.847C138.581 150.215 138.499 150.39 138.219 150.302C137.648 150.121 137.322 149.261 137.822 149.253C138.026 149.25 138.301 149.517 138.434 149.847ZM121.927 150.254C121.93 150.463 121.858 150.635 121.765 150.637C121.673 150.638 121.489 150.47 121.356 150.262C121.224 150.055 121.297 149.883 121.519 149.879C121.74 149.876 121.924 150.044 121.927 150.254ZM123.712 152.793C123.452 153.06 122.723 152.535 122.716 152.076C122.712 151.823 122.931 151.849 123.297 152.143C123.619 152.403 123.806 152.695 123.712 152.793Z" fill="#6B0301" fill-opacity="0.4"/>
</svg>
