<svg width="255" height="31" viewBox="0 0 255 31" fill="none" xmlns="http://www.w3.org/2000/svg">
<path d="M71.3417 15.5716L71.4224 30.5714L72.9572 30.5633L72.8765 15.5635L72.7957 0.563678L71.2609 0.571847L71.3417 15.5716ZM74.9229 15.5526L75.0037 30.5524L78.0733 30.536L77.9925 15.5362L77.9117 0.53645L74.8421 0.552787L74.9229 15.5526ZM80.0389 15.5254L80.1197 30.5251L83.1893 30.5088L83.1085 15.509L83.0278 0.509222L79.9581 0.525559L80.0389 15.5254ZM85.1549 15.4981L85.2357 30.4979L88.3053 30.4816L88.2245 15.4818L88.1438 0.481994L85.0742 0.498331L85.1549 15.4981ZM90.271 15.4709L90.3517 30.4707L93.4213 30.4543L93.3406 15.4546L93.2598 0.454766L90.1902 0.471103L90.271 15.4709ZM95.387 15.4437L95.4678 30.4435L98.5374 30.4271L98.4566 15.4273L98.3758 0.427538L95.3062 0.443874L95.387 15.4437ZM100.503 15.4164L100.584 30.4162L103.653 30.3999L103.573 15.4001L103.492 0.400309L100.422 0.416646L100.503 15.4164ZM105.619 15.3892L105.7 30.389L108.769 30.3727L108.689 15.3729L108.608 0.373081L105.538 0.389418L105.619 15.3892ZM110.735 15.362L110.816 30.3618L113.885 30.3454L113.805 15.3456L113.724 0.345853L110.654 0.362191L110.735 15.362ZM115.851 15.3348L115.932 30.3345L119.001 30.3182L118.921 15.3184L118.84 0.318626L115.77 0.334962L115.851 15.3348ZM120.967 15.3075L121.048 30.3073L124.117 30.291L124.037 15.2912L123.956 0.291398L120.886 0.307734L120.967 15.3075ZM126.083 15.2803L126.164 30.2801L129.234 30.2638L129.153 15.264L129.072 0.264169L126.002 0.280506L126.083 15.2803ZM131.199 15.2531L131.28 30.2529L134.35 30.2365L134.269 15.2367L134.188 0.236941L131.118 0.253278L131.199 15.2531ZM136.315 15.2258L136.396 30.2256L139.466 30.2093L139.385 15.2095L139.304 0.209713L136.234 0.22605L136.315 15.2258ZM141.431 15.1986L141.512 30.1984L144.582 30.1821L144.501 15.1823L144.42 0.182485L141.35 0.198821L141.431 15.1986ZM146.547 15.1714L146.628 30.1712L149.698 30.1548L149.617 15.155L149.536 0.155256L146.466 0.171594L146.547 15.1714ZM151.663 15.1442L151.744 30.1439L154.814 30.1276L154.733 15.1278L154.652 0.128029L151.582 0.144366L151.663 15.1442ZM156.779 15.1169L156.86 30.1167L159.93 30.1004L159.849 15.1006L159.768 0.100801L156.698 0.117138L156.779 15.1169ZM161.895 15.0897L161.976 30.0895L165.046 30.0732L164.965 15.0734L164.884 0.0735728L161.815 0.0899095L161.895 15.0897ZM167.011 15.0625L167.092 30.0623L170.162 30.0459L170.081 15.0461L170 0.0463445L166.931 0.0626813L167.011 15.0625ZM172.127 15.0352L172.208 30.035L175.278 30.0187L175.197 15.0189L175.116 0.0191163L172.047 0.0354531L172.127 15.0352ZM177.243 15.008L177.324 30.0078L178.859 29.9996L178.778 14.9998L178.697 5.69992e-05L177.163 0.00822482L177.243 15.008ZM71.3417 15.5716L71.4224 30.5714L72.9572 30.5633L72.8765 15.5635L72.7957 0.563678L71.2609 0.571847L71.3417 15.5716ZM74.9229 15.5526L75.0037 30.5524L78.0733 30.536L77.9925 15.5362L77.9117 0.53645L74.8421 0.552787L74.9229 15.5526ZM80.0389 15.5254L80.1197 30.5251L83.1893 30.5088L83.1085 15.509L83.0278 0.509222L79.9581 0.525559L80.0389 15.5254ZM85.1549 15.4981L85.2357 30.4979L88.3053 30.4816L88.2245 15.4818L88.1438 0.481994L85.0742 0.498331L85.1549 15.4981ZM90.271 15.4709L90.3517 30.4707L93.4213 30.4543L93.3406 15.4546L93.2598 0.454766L90.1902 0.471103L90.271 15.4709ZM95.387 15.4437L95.4678 30.4435L98.5374 30.4271L98.4566 15.4273L98.3758 0.427538L95.3062 0.443874L95.387 15.4437ZM100.503 15.4164L100.584 30.4162L103.653 30.3999L103.573 15.4001L103.492 0.400309L100.422 0.416646L100.503 15.4164ZM105.619 15.3892L105.7 30.389L108.769 30.3727L108.689 15.3729L108.608 0.373081L105.538 0.389418L105.619 15.3892ZM110.735 15.362L110.816 30.3618L113.885 30.3454L113.805 15.3456L113.724 0.345853L110.654 0.362191L110.735 15.362ZM115.851 15.3348L115.932 30.3345L119.001 30.3182L118.921 15.3184L118.84 0.318626L115.77 0.334962L115.851 15.3348ZM120.967 15.3075L121.048 30.3073L124.117 30.291L124.037 15.2912L123.956 0.291398L120.886 0.307734L120.967 15.3075ZM126.083 15.2803L126.164 30.2801L129.234 30.2638L129.153 15.264L129.072 0.264169L126.002 0.280506L126.083 15.2803ZM131.199 15.2531L131.28 30.2529L134.35 30.2365L134.269 15.2367L134.188 0.236941L131.118 0.253278L131.199 15.2531ZM136.315 15.2258L136.396 30.2256L139.466 30.2093L139.385 15.2095L139.304 0.209713L136.234 0.22605L136.315 15.2258ZM141.431 15.1986L141.512 30.1984L144.582 30.1821L144.501 15.1823L144.42 0.182485L141.35 0.198821L141.431 15.1986ZM146.547 15.1714L146.628 30.1712L149.698 30.1548L149.617 15.155L149.536 0.155256L146.466 0.171594L146.547 15.1714ZM151.663 15.1442L151.744 30.1439L154.814 30.1276L154.733 15.1278L154.652 0.128029L151.582 0.144366L151.663 15.1442ZM156.779 15.1169L156.86 30.1167L159.93 30.1004L159.849 15.1006L159.768 0.100801L156.698 0.117138L156.779 15.1169ZM161.895 15.0897L161.976 30.0895L165.046 30.0732L164.965 15.0734L164.884 0.0735728L161.815 0.0899095L161.895 15.0897ZM167.011 15.0625L167.092 30.0623L170.162 30.0459L170.081 15.0461L170 0.0463445L166.931 0.0626813L167.011 15.0625ZM172.127 15.0352L172.208 30.035L175.278 30.0187L175.197 15.0189L175.116 0.0191163L172.047 0.0354531L172.127 15.0352ZM177.243 15.008L177.324 30.0078L178.859 29.9996L178.778 14.9998L178.697 5.69992e-05L177.163 0.00822482L177.243 15.008Z" fill="black" fill-opacity="0.7"/>
<path d="M234.014 15.5803L233.954 30.5808L235.518 30.5883L235.578 15.5878L235.638 0.587334L234.074 0.579802L234.014 15.5803ZM237.663 15.5979L237.604 30.5984L240.732 30.6134L240.791 15.6129L240.851 0.612441L237.723 0.597376L237.663 15.5979ZM242.877 15.623L242.817 30.6235L245.945 30.6385L246.005 15.638L246.064 0.637546L242.936 0.622483L242.877 15.623ZM248.09 15.6481L248.03 30.6486L251.158 30.6636L251.218 15.6631L251.278 0.662653L248.15 0.647589L248.09 15.6481ZM253.303 15.6732L253.244 30.6737L254.808 30.6812L254.867 15.6807L254.927 0.680227L253.363 0.672696L253.303 15.6732ZM234.014 15.5803L233.954 30.5808L235.518 30.5883L235.578 15.5878L235.638 0.587334L234.074 0.579802L234.014 15.5803ZM237.663 15.5979L237.604 30.5984L240.732 30.6134L240.791 15.6129L240.851 0.612441L237.723 0.597376L237.663 15.5979ZM242.877 15.623L242.817 30.6235L245.945 30.6385L246.005 15.638L246.064 0.637546L242.936 0.622483L242.877 15.623ZM248.09 15.6481L248.03 30.6486L251.158 30.6636L251.218 15.6631L251.278 0.662653L248.15 0.647589L248.09 15.6481ZM253.303 15.6732L253.244 30.6737L254.808 30.6812L254.867 15.6807L254.927 0.680227L253.363 0.672696L253.303 15.6732Z" fill="black"/>
<path d="M192.718 15.2851L192.506 30.2841L194.709 30.3171L194.921 15.3181L195.133 0.319112L192.929 0.286141L192.718 15.2851ZM199.328 15.384L199.116 30.383L203.523 30.449L203.735 15.45L203.947 0.450999L199.54 0.385056L199.328 15.384ZM208.142 15.5159L207.93 30.5149L212.337 30.5809L212.549 15.5819L212.76 0.582885L208.353 0.516942L208.142 15.5159ZM216.955 15.6478L216.744 30.6468L218.947 30.6798L219.159 15.6808L219.371 0.6818L217.167 0.648828L216.955 15.6478ZM192.718 15.2851L192.506 30.2841L194.709 30.3171L194.921 15.3181L195.133 0.319112L192.929 0.286141L192.718 15.2851ZM199.328 15.384L199.116 30.383L203.523 30.449L203.735 15.45L203.947 0.450999L199.54 0.385056L199.328 15.384ZM208.142 15.5159L207.93 30.5149L212.337 30.5809L212.549 15.5819L212.76 0.582885L208.353 0.516942L208.142 15.5159ZM216.955 15.6478L216.744 30.6468L218.947 30.6798L219.159 15.6808L219.371 0.6818L217.167 0.648828L216.955 15.6478Z" fill="black" fill-opacity="0.8"/>
<path d="M2.90014 15.5716L2.98091 30.5714L5.42265 30.5584L5.34188 15.5586L5.26111 0.558851L2.81937 0.571847L2.90014 15.5716ZM10.2254 15.5327L10.3061 30.5324L15.1896 30.5065L15.1088 15.5067L15.0281 0.506871L10.1446 0.532861L10.2254 15.5327ZM19.9923 15.4807L20.0731 30.4805L24.9566 30.4545L24.8758 15.4547L24.795 0.45489L19.9115 0.48088L19.9923 15.4807ZM29.7593 15.4287L29.84 30.4285L34.7235 30.4025L34.6427 15.4027L34.562 0.402909L29.6785 0.428899L29.7593 15.4287ZM39.5262 15.3767L39.607 30.3765L44.4905 30.3505L44.4097 15.3507L44.3289 0.350928L39.4454 0.376918L39.5262 15.3767ZM49.2932 15.3247L49.3739 30.3245L54.2574 30.2985L54.1766 15.2987L54.0959 0.298947L49.2124 0.324937L49.2932 15.3247ZM59.0601 15.2727L59.1409 30.2725L64.0244 30.2465L63.9436 15.2468L63.8628 0.246966L58.9794 0.272957L59.0601 15.2727ZM68.8271 15.2208L68.9078 30.2206L73.7913 30.1946L73.7106 15.1948L73.6298 0.194985L68.7463 0.220976L68.8271 15.2208ZM78.594 15.1688L78.6748 30.1686L83.5583 30.1426L83.4775 15.1428L83.3967 0.143004L78.5133 0.168995L78.594 15.1688ZM88.361 15.1168L88.4418 30.1166L93.3253 30.0906L93.2445 15.0908L93.1637 0.0910232L88.2802 0.117014L88.361 15.1168ZM98.128 15.0648L98.2087 30.0646L103.092 30.0386L103.011 15.0388L102.931 0.0390423L98.0472 0.0650328L98.128 15.0648ZM107.895 15.0128L107.976 30.0126L110.417 29.9996L110.337 14.9998L110.256 5.69992e-05L107.814 0.0130519L107.895 15.0128ZM2.90014 15.5716L2.98091 30.5714L5.42265 30.5584L5.34188 15.5586L5.26111 0.558851L2.81937 0.571847L2.90014 15.5716ZM10.2254 15.5327L10.3061 30.5324L15.1896 30.5065L15.1088 15.5067L15.0281 0.506871L10.1446 0.532861L10.2254 15.5327ZM19.9923 15.4807L20.0731 30.4805L24.9566 30.4545L24.8758 15.4547L24.795 0.45489L19.9115 0.48088L19.9923 15.4807ZM29.7593 15.4287L29.84 30.4285L34.7235 30.4025L34.6427 15.4027L34.562 0.402909L29.6785 0.428899L29.7593 15.4287ZM39.5262 15.3767L39.607 30.3765L44.4905 30.3505L44.4097 15.3507L44.3289 0.350928L39.4454 0.376918L39.5262 15.3767ZM49.2932 15.3247L49.3739 30.3245L54.2574 30.2985L54.1766 15.2987L54.0959 0.298947L49.2124 0.324937L49.2932 15.3247ZM59.0601 15.2727L59.1409 30.2725L64.0244 30.2465L63.9436 15.2468L63.8628 0.246966L58.9794 0.272957L59.0601 15.2727ZM68.8271 15.2208L68.9078 30.2206L73.7913 30.1946L73.7106 15.1948L73.6298 0.194985L68.7463 0.220976L68.8271 15.2208ZM78.594 15.1688L78.6748 30.1686L83.5583 30.1426L83.4775 15.1428L83.3967 0.143004L78.5133 0.168995L78.594 15.1688ZM88.361 15.1168L88.4418 30.1166L93.3253 30.0906L93.2445 15.0908L93.1637 0.0910232L88.2802 0.117014L88.361 15.1168ZM98.128 15.0648L98.2087 30.0646L103.092 30.0386L103.011 15.0388L102.931 0.0390423L98.0472 0.0650328L98.128 15.0648ZM107.895 15.0128L107.976 30.0126L110.417 29.9996L110.337 14.9998L110.256 5.69992e-05L107.814 0.0130519L107.895 15.0128Z" fill="black" fill-opacity="0.8"/>
<path d="M0.000969392 15.5819L0.0019153 30.5819L1.5099 30.5819L1.50896 15.5819L1.50801 0.581888L2.34866e-05 0.581888L0.000969392 15.5819ZM21.6155 15.5819L21.6164 30.5819L24.6324 30.5819L24.6314 15.5819L24.6305 0.581881L21.6145 0.581882L21.6155 15.5819ZM44.7379 15.5819L44.7389 30.5819L47.7549 30.5819L47.7539 15.5819L47.753 0.581874L44.737 0.581874L44.7379 15.5819ZM67.8604 15.5819L67.8614 30.5819L70.8773 30.5819L70.8764 15.5819L70.8754 0.581866L67.8595 0.581867L67.8604 15.5819ZM90.9829 15.5819L90.9838 30.5819L93.9998 30.5819L93.9989 15.5819L93.9979 0.581859L90.9819 0.58186L90.9829 15.5819ZM114.105 15.5819L114.106 30.5819L117.122 30.5819L117.121 15.5819L117.12 0.581852L114.104 0.581853L114.105 15.5819ZM137.228 15.5818L137.229 30.5819L140.245 30.5819L140.244 15.5818L140.243 0.581846L137.227 0.581846L137.228 15.5818ZM160.35 15.5818L160.351 30.5818L163.367 30.5818L163.366 15.5818L163.365 0.581838L160.349 0.581839L160.35 15.5818ZM183.473 15.5818L183.474 30.5818L186.49 30.5818L186.489 15.5818L186.488 0.581831L183.472 0.581832L183.473 15.5818ZM206.595 15.5818L206.596 30.5818L209.612 30.5818L209.611 15.5818L209.61 0.581824L206.594 0.581825L206.595 15.5818ZM229.718 15.5818L229.719 30.5818L232.735 30.5818L232.734 15.5818L232.733 0.581817L229.717 0.581818L229.718 15.5818ZM252.84 15.5818L252.841 30.5818L254.349 30.5818L254.348 15.5818L254.347 0.58181L252.839 0.58181L252.84 15.5818ZM0.000969392 15.5819L0.0019153 30.5819L1.5099 30.5819L1.50896 15.5819L1.50801 0.581888L2.34866e-05 0.581888L0.000969392 15.5819ZM21.6155 15.5819L21.6164 30.5819L24.6324 30.5819L24.6314 15.5819L24.6305 0.581881L21.6145 0.581882L21.6155 15.5819ZM44.7379 15.5819L44.7389 30.5819L47.7549 30.5819L47.7539 15.5819L47.753 0.581874L44.737 0.581874L44.7379 15.5819ZM67.8604 15.5819L67.8614 30.5819L70.8773 30.5819L70.8764 15.5819L70.8754 0.581866L67.8595 0.581867L67.8604 15.5819ZM90.9829 15.5819L90.9838 30.5819L93.9998 30.5819L93.9989 15.5819L93.9979 0.581859L90.9819 0.58186L90.9829 15.5819ZM114.105 15.5819L114.106 30.5819L117.122 30.5819L117.121 15.5819L117.12 0.581852L114.104 0.581853L114.105 15.5819ZM137.228 15.5818L137.229 30.5819L140.245 30.5819L140.244 15.5818L140.243 0.581846L137.227 0.581846L137.228 15.5818ZM160.35 15.5818L160.351 30.5818L163.367 30.5818L163.366 15.5818L163.365 0.581838L160.349 0.581839L160.35 15.5818ZM183.473 15.5818L183.474 30.5818L186.49 30.5818L186.489 15.5818L186.488 0.581831L183.472 0.581832L183.473 15.5818ZM206.595 15.5818L206.596 30.5818L209.612 30.5818L209.611 15.5818L209.61 0.581824L206.594 0.581825L206.595 15.5818ZM229.718 15.5818L229.719 30.5818L232.735 30.5818L232.734 15.5818L232.733 0.581817L229.717 0.581818L229.718 15.5818ZM252.84 15.5818L252.841 30.5818L254.349 30.5818L254.348 15.5818L254.347 0.58181L252.839 0.58181L252.84 15.5818Z" fill="black"/>
</svg>
