<svg width="295" height="53" viewBox="0 0 295 53" fill="none" xmlns="http://www.w3.org/2000/svg">
<path d="M65.7781 41.8657L58.8172 19.544H62.2642L67.0833 35.5407L71.8689 19.544H75.3493L68.3884 41.8657H65.7781ZM56.6085 41.8657V19.544H60.7248V41.8657H56.6085ZM73.4083 41.8657V19.544H77.5246V41.8657H73.4083ZM54.2659 41.8657V39.2554L57.4451 38.5191L56.9431 41.8657H54.2659ZM60.3901 41.8657L59.7208 38.4187L63.0674 39.2554V41.8657H60.3901ZM71.0657 41.8657V39.2554L74.2449 38.5191L73.7429 41.8657H71.0657ZM54.2659 19.544H56.9431L57.4451 22.9576L54.2659 22.1209V19.544ZM77.1899 41.8657L76.5206 38.4187L79.8672 39.2554V41.8657H77.1899ZM76.3533 22.991L77.1899 19.544H79.8672V22.1209L76.3533 22.991ZM86.5669 19.544H100.622V22.8906H90.6831V28.7137H98.4472V32.0602H90.6831V38.5191H100.589V41.8657H86.5669V19.544ZM84.2242 19.544H86.9015L87.4035 22.9576L84.2242 22.1209V19.544ZM84.2242 41.8657V39.2554L87.4035 38.5191L86.9015 41.8657H84.2242ZM100.589 36.3438V41.8657H97.0082L98.1795 36.3438H100.589ZM100.622 25.0659H98.0456L96.8743 19.544H100.622V25.0659ZM98.4472 26.5384V32.0602H94.8664L96.0377 26.5384H98.4472ZM98.4472 34.2355H95.8703L94.699 28.7137H98.4472V34.2355ZM123.105 30.6212C123.105 33.3877 122.837 35.6188 122.302 37.3144C121.789 39.0099 120.93 40.237 119.725 40.9956C118.52 41.7541 116.891 42.1334 114.839 42.1334C112.786 42.1334 111.158 41.7541 109.953 40.9956C108.748 40.237 107.878 39.0099 107.343 37.3144C106.829 35.6188 106.573 33.3877 106.573 30.6212H110.689C110.689 32.5622 110.801 34.1574 111.024 35.4068C111.247 36.6562 111.66 37.5932 112.262 38.2179C112.864 38.8203 113.723 39.1215 114.839 39.1215C115.954 39.1215 116.802 38.8203 117.382 38.2179C117.985 37.5932 118.397 36.6562 118.62 35.4068C118.866 34.1574 118.989 32.5622 118.989 30.6212H123.105ZM118.989 19.544H123.105V30.6212H118.989V19.544ZM110.689 30.6212H106.573V19.544H110.689V30.6212ZM104.23 19.544H106.907L107.376 22.9576L104.23 22.1209V19.544ZM116.646 19.544H119.323L119.792 22.9576L116.646 22.1209V19.544ZM109.518 22.991L110.354 19.544H113.032V22.1209L109.518 22.991ZM121.934 22.991L122.77 19.544H125.447V22.1209L121.934 22.991ZM150.248 22.2882C149.11 22.2882 148.162 22.5225 147.403 22.991C146.667 23.4372 146.076 24.0619 145.629 24.8651C145.183 25.6683 144.871 26.5719 144.692 27.5758C144.514 28.5798 144.425 29.6284 144.425 30.7216H140.007C140.007 29.2045 140.186 27.7655 140.543 26.4045C140.9 25.0213 141.48 23.7942 142.283 22.7233C143.086 21.6524 144.135 20.8157 145.429 20.2134C146.745 19.5887 148.351 19.2763 150.248 19.2763C151.564 19.2763 152.758 19.4325 153.829 19.7448C154.899 20.0572 155.848 20.4142 156.673 20.8157L155.703 23.5599C154.788 23.1583 153.895 22.846 153.025 22.6229C152.178 22.3998 151.252 22.2882 150.248 22.2882ZM150.248 39.155C151.252 39.155 152.178 39.0434 153.025 38.8203C153.895 38.5749 154.788 38.2625 155.703 37.8833L156.673 40.6275C155.848 41.0067 154.899 41.3637 153.829 41.6984C152.758 42.0107 151.564 42.1669 150.248 42.1669C148.351 42.1669 146.745 41.8545 145.429 41.2298C144.135 40.6051 143.086 39.7574 142.283 38.6864C141.48 37.6155 140.9 36.3996 140.543 35.0387C140.186 33.6554 140.007 32.2164 140.007 30.7216H144.425C144.425 31.7925 144.514 32.8299 144.692 33.8339C144.871 34.8379 145.183 35.7415 145.629 36.5446C146.076 37.3478 146.667 37.9837 147.403 38.4522C148.162 38.9207 149.11 39.155 150.248 39.155ZM153.393 24.999V20.8157H156.673L155.736 24.999H153.393ZM153.393 36.4442H155.736L156.673 40.6275H153.393V36.4442ZM175.346 31.826H167.214V41.8657H163.097V19.544H167.214V28.4794H175.346V19.544H179.462V41.8657H175.346V31.826ZM160.755 19.544H163.432L163.934 22.9576L160.755 22.1209V19.544ZM173.003 19.544H175.681L176.183 22.9576L173.003 22.1209V19.544ZM166.042 22.991L166.879 19.544H169.556V22.1209L166.042 22.991ZM178.291 22.991L179.128 19.544H181.805V22.1209L178.291 22.991ZM160.755 41.8657V39.2554L163.934 38.5191L163.432 41.8657H160.755ZM173.003 41.8657V39.2554L176.183 38.5191L175.681 41.8657H173.003ZM166.879 41.8657L166.21 38.4187L169.556 39.2554V41.8657H166.879ZM179.128 41.8657L178.458 38.4187L181.805 39.2554V41.8657H179.128ZM204.309 30.6212C204.309 33.3877 204.041 35.6188 203.506 37.3144C202.993 39.0099 202.134 40.237 200.929 40.9956C199.724 41.7541 198.095 42.1334 196.043 42.1334C193.99 42.1334 192.362 41.7541 191.157 40.9956C189.952 40.237 189.082 39.0099 188.547 37.3144C188.033 35.6188 187.777 33.3877 187.777 30.6212H191.893C191.893 32.5622 192.005 34.1574 192.228 35.4068C192.451 36.6562 192.864 37.5932 193.466 38.2179C194.068 38.8203 194.927 39.1215 196.043 39.1215C197.158 39.1215 198.006 38.8203 198.586 38.2179C199.189 37.5932 199.601 36.6562 199.825 35.4068C200.07 34.1574 200.193 32.5622 200.193 30.6212H204.309ZM200.193 19.544H204.309V30.6212H200.193V19.544ZM191.893 30.6212H187.777V19.544H191.893V30.6212ZM185.434 19.544H188.112L188.58 22.9576L185.434 22.1209V19.544ZM197.85 19.544H200.527L200.996 22.9576L197.85 22.1209V19.544ZM190.722 22.991L191.559 19.544H194.236V22.1209L190.722 22.991ZM203.138 22.991L203.974 19.544H206.652V22.1209L203.138 22.991ZM212.589 41.8657V19.544C213.236 19.544 213.816 19.5329 214.329 19.5106C214.842 19.466 215.344 19.4213 215.835 19.3767C216.348 19.3321 216.895 19.2986 217.475 19.2763C218.055 19.2317 218.713 19.2094 219.449 19.2094C221.145 19.2094 222.606 19.4994 223.833 20.0795C225.06 20.6373 225.997 21.4404 226.644 22.489C227.314 23.5153 227.648 24.7201 227.648 26.1033C227.648 27.4866 227.314 28.6913 226.644 29.7176C225.997 30.7216 225.06 31.5136 223.833 32.0937C222.606 32.6515 221.134 32.9303 219.416 32.9303C218.59 32.9303 217.921 32.9192 217.408 32.8969C216.917 32.8523 216.672 32.8299 216.672 32.8299V41.8657H212.589ZM223.499 41.8657L218.278 31.759L222.327 31.5248L227.916 41.8657H223.499ZM219.449 29.9184C220.654 29.9184 221.58 29.5838 222.227 28.9145C222.896 28.2451 223.231 27.3193 223.231 26.1368C223.231 24.9097 222.896 23.9615 222.227 23.2922C221.58 22.6006 220.654 22.2548 219.449 22.2548C218.624 22.2548 217.955 22.2771 217.441 22.3217C216.951 22.344 216.705 22.3552 216.705 22.3552V29.818C216.705 29.818 216.951 29.8403 217.441 29.885C217.955 29.9073 218.624 29.9184 219.449 29.9184ZM210.246 41.8657V39.2554L213.425 38.5191L212.924 41.8657H210.246ZM216.337 41.8657L215.668 38.4187L219.014 39.2554V41.8657H216.337ZM226.243 41.8657L225.574 38.4187L228.92 39.2554V41.8657H226.243ZM210.246 19.544H212.924L213.425 22.9576L210.246 22.1209V19.544ZM234.834 41.8657V19.544C235.481 19.544 236.062 19.5329 236.575 19.5106C237.088 19.466 237.59 19.4213 238.081 19.3767C238.594 19.3321 239.14 19.2986 239.72 19.2763C240.3 19.2317 240.959 19.2094 241.695 19.2094C243.39 19.2094 244.852 19.4994 246.079 20.0795C247.306 20.6373 248.243 21.4404 248.89 22.489C249.559 23.5153 249.894 24.7201 249.894 26.1033C249.894 27.4866 249.559 28.6913 248.89 29.7176C248.243 30.7216 247.306 31.5136 246.079 32.0937C244.852 32.6515 243.379 32.9303 241.661 32.9303C240.836 32.9303 240.167 32.9192 239.653 32.8969C239.163 32.8523 238.917 32.8299 238.917 32.8299V41.8657H234.834ZM245.744 41.8657L240.524 31.759L244.573 31.5248L250.162 41.8657H245.744ZM241.695 29.9184C242.9 29.9184 243.826 29.5838 244.473 28.9145C245.142 28.2451 245.477 27.3193 245.477 26.1368C245.477 24.9097 245.142 23.9615 244.473 23.2922C243.826 22.6006 242.9 22.2548 241.695 22.2548C240.869 22.2548 240.2 22.2771 239.687 22.3217C239.196 22.344 238.951 22.3552 238.951 22.3552V29.818C238.951 29.818 239.196 29.8403 239.687 29.885C240.2 29.9073 240.869 29.9184 241.695 29.9184ZM232.492 41.8657V39.2554L235.671 38.5191L235.169 41.8657H232.492ZM238.583 41.8657L237.913 38.4187L241.26 39.2554V41.8657H238.583ZM248.488 41.8657L247.819 38.4187L251.166 39.2554V41.8657H248.488ZM232.492 19.544H235.169L235.671 22.9576L232.492 22.1209V19.544ZM255.239 41.8657L262.2 19.544H266.484L273.445 41.8657H269.128L263.338 20.1799H265.346L259.59 41.8657H255.239ZM259.121 36.2434V33.2315H269.563V36.2434H259.121ZM253.733 41.8657V39.2554L256.913 38.5191L256.411 41.8657H253.733ZM259.255 41.8657L258.586 38.4187L261.933 39.2554V41.8657H259.255ZM266.785 41.8657V39.2554L269.964 38.5191L269.462 41.8657H266.785ZM272.273 41.8657L271.604 38.4187L274.951 39.2554V41.8657H272.273ZM259.69 19.544H262.368L262.87 22.9576L259.69 22.1209V19.544ZM293.484 35.0387C293.484 36.3327 293.194 37.5263 292.614 38.6195C292.033 39.7127 291.119 40.5828 289.869 41.2298C288.62 41.8768 286.991 42.2003 284.983 42.2003V39.0211C286.233 39.0211 287.226 38.7199 287.962 38.1175C288.698 37.4928 289.066 36.5781 289.066 35.3733C289.066 34.6594 288.877 34.0793 288.497 33.6331C288.118 33.1869 287.571 32.8299 286.857 32.5622C286.166 32.2722 285.318 32.0268 284.314 31.826C282.485 31.4244 281.079 30.6881 280.097 29.6172C279.116 28.524 278.625 27.1408 278.625 25.4675C278.625 24.4858 278.803 23.6157 279.16 22.8572C279.54 22.0763 280.042 21.4181 280.666 20.8827C281.291 20.3472 281.971 19.9456 282.708 19.6779C283.466 19.3879 284.225 19.2429 284.983 19.2429L285.653 22.2548C284.716 22.2548 283.968 22.5337 283.41 23.0914C282.853 23.6492 282.574 24.3296 282.574 25.1328C282.574 25.646 282.674 26.1256 282.875 26.5719C283.076 27.0181 283.399 27.3862 283.846 27.6762C284.292 27.9663 284.894 28.1782 285.653 28.3121C288.375 28.7583 290.36 29.5503 291.61 30.6881C292.859 31.8037 293.484 33.2538 293.484 35.0387ZM285.653 22.2548L284.983 19.2429C286.3 19.2429 287.493 19.399 288.564 19.7114C289.635 20.0237 290.583 20.3807 291.409 20.7823L290.438 23.5265C289.524 23.1249 288.698 22.8125 287.962 22.5894C287.248 22.3663 286.478 22.2548 285.653 22.2548ZM284.983 39.0211V42.2003C283.667 42.2003 282.473 42.033 281.403 41.6984C280.354 41.3637 279.406 41.0067 278.558 40.6275L279.528 37.7159C280.443 38.0952 281.324 38.4076 282.172 38.653C283.042 38.8984 283.979 39.0211 284.983 39.0211ZM281.804 36.4442V40.6275H278.558L279.395 36.4442H281.804ZM288.129 24.9655V20.7823H291.409L290.472 24.9655H288.129Z" fill="url(#paint0_linear_454_86022)"/>
<g filter="url(#filter0_i_454_86022)">
<path d="M19.9118 1.20124C20.2692 0.933294 20.7966 0.553378 21.084 0.356921C21.3714 0.160465 21.6244 0 21.6464 0C21.6684 0 21.6179 0.162964 21.5339 0.36242C21.4499 0.561876 21.3025 0.961288 21.207 1.24972C21.111 1.53866 20.978 1.98856 20.9115 2.2495C20.8451 2.51095 20.7431 3.00584 20.6841 3.34926C20.6096 3.78617 20.5696 4.29005 20.5506 5.02389C20.5331 5.69125 20.5456 6.29211 20.5846 6.67353C20.6181 7.00346 20.6866 7.49835 20.7366 7.77329C20.7866 8.04823 20.8885 8.49813 20.963 8.77307C21.0375 9.04801 21.1945 9.5429 21.3125 9.87282C21.4304 10.2028 21.5989 10.6417 21.6879 10.8476C21.7764 11.0541 22.0128 11.56 22.2138 11.9724C22.4147 12.3848 22.8731 13.2731 23.232 13.9469C23.5915 14.6208 24.0124 15.4531 24.1673 15.7965C24.3228 16.1404 24.5802 16.7588 24.7397 17.1712C24.8992 17.5836 25.1231 18.247 25.2371 18.6459C25.3511 19.0448 25.5075 19.6522 25.585 19.9956C25.663 20.3395 25.772 20.9019 25.828 21.2453C25.884 21.5892 25.9549 22.1286 25.9854 22.4451C26.0164 22.7615 26.0684 23.3449 26.1604 24.4641L26.4148 24.0417C26.5548 23.8098 26.7438 23.4848 26.8342 23.3199C26.9247 23.1549 27.0832 22.8285 27.1862 22.595C27.2886 22.3616 27.4446 21.9677 27.5321 21.7202C27.6201 21.4728 27.7785 20.9329 27.8845 20.5205C27.9905 20.1081 28.1225 19.4667 28.1779 19.0958C28.2334 18.7244 28.3039 18.0835 28.3349 17.6711C28.3764 17.1207 28.3769 16.6883 28.3364 16.0465C28.3064 15.5656 28.2514 14.9582 28.2149 14.6968C28.1779 14.4353 28.1589 14.2104 28.1719 14.1969C28.1854 14.1834 28.2894 14.2809 28.4029 14.4138C28.5169 14.5468 28.7498 14.8502 28.9208 15.0887C29.0917 15.3266 29.4332 15.859 29.6796 16.2714C29.9261 16.6838 30.338 17.4487 30.5954 17.971C30.8524 18.4934 31.2008 19.2698 31.3697 19.6957C31.5387 20.1216 31.8031 20.8414 31.9576 21.2953C32.1116 21.7492 32.337 22.48 32.4585 22.9199C32.5795 23.3598 32.7464 24.0237 32.8299 24.3946C32.9129 24.7655 33.0374 25.4184 33.1069 25.8443C33.1763 26.2702 33.2698 26.9231 33.3148 27.294C33.3691 27.7439 33.4043 28.552 33.4203 29.7184C33.4353 30.8232 33.4233 31.6985 33.3878 32.0929C33.3563 32.4368 33.2738 33.0887 33.2033 33.5426C33.1334 33.9965 32.9779 34.7498 32.8579 35.2172C32.7379 35.6846 32.5275 36.393 32.3905 36.7919C32.2535 37.1908 32.0376 37.7532 31.9106 38.0416C31.7836 38.33 31.5317 38.8479 31.3507 39.1914C31.1698 39.5353 30.8838 40.0372 30.7154 40.3066C30.5474 40.5766 30.163 41.1274 29.8611 41.5313C29.4622 42.0662 29.0542 42.5251 28.3614 43.22C27.8385 43.7444 27.1627 44.3692 26.8602 44.6082C26.5578 44.8471 26.0349 45.233 25.698 45.466C25.3611 45.6994 25.0741 45.8789 25.0606 45.8649C25.0466 45.8509 25.1131 45.7104 25.2071 45.5525C25.3016 45.3945 25.5355 44.9386 25.7275 44.5402C25.9189 44.1413 26.1804 43.5114 26.3084 43.1405C26.4358 42.7696 26.5973 42.2407 26.6668 41.9657C26.7363 41.6908 26.8457 41.1509 26.9107 40.766C26.9752 40.3811 27.0557 39.7402 27.0887 39.3413C27.1262 38.8939 27.1392 38.1956 27.1222 37.5167C27.1042 36.7869 27.0597 36.1815 26.9897 35.7171C26.9322 35.3322 26.8172 34.7133 26.7343 34.3424C26.6513 33.9715 26.5558 33.5586 26.4603 33.1842L26.0109 33.851C25.764 34.2175 25.3946 34.7308 25.1906 34.9923C24.9871 35.2537 24.5792 35.7371 24.2843 36.067C23.9899 36.397 23.549 36.8474 23.305 37.0683C23.0611 37.2888 22.7881 37.5307 22.6987 37.6057C22.6092 37.6802 22.5137 37.7417 22.4862 37.7417C22.4562 37.7417 22.4652 37.6472 22.5097 37.5042C22.5497 37.3738 22.6487 36.9743 22.7296 36.6169C22.8106 36.2595 22.9226 35.6746 22.9791 35.3172C23.0356 34.9598 23.1086 34.3749 23.1411 34.0175C23.1785 33.6036 23.1895 32.9232 23.171 32.1429C23.1546 31.4311 23.1106 30.7192 23.0661 30.4433C23.0236 30.1818 22.9451 29.7549 22.8911 29.4935C22.8371 29.2321 22.7106 28.7487 22.6102 28.4187C22.5097 28.0888 22.3052 27.5489 22.1558 27.219C22.0063 26.8891 21.7694 26.4167 21.6289 26.1692C21.4889 25.9218 21.2605 25.5619 21.1215 25.3694C20.983 25.1769 20.7081 24.828 20.5111 24.5946C20.3137 24.3611 19.9972 24.0287 19.8073 23.8567C19.6173 23.6848 19.4584 23.5498 19.4539 23.5568C19.4494 23.5638 19.4684 23.9407 19.4959 24.3946C19.5234 24.8485 19.5348 25.8043 19.5214 26.5192C19.5064 27.3245 19.4654 28.0468 19.4139 28.4187C19.3684 28.7487 19.2744 29.2885 19.2059 29.6185C19.1374 29.9484 18.9615 30.5783 18.8155 31.0182C18.6695 31.4581 18.4181 32.1104 18.2566 32.4678C18.0952 32.8253 17.8267 33.3541 17.6603 33.6426C17.4938 33.931 17.2144 34.3809 17.0389 34.6424C16.8639 34.9038 16.5845 35.2972 16.418 35.5172C16.2516 35.7371 15.9481 36.1085 15.7442 36.342C15.5397 36.5754 15.2128 36.9319 15.0178 37.1333C14.8224 37.3343 14.4155 37.7187 14.113 37.9871C13.8106 38.2556 13.3607 38.631 13.1133 38.8219C12.8658 39.0124 12.4159 39.3478 12.1135 39.5668C11.8111 39.7852 11.3746 40.1446 11.1437 40.3651C10.9127 40.5856 10.6063 40.9235 10.4633 41.1159C10.3204 41.3084 10.1179 41.6348 10.0139 41.8408C9.90997 42.0472 9.7825 42.3397 9.73051 42.4906C9.67802 42.6416 9.60104 42.9115 9.55905 43.0905C9.51656 43.2695 9.46957 43.6629 9.45407 43.9653C9.43857 44.2677 9.45107 44.7066 9.48156 44.9401C9.51256 45.1735 9.60554 45.5954 9.68802 45.8774C9.771 46.1593 9.95146 46.6147 10.0889 46.8897C10.2264 47.1646 10.3274 47.4006 10.3139 47.4145C10.2999 47.4285 10.1259 47.3581 9.92647 47.2586C9.72701 47.1591 9.22662 46.8857 8.81421 46.6507C8.4018 46.4153 7.74945 46.0144 7.36453 45.7589C6.97962 45.504 6.42524 45.1086 6.1323 44.8801C5.83987 44.6522 5.33348 44.2267 5.00755 43.9353C4.68162 43.6439 4.19923 43.1715 3.93579 42.8855C3.67235 42.5996 3.26943 42.1292 3.04148 41.8408C2.81304 41.5523 2.46311 41.0684 2.26316 40.766C2.0637 40.4636 1.76427 39.9577 1.5978 39.6413C1.43134 39.3248 1.19639 38.8299 1.07492 38.5415C0.953945 38.2531 0.774984 37.7692 0.677006 37.4667C0.579527 37.1643 0.451555 36.7144 0.393068 36.467C0.334581 36.2195 0.243101 35.7471 0.189613 35.4172C0.136125 35.0873 0.0666403 34.4799 0.0346473 34.0675C0.00215452 33.6386 -0.00934295 32.9647 0.00815319 32.4928C0.0246496 32.0389 0.0716392 31.3871 0.11263 31.0432C0.153621 30.6997 0.243601 30.1259 0.313586 29.7684C0.383071 29.411 0.486548 28.9501 0.542535 28.7437C0.599023 28.5377 0.721496 28.1323 0.814975 27.8439C0.908455 27.5554 1.07842 27.094 1.19289 26.8191C1.30687 26.5441 1.43784 26.2342 1.48333 26.1302C1.52882 26.0263 1.58281 25.9418 1.6033 25.9428C1.6238 25.9438 1.6293 26.2647 1.6148 26.6566C1.6008 27.0485 1.6128 27.6164 1.64129 27.9188C1.67029 28.2213 1.74877 28.7612 1.81575 29.1186C1.88274 29.476 2.02971 30.0384 2.14268 30.3683C2.25516 30.6982 2.47911 31.2381 2.63957 31.568C2.80004 31.898 3.06698 32.3704 3.23194 32.6178C3.39741 32.8653 3.65835 33.2197 3.81132 33.4051C3.96478 33.5906 4.10025 33.7371 4.11275 33.7301C4.12525 33.7231 4.09225 33.4366 4.03876 33.0927C3.98578 32.7493 3.90329 32.1419 3.85531 31.743C3.78982 31.1926 3.76832 30.6088 3.76732 29.3185C3.76582 27.9808 3.78432 27.4699 3.85431 26.9191C3.90279 26.5341 3.98878 25.9383 4.04476 25.5944C4.10125 25.2509 4.20073 24.6996 4.26621 24.3696C4.3317 24.0397 4.47767 23.3763 4.59114 22.895C4.70412 22.4141 4.85009 21.7617 4.91457 21.4453C4.97956 21.1288 5.07104 20.5895 5.11803 20.2455C5.16852 19.8746 5.20301 19.2957 5.20301 18.8209C5.20301 18.3185 5.17351 17.8446 5.12303 17.5461C5.07904 17.2847 4.98806 16.8913 4.92107 16.6713C4.85408 16.4514 4.76011 16.1814 4.62564 15.8715L4.7701 15.9125C4.85009 15.935 5.11753 16.049 5.36497 16.1654C5.61242 16.2819 5.96084 16.4764 6.1398 16.5978C6.31826 16.7193 6.63169 16.9768 6.83515 17.1697C7.0391 17.3632 7.33204 17.6901 7.486 17.8961C7.63947 18.1025 7.87042 18.4734 7.99839 18.7209C8.12586 18.9683 8.30032 19.3452 8.38481 19.5582C8.46979 19.7711 8.61676 20.2435 8.71173 20.608C8.80671 20.9724 8.92919 21.5742 8.98417 21.9452C9.03916 22.3161 9.10765 22.845 9.13614 23.1199C9.16514 23.3948 9.24512 24.2946 9.3141 25.1195C9.38309 25.9443 9.43957 26.6361 9.43957 26.6566C9.43907 26.6771 9.46157 26.6941 9.48906 26.6941C9.51656 26.6941 9.789 26.4522 10.0944 26.1567C10.3999 25.8613 10.7908 25.4279 10.9632 25.1944C11.1352 24.961 11.3801 24.5896 11.5066 24.3696C11.6336 24.1497 11.8151 23.7783 11.91 23.5448C12.005 23.3114 12.141 22.9174 12.2125 22.67C12.2839 22.4226 12.3774 22.0176 12.4204 21.7702C12.4669 21.5048 12.5094 20.8794 12.5239 20.2455C12.5414 19.4872 12.5244 18.8688 12.4664 18.146C12.4209 17.5826 12.3509 16.6938 12.3114 16.1714C12.2715 15.649 12.239 14.7268 12.239 14.1219C12.2385 13.452 12.268 12.7682 12.3144 12.3723C12.3564 12.0149 12.4489 11.4635 12.5204 11.1475C12.5919 10.8316 12.7493 10.2802 12.8713 9.92281C12.9928 9.56539 13.2912 8.86804 13.5342 8.37315C13.7931 7.84577 14.17 7.18342 14.4445 6.77251C14.7019 6.38709 15.1363 5.79122 15.4093 5.4478C15.6827 5.10487 16.3685 4.36204 16.9339 3.79716C17.4998 3.23229 18.2546 2.52644 18.6121 2.22951C18.9695 1.93207 19.5543 1.46918 19.9118 1.20124Z" fill="#F4E9D8"/>
</g>
<defs>
<filter id="filter0_i_454_86022" x="0" y="0" width="33.4266" height="50.5903" filterUnits="userSpaceOnUse" color-interpolation-filters="sRGB">
<feFlood flood-opacity="0" result="BackgroundImageFix"/>
<feBlend mode="normal" in="SourceGraphic" in2="BackgroundImageFix" result="shape"/>
<feColorMatrix in="SourceAlpha" type="matrix" values="0 0 0 0 0 0 0 0 0 0 0 0 0 0 0 0 0 0 127 0" result="hardAlpha"/>
<feOffset dy="3.17398"/>
<feGaussianBlur stdDeviation="1.58699"/>
<feComposite in2="hardAlpha" operator="arithmetic" k2="-1" k3="1"/>
<feColorMatrix type="matrix" values="0 0 0 0 0 0 0 0 0 0 0 0 0 0 0 0 0 0 0.8 0"/>
<feBlend mode="normal" in2="shape" result="effect1_innerShadow_454_86022"/>
</filter>
<linearGradient id="paint0_linear_454_86022" x1="185.77" y1="17.6657" x2="186.11" y2="48.4671" gradientUnits="userSpaceOnUse">
<stop stop-color="white"/>
<stop offset="1" stop-color="#999999"/>
</linearGradient>
</defs>
</svg>
