<svg width="358" height="166" viewBox="0 0 358 166" fill="none" xmlns="http://www.w3.org/2000/svg">
<path d="M18.8734 116.91L8.63831 84.089H13.7066L20.7925 107.61L27.8291 84.089H32.9466L22.7115 116.91H18.8734ZM5.39064 116.91V84.089H11.4431V116.91H5.39064ZM30.0926 116.91V84.089H36.1451V116.91H30.0926ZM1.94614 116.91V113.072L6.62082 111.989L5.88271 116.91H1.94614ZM10.951 116.91L9.9669 111.842L14.8876 113.072V116.91H10.951ZM26.6481 116.91V113.072L31.3228 111.989L30.5847 116.91H26.6481ZM1.94614 84.089H5.88271L6.62082 89.1081L1.94614 87.878V84.089ZM35.653 116.91L34.6689 111.842L39.5896 113.072V116.91H35.653ZM34.4228 89.1573L35.653 84.089H39.5896V87.878L34.4228 89.1573ZM49.4406 84.089H70.1076V89.0097H55.4931V97.5718H66.9092V102.492H55.4931V111.989H70.0584V116.91H49.4406V84.089ZM45.9961 84.089H49.9327L50.6708 89.1081L45.9961 87.878V84.089ZM45.9961 116.91V113.072L50.6708 111.989L49.9327 116.91H45.9961ZM70.0584 108.791V116.91H64.7932L66.5155 108.791H70.0584ZM70.1076 92.2082H66.3187L64.5964 84.089H70.1076V92.2082ZM66.9092 94.3733V102.492H61.644L63.3662 94.3733H66.9092ZM66.9092 105.691H63.1202L61.398 97.5718H66.9092V105.691ZM103.165 100.377C103.165 104.444 102.772 107.725 101.984 110.218C101.23 112.711 99.9667 114.515 98.1953 115.631C96.4238 116.746 94.0291 117.304 91.011 117.304C87.993 117.304 85.5982 116.746 83.8268 115.631C82.0553 114.515 80.7759 112.711 79.9886 110.218C79.2341 107.725 78.8569 104.444 78.8569 100.377H84.9093C84.9093 103.231 85.0734 105.576 85.4014 107.413C85.7295 109.25 86.3364 110.628 87.2221 111.547C88.1078 112.432 89.3708 112.875 91.011 112.875C92.6513 112.875 93.8978 112.432 94.7508 111.547C95.6365 110.628 96.2434 109.25 96.5714 107.413C96.9323 105.576 97.1127 103.231 97.1127 100.377H103.165ZM97.1127 84.089H103.165V100.377H97.1127V84.089ZM84.9093 100.377H78.8569V84.089H84.9093V100.377ZM75.4124 84.089H79.3489L80.0378 89.1081L75.4124 87.878V84.089ZM93.6682 84.089H97.6048L98.2937 89.1081L93.6682 87.878V84.089ZM83.1871 89.1573L84.4173 84.089H88.3538V87.878L83.1871 89.1573ZM101.443 89.1573L102.673 84.089H106.61V87.878L101.443 89.1573ZM143.075 88.124C141.402 88.124 140.008 88.4684 138.893 89.1573C137.81 89.8134 136.941 90.732 136.285 91.9129C135.629 93.0939 135.169 94.4225 134.907 95.8987C134.644 97.3749 134.513 98.9168 134.513 100.524H128.018C128.018 98.2935 128.28 96.1776 128.805 94.1765C129.33 92.1426 130.183 90.3383 131.364 88.7637C132.545 87.1891 134.087 85.9589 135.989 85.0731C137.925 84.1546 140.287 83.6953 143.075 83.6953C145.011 83.6953 146.766 83.925 148.34 84.3842C149.915 84.8435 151.309 85.3684 152.523 85.9589L151.096 89.9939C149.751 89.4034 148.439 88.9441 147.159 88.6161C145.913 88.288 144.551 88.124 143.075 88.124ZM143.075 112.924C144.551 112.924 145.913 112.76 147.159 112.432C148.439 112.071 149.751 111.612 151.096 111.055L152.523 115.089C151.309 115.647 149.915 116.172 148.34 116.664C146.766 117.123 145.011 117.353 143.075 117.353C140.287 117.353 137.925 116.894 135.989 115.975C134.087 115.057 132.545 113.81 131.364 112.235C130.183 110.661 129.33 108.873 128.805 106.872C128.28 104.838 128.018 102.722 128.018 100.524H134.513C134.513 102.099 134.644 103.624 134.907 105.1C135.169 106.577 135.629 107.905 136.285 109.086C136.941 110.267 137.81 111.202 138.893 111.891C140.008 112.58 141.402 112.924 143.075 112.924ZM147.701 92.1098V85.9589H152.523L151.145 92.1098H147.701ZM147.701 108.939H151.145L152.523 115.089H147.701V108.939ZM179.979 102.148H168.022V116.91H161.969V84.089H168.022V97.2273H179.979V84.089H186.032V116.91H179.979V102.148ZM158.525 84.089H162.461L163.199 89.1081L158.525 87.878V84.089ZM176.535 84.089H180.471L181.209 89.1081L176.535 87.878V84.089ZM166.299 89.1573L167.53 84.089H171.466V87.878L166.299 89.1573ZM184.309 89.1573L185.539 84.089H189.476V87.878L184.309 89.1573ZM158.525 116.91V113.072L163.199 111.989L162.461 116.91H158.525ZM176.535 116.91V113.072L181.209 111.989L180.471 116.91H176.535ZM167.53 116.91L166.545 111.842L171.466 113.072V116.91H167.53ZM185.539 116.91L184.555 111.842L189.476 113.072V116.91H185.539ZM222.566 100.377C222.566 104.444 222.172 107.725 221.385 110.218C220.63 112.711 219.367 114.515 217.596 115.631C215.824 116.746 213.429 117.304 210.411 117.304C207.393 117.304 204.999 116.746 203.227 115.631C201.456 114.515 200.176 112.711 199.389 110.218C198.634 107.725 198.257 104.444 198.257 100.377H204.31C204.31 103.231 204.474 105.576 204.802 107.413C205.13 109.25 205.737 110.628 206.622 111.547C207.508 112.432 208.771 112.875 210.411 112.875C212.052 112.875 213.298 112.432 214.151 111.547C215.037 110.628 215.644 109.25 215.972 107.413C216.333 105.576 216.513 103.231 216.513 100.377H222.566ZM216.513 84.089H222.566V100.377H216.513V84.089ZM204.31 100.377H198.257V84.089H204.31V100.377ZM194.813 84.089H198.749L199.438 89.1081L194.813 87.878V84.089ZM213.069 84.089H217.005L217.694 89.1081L213.069 87.878V84.089ZM202.587 89.1573L203.818 84.089H207.754V87.878L202.587 89.1573ZM220.843 89.1573L222.073 84.089H226.01V87.878L220.843 89.1573ZM234.74 116.91V84.089C235.691 84.089 236.544 84.0726 237.299 84.0398C238.053 83.9742 238.791 83.9086 239.513 83.843C240.268 83.7774 241.071 83.7282 241.924 83.6953C242.777 83.6297 243.745 83.5969 244.827 83.5969C247.321 83.5969 249.469 84.0234 251.274 84.8763C253.078 85.6964 254.456 86.8774 255.407 88.4192C256.391 89.9282 256.883 91.6997 256.883 93.7336C256.883 95.7675 256.391 97.539 255.407 99.048C254.456 100.524 253.078 101.689 251.274 102.542C249.469 103.362 247.304 103.772 244.778 103.772C243.565 103.772 242.58 103.755 241.826 103.723C241.104 103.657 240.743 103.624 240.743 103.624V116.91H234.74ZM250.782 116.91L243.105 102.05L249.059 101.705L257.277 116.91H250.782ZM244.827 99.3432C246.599 99.3432 247.96 98.8511 248.912 97.867C249.896 96.8829 250.388 95.5215 250.388 93.7828C250.388 91.9785 249.896 90.5843 248.912 89.6002C247.96 88.5833 246.599 88.0748 244.827 88.0748C243.614 88.0748 242.63 88.1076 241.875 88.1732C241.153 88.206 240.793 88.2224 240.793 88.2224V99.1956C240.793 99.1956 241.153 99.2284 241.875 99.294C242.63 99.3268 243.614 99.3432 244.827 99.3432ZM231.296 116.91V113.072L235.97 111.989L235.232 116.91H231.296ZM240.251 116.91L239.267 111.842L244.188 113.072V116.91H240.251ZM254.817 116.91L253.832 111.842L258.753 113.072V116.91H254.817ZM231.296 84.089H235.232L235.97 89.1081L231.296 87.878V84.089ZM267.449 116.91V84.089C268.401 84.089 269.254 84.0726 270.008 84.0398C270.763 83.9742 271.501 83.9086 272.222 83.843C272.977 83.7774 273.781 83.7282 274.634 83.6953C275.487 83.6297 276.454 83.5969 277.537 83.5969C280.03 83.5969 282.179 84.0234 283.983 84.8763C285.787 85.6964 287.165 86.8774 288.116 88.4192C289.1 89.9282 289.593 91.6997 289.593 93.7336C289.593 95.7675 289.1 97.539 288.116 99.048C287.165 100.524 285.787 101.689 283.983 102.542C282.179 103.362 280.014 103.772 277.488 103.772C276.274 103.772 275.29 103.755 274.535 103.723C273.813 103.657 273.453 103.624 273.453 103.624V116.91H267.449ZM283.491 116.91L275.815 102.05L281.769 101.705L289.986 116.91H283.491ZM277.537 99.3432C279.308 99.3432 280.67 98.8511 281.621 97.867C282.605 96.8829 283.097 95.5215 283.097 93.7828C283.097 91.9785 282.605 90.5843 281.621 89.6002C280.67 88.5833 279.308 88.0748 277.537 88.0748C276.323 88.0748 275.339 88.1076 274.584 88.1732C273.863 88.206 273.502 88.2224 273.502 88.2224V99.1956C273.502 99.1956 273.863 99.2284 274.584 99.294C275.339 99.3268 276.323 99.3432 277.537 99.3432ZM264.005 116.91V113.072L268.68 111.989L267.941 116.91H264.005ZM272.961 116.91L271.976 111.842L276.897 113.072V116.91H272.961ZM287.526 116.91L286.542 111.842L291.462 113.072V116.91H287.526ZM264.005 84.089H267.941L268.68 89.1081L264.005 87.878V84.089ZM297.452 116.91L307.687 84.089H313.986L324.221 116.91H317.873L309.36 85.0239H312.313L303.849 116.91H297.452ZM303.16 108.643V104.215H318.513V108.643H303.16ZM295.238 116.91V113.072L299.913 111.989L299.174 116.91H295.238ZM303.357 116.91L302.373 111.842L307.294 113.072V116.91H303.357ZM314.429 116.91V113.072L319.103 111.989L318.365 116.91H314.429ZM322.499 116.91L321.515 111.842L326.435 113.072V116.91H322.499ZM303.997 84.089H307.933L308.671 89.1081L303.997 87.878V84.089ZM353.686 106.872C353.686 108.775 353.259 110.53 352.406 112.137C351.553 113.744 350.208 115.024 348.371 115.975C346.534 116.927 344.139 117.402 341.187 117.402V112.728C343.024 112.728 344.484 112.285 345.566 111.399C346.649 110.48 347.19 109.135 347.19 107.364C347.19 106.314 346.911 105.461 346.354 104.805C345.796 104.149 344.992 103.624 343.943 103.231C342.926 102.804 341.679 102.443 340.203 102.148C337.513 101.558 335.446 100.475 334.003 98.9003C332.559 97.2929 331.838 95.259 331.838 92.7987C331.838 91.3553 332.1 90.0759 332.625 88.9605C333.183 87.8123 333.921 86.8446 334.839 86.0573C335.758 85.27 336.758 84.6795 337.841 84.2858C338.956 83.8594 340.072 83.6461 341.187 83.6461L342.171 88.0748C340.793 88.0748 339.694 88.4848 338.874 89.305C338.054 90.1251 337.644 91.1256 337.644 92.3066C337.644 93.0611 337.792 93.7664 338.087 94.4225C338.382 95.0786 338.858 95.6199 339.514 96.0463C340.17 96.4728 341.056 96.7844 342.171 96.9813C346.173 97.6374 349.093 98.8019 350.93 100.475C352.767 102.115 353.686 104.248 353.686 106.872ZM342.171 88.0748L341.187 83.6461C343.122 83.6461 344.877 83.8758 346.452 84.335C348.027 84.7943 349.421 85.3192 350.635 85.9097L349.208 89.9447C347.863 89.3542 346.649 88.8949 345.566 88.5669C344.517 88.2388 343.385 88.0748 342.171 88.0748ZM341.187 112.728V117.402C339.251 117.402 337.496 117.156 335.922 116.664C334.38 116.172 332.986 115.647 331.739 115.089L333.166 110.808C334.511 111.366 335.807 111.825 337.054 112.186C338.333 112.547 339.711 112.728 341.187 112.728ZM336.512 108.939V115.089H331.739L332.969 108.939H336.512ZM345.812 92.0606V85.9097H350.635L349.257 92.0606H345.812Z" fill="url(#paint0_linear_482_114393)"/>
<g filter="url(#filter0_i_482_114393)">
<path d="M183.183 1.76626C183.708 1.37229 184.484 0.813672 184.906 0.524808C185.329 0.235943 185.701 0 185.733 0C185.765 0 185.691 0.239618 185.568 0.532893C185.444 0.826168 185.227 1.41345 185.087 1.83756C184.946 2.26241 184.75 2.92393 184.653 3.30761C184.555 3.69203 184.405 4.4197 184.318 4.92467C184.209 5.56708 184.15 6.30798 184.122 7.387C184.096 8.36826 184.115 9.25176 184.172 9.81258C184.221 10.2977 184.322 11.0254 184.395 11.4296C184.469 11.8339 184.619 12.4954 184.728 12.8997C184.838 13.3039 185.069 14.0316 185.242 14.5167C185.416 15.0019 185.663 15.6472 185.794 15.95C185.924 16.2536 186.272 16.9974 186.567 17.6038C186.863 18.2102 187.537 19.5164 188.065 20.5072C188.593 21.498 189.212 22.7218 189.44 23.2268C189.668 23.7325 190.047 24.6417 190.281 25.2481C190.516 25.8545 190.845 26.8299 191.013 27.4164C191.18 28.003 191.41 28.896 191.524 29.401C191.639 29.9067 191.799 30.7336 191.882 31.2385C191.964 31.7442 192.068 32.5373 192.113 33.0026C192.159 33.4679 192.235 34.3257 192.37 35.9714L192.745 35.3503C192.95 35.0092 193.228 34.5315 193.361 34.2889C193.494 34.0463 193.727 33.5664 193.879 33.2231C194.029 32.8799 194.259 32.3007 194.387 31.9368C194.517 31.573 194.75 30.7792 194.905 30.1728C195.061 29.5664 195.255 28.6233 195.337 28.0779C195.419 27.5318 195.522 26.5895 195.568 25.9831C195.629 25.1739 195.629 24.5381 195.57 23.5943C195.526 22.8872 195.445 21.9941 195.391 21.6097C195.337 21.2253 195.309 20.8945 195.328 20.8747C195.348 20.8549 195.501 20.9982 195.668 21.1937C195.835 21.3892 196.178 21.8354 196.429 22.186C196.681 22.5359 197.183 23.3187 197.545 23.9251C197.907 24.5315 198.513 25.656 198.892 26.4241C199.269 27.1922 199.782 28.3337 200.03 28.96C200.279 29.5862 200.667 30.6447 200.894 31.3121C201.121 31.9795 201.452 33.0541 201.631 33.7009C201.809 34.3477 202.054 35.3238 202.177 35.8692C202.299 36.4146 202.482 37.3745 202.584 38.0008C202.686 38.627 202.824 39.587 202.89 40.1323C202.97 40.7939 203.022 41.9822 203.045 43.6972C203.067 45.3216 203.05 46.6087 202.997 47.1886C202.951 47.6943 202.83 48.6528 202.726 49.3202C202.623 49.9876 202.395 51.0952 202.218 51.7825C202.042 52.4697 201.732 53.5113 201.531 54.0978C201.33 54.6844 201.012 55.5113 200.825 55.9354C200.639 56.3595 200.268 57.121 200.002 57.6259C199.736 58.1316 199.316 58.8696 199.068 59.2658C198.821 59.6627 198.256 60.4727 197.812 61.0666C197.225 61.8531 196.625 62.5278 195.607 63.5495C194.838 64.3205 193.844 65.2393 193.399 65.5907C192.955 65.942 192.186 66.5094 191.69 66.852C191.195 67.1952 190.773 67.4591 190.753 67.4385C190.733 67.4179 190.831 67.2114 190.969 66.9791C191.108 66.7469 191.452 66.0765 191.734 65.4907C192.015 64.9042 192.4 63.978 192.588 63.4326C192.775 62.8872 193.013 62.1096 193.115 61.7053C193.217 61.3011 193.378 60.5072 193.474 59.9413C193.568 59.3753 193.687 58.433 193.735 57.8464C193.79 57.1886 193.81 56.1618 193.785 55.1636C193.758 54.0905 193.693 53.2004 193.59 52.5175C193.505 51.9515 193.336 51.0416 193.214 50.4962C193.092 49.9508 192.952 49.3437 192.811 48.7931L192.151 49.7737C191.788 50.3124 191.244 51.0673 190.944 51.4517C190.645 51.8361 190.046 52.5469 189.612 53.032C189.179 53.5172 188.531 54.1794 188.172 54.5043C187.813 54.8284 187.412 55.1842 187.28 55.2944C187.149 55.404 187.008 55.4944 186.968 55.4944C186.924 55.4944 186.937 55.3554 187.002 55.1452C187.061 54.9534 187.207 54.3661 187.326 53.8406C187.445 53.315 187.61 52.455 187.693 51.9295C187.776 51.404 187.883 50.544 187.931 50.0184C187.986 49.4098 188.002 48.4095 187.975 47.2621C187.951 46.2154 187.886 45.1687 187.821 44.763C187.758 44.3786 187.643 43.7509 187.563 43.3665C187.484 42.982 187.298 42.2713 187.15 41.7862C187.003 41.301 186.702 40.5072 186.482 40.0221C186.262 39.537 185.914 38.8424 185.707 38.4785C185.502 38.1147 185.166 37.5855 184.961 37.3025C184.758 37.0195 184.353 36.5065 184.064 36.1632C183.774 35.82 183.308 35.3312 183.029 35.0783C182.75 34.8255 182.516 34.627 182.509 34.6373C182.503 34.6476 182.531 35.2018 182.571 35.8692C182.611 36.5366 182.628 37.942 182.609 38.9931C182.586 40.1772 182.526 41.2393 182.45 41.7862C182.384 42.2713 182.245 43.0651 182.145 43.5502C182.044 44.0353 181.785 44.9615 181.571 45.6083C181.356 46.2551 180.986 47.2143 180.749 47.7399C180.511 48.2654 180.117 49.0431 179.872 49.4672C179.627 49.8913 179.216 50.5528 178.958 50.9372C178.701 51.3216 178.29 51.9001 178.045 52.2235C177.801 52.5469 177.355 53.093 177.055 53.4363C176.754 53.7796 176.273 54.3036 175.987 54.5998C175.699 54.8953 175.101 55.4606 174.656 55.8553C174.212 56.25 173.55 56.802 173.186 57.0828C172.822 57.3628 172.161 57.856 171.716 58.1779C171.272 58.4991 170.63 59.0276 170.29 59.3518C169.951 59.6759 169.5 60.1728 169.29 60.4558C169.08 60.7388 168.782 61.2187 168.629 61.5216C168.476 61.8251 168.289 62.2551 168.212 62.4771C168.135 62.6991 168.022 63.096 167.96 63.3591C167.898 63.6223 167.829 64.2007 167.806 64.6454C167.783 65.0901 167.801 65.7355 167.846 66.0787C167.892 66.422 168.029 67.0423 168.15 67.4569C168.272 67.8714 168.537 68.5411 168.739 68.9453C168.941 69.3496 169.09 69.6965 169.07 69.7171C169.05 69.7377 168.794 69.634 168.5 69.4878C168.207 69.3415 167.471 68.9394 166.865 68.594C166.259 68.2478 165.299 67.6583 164.733 67.2827C164.167 66.9078 163.352 66.3264 162.922 65.9905C162.492 65.6553 161.747 65.0298 161.268 64.6013C160.789 64.1728 160.079 63.4782 159.692 63.0578C159.305 62.6373 158.712 61.9457 158.377 61.5216C158.041 61.0975 157.527 60.386 157.233 59.9413C156.939 59.4966 156.499 58.7527 156.254 58.2875C156.009 57.8222 155.664 57.0945 155.485 56.6704C155.308 56.2463 155.044 55.5348 154.9 55.0901C154.757 54.6454 154.569 53.9839 154.483 53.6201C154.397 53.2562 154.262 52.5616 154.184 52.0765C154.105 51.5914 154.003 50.6983 153.956 50.0919C153.908 49.4613 153.891 48.4705 153.917 47.7766C153.941 47.1092 154.01 46.1507 154.07 45.645C154.131 45.1401 154.263 44.2963 154.366 43.7707C154.468 43.2452 154.62 42.5675 154.703 42.2639C154.786 41.9611 154.966 41.365 155.103 40.9409C155.241 40.5168 155.491 39.8383 155.659 39.4341C155.826 39.0298 156.019 38.5741 156.086 38.4212C156.153 38.2683 156.232 38.1441 156.262 38.1456C156.292 38.147 156.301 38.6189 156.279 39.1952C156.259 39.7715 156.276 40.6064 156.318 41.0511C156.361 41.4958 156.476 42.2896 156.575 42.8152C156.673 43.3407 156.889 44.1676 157.055 44.6527C157.221 45.1379 157.55 45.9317 157.786 46.4168C158.022 46.9019 158.414 47.5965 158.657 47.9604C158.9 48.3242 159.284 48.8453 159.509 49.118C159.735 49.3907 159.934 49.6061 159.952 49.5958C159.97 49.5855 159.922 49.1643 159.843 48.6586C159.765 48.1537 159.644 47.2606 159.574 46.6741C159.477 45.8648 159.446 45.0063 159.444 43.1092C159.442 41.1423 159.469 40.3911 159.572 39.5811C159.643 39.0151 159.77 38.139 159.852 37.6333C159.935 37.1283 160.081 36.3176 160.178 35.8325C160.274 35.3473 160.489 34.372 160.656 33.6641C160.822 32.957 161.036 31.9978 161.131 31.5326C161.227 31.0673 161.361 30.2742 161.43 29.7685C161.504 29.2231 161.555 28.372 161.555 27.6737C161.555 26.935 161.512 26.2382 161.438 25.7994C161.373 25.4149 161.239 24.8365 161.141 24.5131C161.042 24.1897 160.904 23.7927 160.706 23.337L160.919 23.3973C161.036 23.4304 161.43 23.598 161.793 23.7692C162.157 23.9405 162.67 24.2264 162.933 24.405C163.195 24.5836 163.656 24.9622 163.955 25.2459C164.255 25.5303 164.686 26.0111 164.912 26.3139C165.138 26.6174 165.477 27.1628 165.665 27.5267C165.853 27.8905 166.109 28.4447 166.234 28.7578C166.359 29.071 166.575 29.7656 166.714 30.3014C166.854 30.8372 167.034 31.7222 167.115 32.2676C167.196 32.813 167.296 33.5906 167.338 33.9949C167.381 34.3992 167.499 35.7222 167.6 36.935C167.701 38.1478 167.785 39.1651 167.785 39.1952C167.784 39.2253 167.817 39.2503 167.857 39.2503C167.898 39.2503 168.298 38.8946 168.747 38.4602C169.197 38.0258 169.771 37.3885 170.025 37.0452C170.278 36.702 170.638 36.1559 170.824 35.8325C171.011 35.509 171.277 34.9629 171.417 34.6197C171.557 34.2764 171.757 33.6972 171.862 33.3334C171.967 32.9695 172.104 32.3742 172.167 32.0103C172.236 31.62 172.298 30.7005 172.32 29.7685C172.345 28.6535 172.32 27.7442 172.235 26.6814C172.168 25.853 172.065 24.5462 172.007 23.778C171.948 23.0099 171.901 21.6538 171.901 20.7644C171.9 19.7795 171.943 18.774 172.012 18.1919C172.073 17.6663 172.209 16.8556 172.315 16.3911C172.42 15.9265 172.651 15.1158 172.83 14.5902C173.009 14.0647 173.448 13.0393 173.805 12.3117C174.186 11.5362 174.74 10.5623 175.144 9.95811C175.522 9.39141 176.161 8.51526 176.562 8.0103C176.964 7.50607 177.973 6.41383 178.804 5.58325C179.636 4.75267 180.746 3.71481 181.272 3.27821C181.797 2.84087 182.657 2.16024 183.183 1.76626Z" fill="#E74500"/>
</g>
<line y1="148.175" x2="108.506" y2="148.175" stroke="url(#paint1_linear_482_114393)" stroke-width="2.33347"/>
<path d="M122.71 146.134V157.008H120.167V141.444H122.943L129.104 152.341V141.444H131.647V157.008H128.87L122.71 146.134ZM118.533 141.444H120.4L120.75 143.824L118.533 143.24V141.444ZM127.47 141.444H129.337L129.687 143.824L127.47 143.24V141.444ZM118.533 157.008V155.188L120.75 154.674L120.4 157.008H118.533ZM122.477 157.008L122.01 154.604L124.343 155.188V157.008H122.477ZM130.831 143.847L131.414 141.444H133.281V143.24L130.831 143.847ZM143.51 146.741L146.31 146.974V157.008H143.51V146.741ZM143.51 146.741L144.21 145.341H146.31V146.974L143.51 146.741ZM145.12 153.274L145.494 153.391C145.494 153.391 145.431 153.523 145.307 153.788C145.183 154.037 144.996 154.348 144.747 154.721C144.498 155.094 144.179 155.476 143.79 155.865C143.417 156.238 142.973 156.557 142.46 156.821C141.947 157.07 141.363 157.195 140.71 157.195L141.41 155.211C141.783 155.211 142.18 155.118 142.6 154.931C143.02 154.729 143.425 154.503 143.814 154.254C144.202 153.99 144.514 153.764 144.747 153.578C144.996 153.375 145.12 153.274 145.12 153.274ZM145.12 149.074C145.12 149.074 144.996 148.981 144.747 148.794C144.514 148.592 144.202 148.366 143.814 148.117C143.425 147.869 143.02 147.651 142.6 147.464C142.18 147.262 141.783 147.161 141.41 147.161L140.71 145.154C141.223 145.154 141.713 145.286 142.18 145.551C142.662 145.799 143.098 146.111 143.487 146.484C143.891 146.857 144.241 147.238 144.537 147.627C144.848 148.001 145.081 148.32 145.237 148.584C145.408 148.833 145.494 148.957 145.494 148.957L145.12 149.074ZM141.41 147.161C140.897 147.161 140.484 147.285 140.173 147.534C139.862 147.783 139.621 148.11 139.45 148.514C139.279 148.919 139.162 149.354 139.1 149.821C139.038 150.288 139.007 150.739 139.007 151.174C139.007 151.61 139.038 152.061 139.1 152.528C139.162 152.994 139.279 153.438 139.45 153.858C139.621 154.262 139.862 154.589 140.173 154.838C140.484 155.087 140.897 155.211 141.41 155.211L140.71 157.195C139.917 157.195 139.232 157.023 138.657 156.681C138.081 156.339 137.607 155.88 137.233 155.305C136.86 154.729 136.588 154.083 136.416 153.368C136.245 152.652 136.16 151.921 136.16 151.174C136.16 150.428 136.245 149.696 136.416 148.981C136.588 148.265 136.86 147.62 137.233 147.044C137.607 146.468 138.081 146.01 138.657 145.667C139.232 145.325 139.917 145.154 140.71 145.154L141.41 147.161ZM146.077 157.008L145.61 154.604L147.944 155.188V157.008H146.077ZM160.938 149.074L160.634 148.957C160.634 148.957 160.704 148.833 160.844 148.584C160.984 148.32 161.187 148.001 161.451 147.627C161.731 147.238 162.05 146.857 162.408 146.484C162.766 146.111 163.162 145.799 163.598 145.551C164.033 145.286 164.492 145.154 164.975 145.154L164.158 147.371C163.831 147.371 163.481 147.456 163.108 147.627C162.735 147.799 162.385 148.001 162.058 148.234C161.731 148.452 161.459 148.646 161.241 148.817C161.039 148.989 160.938 149.074 160.938 149.074ZM165.558 151.174C165.558 150.256 165.511 149.517 165.418 148.957C165.325 148.397 165.169 147.993 164.951 147.744C164.749 147.495 164.477 147.371 164.135 147.371L164.951 145.154C165.62 145.154 166.165 145.263 166.585 145.481C167.02 145.683 167.363 145.994 167.611 146.414C167.86 146.818 168.039 147.316 168.148 147.907C168.257 148.499 168.319 149.183 168.335 149.961L168.358 151.174H165.558ZM166.981 149.074L166.678 148.607C166.678 148.607 166.756 148.491 166.911 148.257C167.067 148.024 167.285 147.736 167.565 147.394C167.86 147.052 168.187 146.71 168.545 146.367C168.918 146.025 169.315 145.737 169.735 145.504C170.155 145.271 170.583 145.154 171.018 145.154L170.202 147.371C169.906 147.371 169.572 147.456 169.198 147.627C168.84 147.799 168.49 148.001 168.148 148.234C167.806 148.452 167.526 148.646 167.308 148.817C167.09 148.989 166.981 149.074 166.981 149.074ZM159.491 157.008V145.341H162.291V157.008H159.491ZM165.558 157.008V151.174H168.358V157.008H165.558ZM171.625 157.008V151.174H174.425V157.008H171.625ZM171.625 151.174C171.625 150.256 171.578 149.517 171.485 148.957C171.392 148.397 171.236 147.993 171.018 147.744C170.816 147.495 170.544 147.371 170.202 147.371L171.018 145.154C171.687 145.154 172.232 145.263 172.652 145.481C173.087 145.683 173.43 145.994 173.679 146.414C173.927 146.818 174.106 147.316 174.215 147.907C174.324 148.499 174.386 149.183 174.402 149.961L174.425 151.174H171.625ZM157.858 157.008V155.188L160.074 154.674L159.724 157.008H157.858ZM162.058 157.008L161.591 154.604L163.925 155.188V157.008H162.058ZM174.192 157.008L173.725 154.604L176.059 155.188V157.008H174.192ZM159.724 147.557L157.858 147.091V145.341H159.724V147.557ZM168.125 157.008L167.658 154.604L169.992 155.188V157.008H168.125ZM187.091 154.278L187.908 155.958C187.908 155.958 187.698 156.059 187.278 156.261C186.858 156.463 186.267 156.673 185.505 156.891C184.742 157.093 183.832 157.195 182.774 157.195L183.241 155.188C183.91 155.188 184.525 155.118 185.085 154.978C185.645 154.838 186.104 154.698 186.461 154.558C186.819 154.402 187.029 154.309 187.091 154.278ZM178.341 151.174H181.024C181.024 152.232 181.094 153.057 181.234 153.648C181.374 154.223 181.608 154.628 181.934 154.861C182.261 155.079 182.697 155.188 183.241 155.188L182.774 157.195C181.903 157.195 181.133 156.992 180.464 156.588C179.795 156.183 179.274 155.538 178.901 154.651C178.528 153.764 178.341 152.605 178.341 151.174ZM183.451 145.154C184.96 145.154 186.08 145.512 186.811 146.227C187.543 146.943 187.908 147.837 187.908 148.911C187.908 149.626 187.737 150.218 187.395 150.684C187.068 151.151 186.617 151.516 186.041 151.781C185.481 152.03 184.843 152.209 184.128 152.318C183.412 152.411 182.673 152.458 181.911 152.458L180.091 152.434L181.024 150.498C181.678 150.529 182.269 150.529 182.798 150.498C183.327 150.451 183.778 150.365 184.151 150.241C184.54 150.116 184.836 149.945 185.038 149.728C185.24 149.51 185.341 149.237 185.341 148.911C185.341 148.429 185.186 148.016 184.875 147.674C184.563 147.316 184.089 147.137 183.451 147.137C182.86 147.137 182.386 147.308 182.028 147.651C181.67 147.993 181.413 148.467 181.258 149.074C181.102 149.681 181.024 150.381 181.024 151.174H178.341C178.341 150.428 178.426 149.696 178.598 148.981C178.784 148.265 179.08 147.62 179.484 147.044C179.889 146.468 180.41 146.01 181.048 145.667C181.701 145.325 182.502 145.154 183.451 145.154ZM198.195 155.608V140.674H200.995V155.375L198.195 155.608ZM198.195 155.608L200.995 155.375V157.008H198.195V155.608ZM199.805 153.274L200.178 153.391C200.178 153.391 200.092 153.523 199.921 153.788C199.766 154.037 199.532 154.348 199.221 154.721C198.926 155.094 198.576 155.476 198.171 155.865C197.782 156.238 197.347 156.557 196.864 156.821C196.398 157.07 195.908 157.195 195.394 157.195L196.094 155.211C196.468 155.211 196.864 155.118 197.284 154.931C197.705 154.729 198.109 154.503 198.498 154.254C198.887 153.99 199.198 153.764 199.431 153.578C199.68 153.375 199.805 153.274 199.805 153.274ZM199.805 149.074C199.805 149.074 199.68 148.981 199.431 148.794C199.198 148.592 198.887 148.366 198.498 148.117C198.109 147.869 197.705 147.651 197.284 147.464C196.864 147.262 196.468 147.161 196.094 147.161L195.394 145.154C195.908 145.154 196.398 145.286 196.864 145.551C197.347 145.799 197.782 146.111 198.171 146.484C198.576 146.857 198.926 147.238 199.221 147.627C199.532 148.001 199.766 148.32 199.921 148.584C200.092 148.833 200.178 148.957 200.178 148.957L199.805 149.074ZM196.094 147.161C195.581 147.161 195.169 147.285 194.858 147.534C194.547 147.783 194.305 148.11 194.134 148.514C193.963 148.919 193.847 149.354 193.784 149.821C193.722 150.288 193.691 150.739 193.691 151.174C193.691 151.61 193.722 152.061 193.784 152.528C193.847 152.994 193.963 153.438 194.134 153.858C194.305 154.262 194.547 154.589 194.858 154.838C195.169 155.087 195.581 155.211 196.094 155.211L195.394 157.195C194.601 157.195 193.917 157.023 193.341 156.681C192.765 156.339 192.291 155.88 191.917 155.305C191.544 154.729 191.272 154.083 191.101 153.368C190.93 152.652 190.844 151.921 190.844 151.174C190.844 150.428 190.93 149.696 191.101 148.981C191.272 148.265 191.544 147.62 191.917 147.044C192.291 146.468 192.765 146.01 193.341 145.667C193.917 145.325 194.601 145.154 195.394 145.154L196.094 147.161ZM196.561 140.674H198.428L198.755 143.054L196.561 142.47V140.674ZM200.761 157.008L200.295 154.604L202.628 155.188V157.008H200.761ZM206.366 157.008V145.341H209.167V157.008H206.366ZM207.766 143.987C207.3 143.987 206.903 143.824 206.576 143.497C206.25 143.17 206.086 142.774 206.086 142.307C206.086 141.84 206.25 141.444 206.576 141.117C206.903 140.775 207.3 140.604 207.766 140.604C208.233 140.604 208.63 140.775 208.957 141.117C209.299 141.444 209.47 141.84 209.47 142.307C209.47 142.774 209.299 143.17 208.957 143.497C208.63 143.824 208.233 143.987 207.766 143.987ZM206.6 147.557L204.733 147.091V145.341H206.6V147.557ZM204.733 157.008V155.188L206.95 154.674L206.6 157.008H204.733ZM208.933 157.008L208.467 154.604L210.8 155.188V157.008H208.933ZM220.558 155.608V140.674H223.358V155.375L220.558 155.608ZM220.558 155.608L223.358 155.375V157.008H220.558V155.608ZM222.168 153.274L222.541 153.391C222.541 153.391 222.455 153.523 222.284 153.788C222.129 154.037 221.895 154.348 221.584 154.721C221.289 155.094 220.939 155.476 220.534 155.865C220.145 156.238 219.71 156.557 219.227 156.821C218.761 157.07 218.271 157.195 217.757 157.195L218.457 155.211C218.831 155.211 219.227 155.118 219.648 154.931C220.068 154.729 220.472 154.503 220.861 154.254C221.25 153.99 221.561 153.764 221.794 153.578C222.043 153.375 222.168 153.274 222.168 153.274ZM222.168 149.074C222.168 149.074 222.043 148.981 221.794 148.794C221.561 148.592 221.25 148.366 220.861 148.117C220.472 147.869 220.068 147.651 219.648 147.464C219.227 147.262 218.831 147.161 218.457 147.161L217.757 145.154C218.271 145.154 218.761 145.286 219.227 145.551C219.71 145.799 220.145 146.111 220.534 146.484C220.939 146.857 221.289 147.238 221.584 147.627C221.895 148.001 222.129 148.32 222.284 148.584C222.455 148.833 222.541 148.957 222.541 148.957L222.168 149.074ZM218.457 147.161C217.944 147.161 217.532 147.285 217.221 147.534C216.91 147.783 216.668 148.11 216.497 148.514C216.326 148.919 216.21 149.354 216.147 149.821C216.085 150.288 216.054 150.739 216.054 151.174C216.054 151.61 216.085 152.061 216.147 152.528C216.21 152.994 216.326 153.438 216.497 153.858C216.668 154.262 216.91 154.589 217.221 154.838C217.532 155.087 217.944 155.211 218.457 155.211L217.757 157.195C216.964 157.195 216.28 157.023 215.704 156.681C215.128 156.339 214.654 155.88 214.281 155.305C213.907 154.729 213.635 154.083 213.464 153.368C213.293 152.652 213.207 151.921 213.207 151.174C213.207 150.428 213.293 149.696 213.464 148.981C213.635 148.265 213.907 147.62 214.281 147.044C214.654 146.468 215.128 146.01 215.704 145.667C216.28 145.325 216.964 145.154 217.757 145.154L218.457 147.161ZM218.924 140.674H220.791L221.118 143.054L218.924 142.47V140.674ZM223.124 157.008L222.658 154.604L224.991 155.188V157.008H223.124ZM234.633 146.741L237.433 146.974V157.008H234.633V146.741ZM234.633 146.741L235.333 145.341H237.433V146.974L234.633 146.741ZM236.243 153.274L236.617 153.391C236.617 153.391 236.554 153.523 236.43 153.788C236.305 154.037 236.119 154.348 235.87 154.721C235.621 155.094 235.302 155.476 234.913 155.865C234.54 156.238 234.096 156.557 233.583 156.821C233.07 157.07 232.486 157.195 231.833 157.195L232.533 155.211C232.906 155.211 233.303 155.118 233.723 154.931C234.143 154.729 234.548 154.503 234.936 154.254C235.325 153.99 235.637 153.764 235.87 153.578C236.119 153.375 236.243 153.274 236.243 153.274ZM236.243 149.074C236.243 149.074 236.119 148.981 235.87 148.794C235.637 148.592 235.325 148.366 234.936 148.117C234.548 147.869 234.143 147.651 233.723 147.464C233.303 147.262 232.906 147.161 232.533 147.161L231.833 145.154C232.346 145.154 232.836 145.286 233.303 145.551C233.785 145.799 234.221 146.111 234.61 146.484C235.014 146.857 235.364 147.238 235.66 147.627C235.971 148.001 236.204 148.32 236.36 148.584C236.531 148.833 236.617 148.957 236.617 148.957L236.243 149.074ZM232.533 147.161C232.02 147.161 231.607 147.285 231.296 147.534C230.985 147.783 230.744 148.11 230.573 148.514C230.402 148.919 230.285 149.354 230.223 149.821C230.161 150.288 230.13 150.739 230.13 151.174C230.13 151.61 230.161 152.061 230.223 152.528C230.285 152.994 230.402 153.438 230.573 153.858C230.744 154.262 230.985 154.589 231.296 154.838C231.607 155.087 232.02 155.211 232.533 155.211L231.833 157.195C231.04 157.195 230.355 157.023 229.78 156.681C229.204 156.339 228.729 155.88 228.356 155.305C227.983 154.729 227.711 154.083 227.539 153.368C227.368 152.652 227.283 151.921 227.283 151.174C227.283 150.428 227.368 149.696 227.539 148.981C227.711 148.265 227.983 147.62 228.356 147.044C228.729 146.468 229.204 146.01 229.78 145.667C230.355 145.325 231.04 145.154 231.833 145.154L232.533 147.161ZM237.2 157.008L236.733 154.604L239.067 155.188V157.008H237.2Z" fill="url(#paint2_linear_482_114393)"/>
<line x1="248.515" y1="148.175" x2="357.021" y2="148.175" stroke="url(#paint3_linear_482_114393)" stroke-width="2.33347"/>
<defs>
<filter id="filter0_i_482_114393" x="153.905" y="0" width="49.1496" height="74.3867" filterUnits="userSpaceOnUse" color-interpolation-filters="sRGB">
<feFlood flood-opacity="0" result="BackgroundImageFix"/>
<feBlend mode="normal" in="SourceGraphic" in2="BackgroundImageFix" result="shape"/>
<feColorMatrix in="SourceAlpha" type="matrix" values="0 0 0 0 0 0 0 0 0 0 0 0 0 0 0 0 0 0 127 0" result="hardAlpha"/>
<feOffset dy="4.66694"/>
<feGaussianBlur stdDeviation="2.33347"/>
<feComposite in2="hardAlpha" operator="arithmetic" k2="-1" k3="1"/>
<feColorMatrix type="matrix" values="0 0 0 0 0 0 0 0 0 0 0 0 0 0 0 0 0 0 0.8 0"/>
<feBlend mode="normal" in2="shape" result="effect1_innerShadow_482_114393"/>
</filter>
<linearGradient id="paint0_linear_482_114393" x1="195.315" y1="81.7102" x2="195.804" y2="126.512" gradientUnits="userSpaceOnUse">
<stop stop-color="white"/>
<stop offset="1" stop-color="#999999"/>
</linearGradient>
<linearGradient id="paint1_linear_482_114393" x1="0" y1="149.842" x2="108.506" y2="149.842" gradientUnits="userSpaceOnUse">
<stop stop-color="#E74500"/>
<stop offset="1" stop-color="#812700"/>
</linearGradient>
<linearGradient id="paint2_linear_482_114393" x1="178.604" y1="133.008" x2="178.511" y2="184.344" gradientUnits="userSpaceOnUse">
<stop offset="0.181429" stop-color="#E74500"/>
<stop offset="0.681387" stop-color="#672001"/>
</linearGradient>
<linearGradient id="paint3_linear_482_114393" x1="248.515" y1="149.842" x2="357.021" y2="149.842" gradientUnits="userSpaceOnUse">
<stop stop-color="#E74500"/>
<stop offset="1" stop-color="#812700"/>
</linearGradient>
</defs>
</svg>
