<svg width="154" height="28" viewBox="0 0 154 28" fill="none" xmlns="http://www.w3.org/2000/svg">
<g filter="url(#filter0_n_536_379)">
<path d="M34.3251 21.6036L30.7105 10.0127H32.5004L35.0028 18.3193L37.4878 10.0127H39.2951L35.6805 21.6036H34.3251ZM29.5636 21.6036V10.0127H31.701V21.6036H29.5636ZM38.2872 21.6036V10.0127H40.4246V21.6036H38.2872ZM28.3471 21.6036V20.2482L29.998 19.8659L29.7373 21.6036H28.3471ZM31.5272 21.6036L31.1797 19.8137L32.9175 20.2482V21.6036H31.5272ZM37.0707 21.6036V20.2482L38.7216 19.8659L38.4609 21.6036H37.0707ZM28.3471 10.0127H29.7373L29.998 11.7852L28.3471 11.3508V10.0127ZM40.2508 21.6036L39.9033 19.8137L41.6411 20.2482V21.6036H40.2508ZM39.8164 11.8026L40.2508 10.0127H41.6411V11.3508L39.8164 11.8026ZM45.12 10.0127H52.4186V11.7505H47.2574V14.7742H51.2891V16.512H47.2574V19.8659H52.4012V21.6036H45.12V10.0127ZM43.9036 10.0127H45.2938L45.5544 11.7852L43.9036 11.3508V10.0127ZM43.9036 21.6036V20.2482L45.5544 19.8659L45.2938 21.6036H43.9036ZM52.4012 18.7363V21.6036H50.5418L51.15 18.7363H52.4012ZM52.4186 12.88H51.0805L50.4723 10.0127H52.4186V12.88ZM51.2891 13.6447V16.512H49.4297L50.0379 13.6447H51.2891ZM51.2891 17.6415H49.951L49.3428 14.7742H51.2891V17.6415ZM64.093 15.7647C64.093 17.2013 63.954 18.3598 63.676 19.2403C63.4095 20.1207 62.9635 20.7579 62.3379 21.1518C61.7123 21.5457 60.8666 21.7427 59.8007 21.7427C58.7349 21.7427 57.8892 21.5457 57.2636 21.1518C56.638 20.7579 56.1862 20.1207 55.9081 19.2403C55.6417 18.3598 55.5085 17.2013 55.5085 15.7647H57.6459C57.6459 16.7726 57.7038 17.601 57.8197 18.2497C57.9355 18.8985 58.1499 19.3851 58.4627 19.7095C58.7755 20.0223 59.2215 20.1787 59.8007 20.1787C60.38 20.1787 60.8202 20.0223 61.1214 19.7095C61.4342 19.3851 61.6486 18.8985 61.7644 18.2497C61.8919 17.601 61.9556 16.7726 61.9556 15.7647H64.093ZM61.9556 10.0127H64.093V15.7647H61.9556V10.0127ZM57.6459 15.7647H55.5085V10.0127H57.6459V15.7647ZM54.292 10.0127H55.6822L55.9255 11.7852L54.292 11.3508V10.0127ZM60.7391 10.0127H62.1294L62.3726 11.7852L60.7391 11.3508V10.0127ZM57.0377 11.8026L57.4721 10.0127H58.8623V11.3508L57.0377 11.8026ZM63.4848 11.8026L63.9193 10.0127H65.3095V11.3508L63.4848 11.8026ZM78.1874 11.4377C77.5966 11.4377 77.1042 11.5593 76.7103 11.8026C76.328 12.0343 76.021 12.3587 75.7893 12.7758C75.5576 13.1928 75.3954 13.662 75.3027 14.1834C75.21 14.7047 75.1637 15.2492 75.1637 15.8169H72.8699C72.8699 15.0291 72.9625 14.2818 73.1479 13.5751C73.3333 12.8569 73.6345 12.2197 74.0515 11.6636C74.4686 11.1075 75.0131 10.6731 75.685 10.3603C76.3686 10.0359 77.2027 9.8737 78.1874 9.8737C78.8709 9.8737 79.4908 9.95479 80.0468 10.117C80.6029 10.2792 81.0953 10.4645 81.5239 10.6731L81.02 12.098C80.545 11.8895 80.0816 11.7273 79.6298 11.6115C79.1895 11.4956 78.7088 11.4377 78.1874 11.4377ZM78.1874 20.196C78.7088 20.196 79.1895 20.1381 79.6298 20.0223C80.0816 19.8948 80.545 19.7326 81.02 19.5357L81.5239 20.9607C81.0953 21.1576 80.6029 21.343 80.0468 21.5167C79.4908 21.6789 78.8709 21.76 78.1874 21.76C77.2027 21.76 76.3686 21.5978 75.685 21.2735C75.0131 20.9491 74.4686 20.5088 74.0515 19.9528C73.6345 19.3967 73.3333 18.7653 73.1479 18.0586C72.9625 17.3403 72.8699 16.5931 72.8699 15.8169H75.1637C75.1637 16.373 75.21 16.9117 75.3027 17.433C75.3954 17.9543 75.5576 18.4235 75.7893 18.8406C76.021 19.2576 76.328 19.5878 76.7103 19.8311C77.1042 20.0744 77.5966 20.196 78.1874 20.196ZM79.8209 12.8453V10.6731H81.5239L81.0374 12.8453H79.8209ZM79.8209 18.7885H81.0374L81.5239 20.9607H79.8209V18.7885ZM91.2201 16.3903H86.9974V21.6036H84.8599V10.0127H86.9974V14.6526H91.2201V10.0127H93.3576V21.6036H91.2201V16.3903ZM83.6435 10.0127H85.0337L85.2944 11.7852L83.6435 11.3508V10.0127ZM90.0037 10.0127H91.3939L91.6546 11.7852L90.0037 11.3508V10.0127ZM86.3891 11.8026L86.8236 10.0127H88.2138V11.3508L86.3891 11.8026ZM92.7494 11.8026L93.1838 10.0127H94.574V11.3508L92.7494 11.8026ZM83.6435 21.6036V20.2482L85.2944 19.8659L85.0337 21.6036H83.6435ZM90.0037 21.6036V20.2482L91.6546 19.8659L91.3939 21.6036H90.0037ZM86.8236 21.6036L86.476 19.8137L88.2138 20.2482V21.6036H86.8236ZM93.1838 21.6036L92.8363 19.8137L94.574 20.2482V21.6036H93.1838ZM106.26 15.7647C106.26 17.2013 106.121 18.3598 105.843 19.2403C105.576 20.1207 105.13 20.7579 104.505 21.1518C103.879 21.5457 103.033 21.7427 101.967 21.7427C100.902 21.7427 100.056 21.5457 99.4303 21.1518C98.8047 20.7579 98.3529 20.1207 98.0748 19.2403C97.8084 18.3598 97.6751 17.2013 97.6751 15.7647H99.8126C99.8126 16.7726 99.8705 17.601 99.9864 18.2497C100.102 18.8985 100.317 19.3851 100.629 19.7095C100.942 20.0223 101.388 20.1787 101.967 20.1787C102.547 20.1787 102.987 20.0223 103.288 19.7095C103.601 19.3851 103.815 18.8985 103.931 18.2497C104.059 17.601 104.122 16.7726 104.122 15.7647H106.26ZM104.122 10.0127H106.26V15.7647H104.122V10.0127ZM99.8126 15.7647H97.6751V10.0127H99.8126V15.7647ZM96.4587 10.0127H97.8489L98.0922 11.7852L96.4587 11.3508V10.0127ZM102.906 10.0127H104.296L104.539 11.7852L102.906 11.3508V10.0127ZM99.2044 11.8026L99.6388 10.0127H101.029V11.3508L99.2044 11.8026ZM105.652 11.8026L106.086 10.0127H107.476V11.3508L105.652 11.8026ZM110.559 21.6036V10.0127C110.895 10.0127 111.196 10.0069 111.463 9.99534C111.729 9.97217 111.99 9.949 112.245 9.92583C112.511 9.90266 112.795 9.88528 113.096 9.8737C113.398 9.85053 113.739 9.83894 114.122 9.83894C115.002 9.83894 115.761 9.98955 116.398 10.2908C117.035 10.5804 117.522 10.9975 117.858 11.542C118.205 12.0749 118.379 12.7005 118.379 13.4187C118.379 14.137 118.205 14.7626 117.858 15.2955C117.522 15.8169 117.035 16.2281 116.398 16.5294C115.761 16.819 114.996 16.9638 114.104 16.9638C113.676 16.9638 113.328 16.958 113.062 16.9464C112.807 16.9232 112.679 16.9117 112.679 16.9117V21.6036H110.559ZM116.224 21.6036L113.513 16.3556L115.616 16.2339L118.518 21.6036H116.224ZM114.122 15.3998C114.747 15.3998 115.228 15.226 115.564 14.8785C115.912 14.5309 116.085 14.0501 116.085 13.4361C116.085 12.7989 115.912 12.3066 115.564 11.959C115.228 11.5999 114.747 11.4203 114.122 11.4203C113.693 11.4203 113.345 11.4319 113.079 11.4551C112.824 11.4667 112.697 11.4724 112.697 11.4724V15.3477C112.697 15.3477 112.824 15.3593 113.079 15.3824C113.345 15.394 113.693 15.3998 114.122 15.3998ZM109.343 21.6036V20.2482L110.994 19.8659L110.733 21.6036H109.343ZM112.506 21.6036L112.158 19.8137L113.896 20.2482V21.6036H112.506ZM117.649 21.6036L117.302 19.8137L119.04 20.2482V21.6036H117.649ZM109.343 10.0127H110.733L110.994 11.7852L109.343 11.3508V10.0127ZM122.111 21.6036V10.0127C122.447 10.0127 122.748 10.0069 123.014 9.99534C123.281 9.97217 123.541 9.949 123.796 9.92583C124.063 9.90266 124.347 9.88528 124.648 9.8737C124.949 9.85053 125.291 9.83894 125.673 9.83894C126.554 9.83894 127.312 9.98955 127.95 10.2908C128.587 10.5804 129.073 10.9975 129.409 11.542C129.757 12.0749 129.931 12.7005 129.931 13.4187C129.931 14.137 129.757 14.7626 129.409 15.2955C129.073 15.8169 128.587 16.2281 127.95 16.5294C127.312 16.819 126.548 16.9638 125.656 16.9638C125.227 16.9638 124.879 16.958 124.613 16.9464C124.358 16.9232 124.231 16.9117 124.231 16.9117V21.6036H122.111ZM127.776 21.6036L125.065 16.3556L127.168 16.2339L130.07 21.6036H127.776ZM125.673 15.3998C126.299 15.3998 126.779 15.226 127.115 14.8785C127.463 14.5309 127.637 14.0501 127.637 13.4361C127.637 12.7989 127.463 12.3066 127.115 11.959C126.779 11.5999 126.299 11.4203 125.673 11.4203C125.244 11.4203 124.897 11.4319 124.63 11.4551C124.376 11.4667 124.248 11.4724 124.248 11.4724V15.3477C124.248 15.3477 124.376 15.3593 124.63 15.3824C124.897 15.394 125.244 15.3998 125.673 15.3998ZM120.894 21.6036V20.2482L122.545 19.8659L122.284 21.6036H120.894ZM124.057 21.6036L123.709 19.8137L125.447 20.2482V21.6036H124.057ZM129.201 21.6036L128.853 19.8137L130.591 20.2482V21.6036H129.201ZM120.894 10.0127H122.284L122.545 11.7852L120.894 11.3508V10.0127ZM132.706 21.6036L136.321 10.0127H138.545L142.16 21.6036H139.918L136.912 10.3429H137.954L134.965 21.6036H132.706ZM134.722 18.6842V17.1202H140.144V18.6842H134.722ZM131.924 21.6036V20.2482L133.575 19.8659L133.314 21.6036H131.924ZM134.792 21.6036L134.444 19.8137L136.182 20.2482V21.6036H134.792ZM138.702 21.6036V20.2482L140.352 19.8659L140.092 21.6036H138.702ZM141.551 21.6036L141.204 19.8137L142.942 20.2482V21.6036H141.551ZM135.017 10.0127H136.408L136.668 11.7852L135.017 11.3508V10.0127ZM152.565 18.0586C152.565 18.7305 152.415 19.3503 152.113 19.918C151.812 20.4857 151.337 20.9375 150.689 21.2735C150.04 21.6094 149.194 21.7774 148.151 21.7774V20.1265C148.8 20.1265 149.316 19.9701 149.698 19.6573C150.08 19.333 150.271 18.858 150.271 18.2324C150.271 17.8616 150.173 17.5604 149.976 17.3287C149.779 17.097 149.495 16.9117 149.125 16.7726C148.765 16.622 148.325 16.4946 147.804 16.3903C146.854 16.1818 146.124 15.7995 145.614 15.2434C145.104 14.6757 144.85 13.9575 144.85 13.0886C144.85 12.5788 144.942 12.127 145.128 11.7331C145.325 11.3276 145.585 10.9859 145.91 10.7078C146.234 10.4298 146.587 10.2213 146.97 10.0822C147.364 9.93162 147.757 9.85632 148.151 9.85632L148.499 11.4203C148.012 11.4203 147.624 11.5651 147.335 11.8548C147.045 12.1444 146.9 12.4977 146.9 12.9148C146.9 13.1813 146.952 13.4303 147.057 13.662C147.161 13.8937 147.329 14.0849 147.561 14.2355C147.792 14.3861 148.105 14.4962 148.499 14.5657C149.912 14.7974 150.943 15.2086 151.592 15.7995C152.241 16.3787 152.565 17.1318 152.565 18.0586ZM148.499 11.4203L148.151 9.85632C148.835 9.85632 149.455 9.93741 150.011 10.0996C150.567 10.2618 151.059 10.4472 151.488 10.6557L150.984 12.0807C150.509 11.8721 150.08 11.7099 149.698 11.5941C149.327 11.4782 148.928 11.4203 148.499 11.4203ZM148.151 20.1265V21.7774C147.468 21.7774 146.848 21.6905 146.292 21.5167C145.747 21.343 145.255 21.1576 144.815 20.9607L145.319 19.4488C145.794 19.6458 146.251 19.8079 146.692 19.9354C147.143 20.0628 147.63 20.1265 148.151 20.1265ZM146.5 18.7885V20.9607H144.815L145.249 18.7885H146.5ZM149.785 12.8279V10.6557H151.488L151.001 12.8279H149.785Z" fill="black" fill-opacity="0.6"/>
<path d="M10.3395 0.623763C10.5251 0.48463 10.799 0.287352 10.9483 0.185338C11.0975 0.0833242 11.2289 0 11.2403 0C11.2517 0 11.2255 0.0846221 11.1819 0.188193C11.1383 0.291764 11.0617 0.499166 11.0121 0.648942C10.9623 0.798978 10.8932 1.0326 10.8587 1.1681C10.8242 1.30385 10.7712 1.56084 10.7406 1.73916C10.7019 1.96604 10.6812 2.22769 10.6713 2.60875C10.6622 2.95528 10.6687 3.26729 10.6889 3.46535C10.7063 3.63667 10.7419 3.89365 10.7678 4.03642C10.7938 4.17919 10.8468 4.41281 10.8854 4.55557C10.9241 4.69834 11.0056 4.95532 11.0669 5.12664C11.1281 5.29796 11.2156 5.52587 11.2618 5.63282C11.3078 5.74002 11.4305 6.00271 11.5349 6.21687C11.6392 6.43102 11.8773 6.89228 12.0637 7.24219C12.2503 7.5921 12.4689 8.0243 12.5493 8.20263C12.6301 8.38122 12.7637 8.70231 12.8465 8.91646C12.9293 9.13062 13.0456 9.47507 13.1048 9.68222C13.164 9.88936 13.2453 10.2047 13.2855 10.3831C13.326 10.5617 13.3826 10.8537 13.4116 11.032C13.4407 11.2106 13.4776 11.4907 13.4934 11.655C13.5095 11.8193 13.5365 12.1222 13.5843 12.7034L13.7164 12.4841C13.7891 12.3636 13.8872 12.1949 13.9342 12.1093C13.9812 12.0236 14.0634 11.8541 14.1169 11.7329C14.1701 11.6117 14.2511 11.4071 14.2965 11.2786C14.3422 11.1501 14.4245 10.8698 14.4795 10.6556C14.5346 10.4415 14.6031 10.1084 14.6319 9.91584C14.6607 9.72297 14.6973 9.39019 14.7134 9.17604C14.735 8.89025 14.7352 8.66571 14.7142 8.33242C14.6986 8.0827 14.6701 7.76732 14.6511 7.63156C14.6319 7.4958 14.622 7.37899 14.6288 7.37198C14.6358 7.36497 14.6898 7.41559 14.7487 7.48464C14.8079 7.55369 14.9289 7.71125 15.0176 7.83507C15.1064 7.95863 15.2837 8.23508 15.4117 8.44923C15.5396 8.66338 15.7535 9.06053 15.8872 9.33179C16.0206 9.60305 16.2016 10.0062 16.2893 10.2273C16.377 10.4485 16.5144 10.8223 16.5946 11.058C16.6745 11.2937 16.7916 11.6732 16.8547 11.9016C16.9175 12.13 17.0042 12.4747 17.0475 12.6674C17.0906 12.86 17.1553 13.199 17.1913 13.4201C17.2274 13.6413 17.276 13.9803 17.2993 14.1729C17.3275 14.4065 17.3458 14.8262 17.3541 15.4318C17.3619 16.0055 17.3556 16.46 17.3372 16.6648C17.3209 16.8434 17.278 17.1819 17.2414 17.4176C17.2051 17.6533 17.1244 18.0445 17.0621 18.2872C16.9998 18.5299 16.8905 18.8977 16.8194 19.1049C16.7482 19.312 16.6361 19.604 16.5702 19.7538C16.5042 19.9036 16.3734 20.1725 16.2794 20.3508C16.1855 20.5294 16.037 20.79 15.9495 20.9299C15.8623 21.0701 15.6627 21.3562 15.5059 21.5659C15.2988 21.8437 15.0869 22.0819 14.7272 22.4428C14.4557 22.7151 14.1047 23.0395 13.9477 23.1636C13.7906 23.2877 13.5191 23.4881 13.3442 23.609C13.1692 23.7303 13.0202 23.8234 13.0132 23.8162C13.0059 23.8089 13.0404 23.736 13.0892 23.6539C13.1383 23.5719 13.2598 23.3352 13.3595 23.1283C13.4589 22.9212 13.5946 22.5941 13.6611 22.4015C13.7273 22.2089 13.8111 21.9342 13.8472 21.7915C13.8833 21.6487 13.9401 21.3684 13.9739 21.1685C14.0074 20.9686 14.0492 20.6358 14.0663 20.4287C14.0858 20.1964 14.0925 19.8337 14.0837 19.4812C14.0743 19.1023 14.0512 18.7879 14.0149 18.5468C13.985 18.3469 13.9253 18.0255 13.8823 17.8329C13.8392 17.6403 13.7896 17.4259 13.74 17.2315L13.5066 17.5778C13.3784 17.768 13.1866 18.0346 13.0807 18.1704C12.975 18.3061 12.7632 18.5571 12.6101 18.7285C12.4572 18.8998 12.2282 19.1337 12.1016 19.2484C11.9749 19.3629 11.8332 19.4885 11.7867 19.5274C11.7402 19.5661 11.6906 19.5981 11.6764 19.5981C11.6608 19.5981 11.6655 19.549 11.6886 19.4748C11.7093 19.407 11.7607 19.1996 11.8028 19.014C11.8448 18.8284 11.903 18.5247 11.9323 18.3391C11.9616 18.1535 11.9995 17.8498 12.0164 17.6642C12.0359 17.4493 12.0416 17.096 12.032 16.6908C12.0234 16.3212 12.0006 15.9515 11.9775 15.8082C11.9554 15.6725 11.9147 15.4508 11.8866 15.315C11.8586 15.1793 11.7929 14.9283 11.7407 14.7569C11.6886 14.5856 11.5824 14.3053 11.5048 14.134C11.4272 13.9626 11.3041 13.7173 11.2312 13.5888C11.1585 13.4604 11.0399 13.2735 10.9677 13.1735C10.8958 13.0736 10.7531 12.8924 10.6508 12.7712C10.5482 12.65 10.3839 12.4773 10.2853 12.388C10.1867 12.2988 10.1041 12.2287 10.1018 12.2323C10.0994 12.2359 10.1093 12.4317 10.1236 12.6674C10.1379 12.903 10.1438 13.3994 10.1368 13.7706C10.129 14.1887 10.1077 14.5638 10.081 14.7569C10.0574 14.9283 10.0086 15.2086 9.97303 15.3799C9.93746 15.5513 9.84609 15.8783 9.7703 16.1067C9.6945 16.3352 9.56393 16.6739 9.48009 16.8595C9.39624 17.0451 9.25685 17.3197 9.17041 17.4695C9.08397 17.6193 8.93887 17.8529 8.84776 17.9887C8.75691 18.1244 8.6118 18.3287 8.52536 18.4429C8.43893 18.5571 8.28136 18.75 8.17546 18.8712C8.06929 18.9925 7.89952 19.1775 7.79829 19.2821C7.69679 19.3865 7.4855 19.5861 7.32845 19.7255C7.17141 19.8649 6.93779 20.0598 6.8093 20.159C6.68081 20.2579 6.44719 20.4321 6.29015 20.5458C6.1331 20.6592 5.90649 20.8458 5.78657 20.9603C5.66664 21.0748 5.50752 21.2503 5.43328 21.3502C5.35905 21.4501 5.25392 21.6196 5.19992 21.7266C5.14593 21.8338 5.07974 21.9856 5.05274 22.064C5.02549 22.1424 4.98551 22.2826 4.96371 22.3755C4.94165 22.4685 4.91725 22.6727 4.9092 22.8298C4.90115 22.9868 4.90764 23.2147 4.92348 23.336C4.93957 23.4572 4.98785 23.6763 5.03068 23.8227C5.07377 23.9691 5.16748 24.2055 5.23886 24.3483C5.31025 24.4911 5.36268 24.6136 5.35567 24.6209C5.3484 24.6281 5.25807 24.5915 5.1545 24.5399C5.05093 24.4882 4.79109 24.3462 4.57694 24.2242C4.36279 24.102 4.02404 23.8938 3.82417 23.7611C3.62429 23.6288 3.33642 23.4234 3.18431 23.3048C3.03246 23.1864 2.76951 22.9655 2.60026 22.8142C2.43102 22.6629 2.18053 22.4176 2.04373 22.2691C1.90693 22.1206 1.69771 21.8764 1.57935 21.7266C1.46072 21.5768 1.27902 21.3255 1.17518 21.1685C1.07161 21.0114 0.916127 20.7488 0.829688 20.5844C0.743249 20.4201 0.621248 20.1632 0.558171 20.0134C0.495353 19.8636 0.402425 19.6123 0.351548 19.4553C0.30093 19.2982 0.234478 19.0646 0.204108 18.9361C0.173737 18.8076 0.126235 18.5623 0.0984601 18.391C0.0706854 18.2197 0.0346042 17.9043 0.0179913 17.6902C0.00111877 17.4674 -0.0048515 17.1175 0.00423369 16.8725C0.0127997 16.6368 0.0372 16.2983 0.0584853 16.1197C0.0797706 15.9414 0.126494 15.6434 0.162835 15.4578C0.198916 15.2722 0.252649 15.0329 0.281721 14.9257C0.311054 14.8187 0.37465 14.6082 0.423191 14.4584C0.471732 14.3087 0.559988 14.0691 0.619431 13.9263C0.678614 13.7835 0.746624 13.6226 0.770245 13.5686C0.793867 13.5146 0.821901 13.4707 0.832544 13.4713C0.843186 13.4718 0.846042 13.6384 0.838514 13.8419C0.831246 14.0454 0.837476 14.3403 0.852271 14.4974C0.867327 14.6544 0.90808 14.9348 0.942864 15.1204C0.977647 15.3059 1.05396 15.598 1.11263 15.7693C1.17103 15.9406 1.28732 16.221 1.37065 16.3923C1.45397 16.5636 1.59258 16.8089 1.67825 16.9374C1.76417 17.0659 1.89966 17.2499 1.97909 17.3462C2.05878 17.4425 2.12913 17.5186 2.13562 17.5149C2.14211 17.5113 2.12498 17.3626 2.0972 17.184C2.06969 17.0057 2.02686 16.6903 2.00194 16.4831C1.96793 16.1973 1.95677 15.8942 1.95625 15.2242C1.95547 14.5296 1.96508 14.2643 2.00142 13.9782C2.0266 13.7783 2.07124 13.4689 2.10032 13.2903C2.12965 13.112 2.18131 12.8257 2.21531 12.6544C2.24931 12.4831 2.32511 12.1386 2.38403 11.8886C2.4427 11.6389 2.5185 11.3002 2.55198 11.1358C2.58573 10.9715 2.63323 10.6915 2.65763 10.5129C2.68385 10.3203 2.70176 10.0197 2.70176 9.77307C2.70176 9.51219 2.68644 9.26612 2.66022 9.11115C2.63738 8.97539 2.59014 8.7711 2.55536 8.65689C2.52057 8.54268 2.47177 8.4025 2.40195 8.24156L2.47696 8.26285C2.5185 8.27453 2.65737 8.33372 2.78586 8.3942C2.91435 8.45468 3.09528 8.55565 3.1882 8.61873C3.28087 8.68181 3.44363 8.81549 3.54927 8.91569C3.65518 9.01614 3.80729 9.18591 3.88724 9.29285C3.96693 9.40006 4.08686 9.59266 4.15331 9.72115C4.2195 9.84964 4.31009 10.0454 4.35396 10.1559C4.39809 10.2665 4.47441 10.5118 4.52373 10.7011C4.57305 10.8903 4.63664 11.2028 4.6652 11.3954C4.69375 11.588 4.72931 11.8627 4.74411 12.0054C4.75916 12.1482 4.8007 12.6154 4.83652 13.0437C4.87234 13.472 4.90167 13.8313 4.90167 13.8419C4.90141 13.8526 4.91309 13.8614 4.92737 13.8614C4.94165 13.8614 5.08312 13.7358 5.24172 13.5824C5.40032 13.4289 5.60331 13.2039 5.69286 13.0827C5.78216 12.9615 5.90935 12.7686 5.97502 12.6544C6.04095 12.5402 6.13518 12.3473 6.1845 12.2261C6.23382 12.1048 6.30442 11.9003 6.34154 11.7718C6.37866 11.6433 6.4272 11.4331 6.44953 11.3046C6.47367 11.1667 6.49573 10.842 6.50326 10.5129C6.51235 10.1191 6.50352 9.79799 6.47341 9.42264C6.44979 9.1301 6.41345 8.66857 6.39294 8.39731C6.37217 8.12605 6.3553 7.64713 6.3553 7.33305C6.35504 6.98521 6.37036 6.63011 6.3945 6.42453C6.4163 6.23893 6.46432 5.95262 6.50144 5.78856C6.53856 5.62451 6.62033 5.3382 6.68367 5.1526C6.74674 4.967 6.90171 4.60489 7.02786 4.34791C7.16233 4.07406 7.35805 3.73012 7.50055 3.51675C7.63424 3.31661 7.85981 3.0072 8.00154 2.82887C8.14353 2.6508 8.49967 2.26507 8.79325 1.97175C9.08709 1.67842 9.47905 1.3119 9.66465 1.15771C9.85024 1.00326 10.1539 0.762896 10.3395 0.623763Z" fill="black" fill-opacity="0.6"/>
</g>
<defs>
<filter id="filter0_n_536_379" x="0" y="0" width="152.565" height="24.6218" filterUnits="userSpaceOnUse" color-interpolation-filters="sRGB">
<feFlood flood-opacity="0" result="BackgroundImageFix"/>
<feBlend mode="normal" in="SourceGraphic" in2="BackgroundImageFix" result="shape"/>
<feTurbulence type="fractalNoise" baseFrequency="1.3529698848724365 1.3529698848724365" stitchTiles="stitch" numOctaves="3" result="noise" seed="423" />
<feColorMatrix in="noise" type="luminanceToAlpha" result="alphaNoise" />
<feComponentTransfer in="alphaNoise" result="coloredNoise1">
<feFuncA type="discrete" tableValues="1 1 1 1 1 1 1 1 1 1 1 1 1 1 1 1 1 1 1 1 1 1 1 1 1 1 1 1 1 1 1 1 1 1 1 1 1 1 1 1 1 1 1 1 1 1 1 1 1 1 1 0 0 0 0 0 0 0 0 0 0 0 0 0 0 0 0 0 0 0 0 0 0 0 0 0 0 0 0 0 0 0 0 0 0 0 0 0 0 0 0 0 0 0 0 0 0 0 0 0 "/>
</feComponentTransfer>
<feComposite operator="in" in2="shape" in="coloredNoise1" result="noise1Clipped" />
<feFlood flood-color="rgba(50, 2, 2, 0.08)" result="color1Flood" />
<feComposite operator="in" in2="noise1Clipped" in="color1Flood" result="color1" />
<feMerge result="effect1_noise_536_379">
<feMergeNode in="shape" />
<feMergeNode in="color1" />
</feMerge>
</filter>
</defs>
</svg>
